<?xml version="1.0" encoding="utf-8" standalone="no"?>
<!DOCTYPE svg PUBLIC "-//W3C//DTD SVG 1.1//EN"
  "http://www.w3.org/Graphics/SVG/1.1/DTD/svg11.dtd">
<svg xmlns:xlink="http://www.w3.org/1999/xlink" width="414pt" height="180pt" viewBox="0 0 414 180" xmlns="http://www.w3.org/2000/svg" version="1.1">
 <metadata>
  <rdf:RDF xmlns:dc="http://purl.org/dc/elements/1.1/" xmlns:cc="http://creativecommons.org/ns#" xmlns:rdf="http://www.w3.org/1999/02/22-rdf-syntax-ns#">
   <cc:Work>
    <dc:type rdf:resource="http://purl.org/dc/dcmitype/StillImage"/>
    <dc:date>2026-04-26T23:10:21.660560</dc:date>
    <dc:format>image/svg+xml</dc:format>
    <dc:creator>
     <cc:Agent>
      <dc:title>Matplotlib v3.10.7, https://matplotlib.org/</dc:title>
     </cc:Agent>
    </dc:creator>
   </cc:Work>
  </rdf:RDF>
 </metadata>
 <defs>
  <style type="text/css">*{stroke-linejoin: round; stroke-linecap: butt}</style>
 </defs>
 <g id="figure_1">
  <g id="patch_1">
   <path d="M 0 180 
L 414 180 
L 414 0 
L 0 0 
L 0 180 
z
" style="fill: none"/>
  </g>
  <g id="axes_1">
   <g id="patch_2">
    <path d="M 58.11 139.811563 
L 403.2 139.811563 
L 403.2 10.8 
L 58.11 10.8 
L 58.11 139.811563 
z
" style="fill: none"/>
   </g>
   <g id="matplotlib.axis_1">
    <g id="xtick_1">
     <g id="line2d_1">
      <defs>
       <path id="m1e2aac202e" d="M 0 0 
L 0 3.5 
" style="stroke: #000000; stroke-width: 0.8"/>
      </defs>
      <g>
       <use xlink:href="#m1e2aac202e" x="106.031801" y="139.811563" style="stroke: #000000; stroke-width: 0.8"/>
      </g>
     </g>
     <g id="text_1">
      <!-- 200 -->
      <g transform="translate(97.442426 153.650156) scale(0.09 -0.09)">
       <defs>
        <path id="DejaVuSans-32" d="M 1228 531 
L 3431 531 
L 3431 0 
L 469 0 
L 469 531 
Q 828 903 1448 1529 
Q 2069 2156 2228 2338 
Q 2531 2678 2651 2914 
Q 2772 3150 2772 3378 
Q 2772 3750 2511 3984 
Q 2250 4219 1831 4219 
Q 1534 4219 1204 4116 
Q 875 4013 500 3803 
L 500 4441 
Q 881 4594 1212 4672 
Q 1544 4750 1819 4750 
Q 2544 4750 2975 4387 
Q 3406 4025 3406 3419 
Q 3406 3131 3298 2873 
Q 3191 2616 2906 2266 
Q 2828 2175 2409 1742 
Q 1991 1309 1228 531 
z
" transform="scale(0.015625)"/>
        <path id="DejaVuSans-30" d="M 2034 4250 
Q 1547 4250 1301 3770 
Q 1056 3291 1056 2328 
Q 1056 1369 1301 889 
Q 1547 409 2034 409 
Q 2525 409 2770 889 
Q 3016 1369 3016 2328 
Q 3016 3291 2770 3770 
Q 2525 4250 2034 4250 
z
M 2034 4750 
Q 2819 4750 3233 4129 
Q 3647 3509 3647 2328 
Q 3647 1150 3233 529 
Q 2819 -91 2034 -91 
Q 1250 -91 836 529 
Q 422 1150 422 2328 
Q 422 3509 836 4129 
Q 1250 4750 2034 4750 
z
" transform="scale(0.015625)"/>
       </defs>
       <use xlink:href="#DejaVuSans-32"/>
       <use xlink:href="#DejaVuSans-30" transform="translate(63.623047 0)"/>
       <use xlink:href="#DejaVuSans-30" transform="translate(127.246094 0)"/>
      </g>
     </g>
    </g>
    <g id="xtick_2">
     <g id="line2d_2">
      <g>
       <use xlink:href="#m1e2aac202e" x="162.328259" y="139.811563" style="stroke: #000000; stroke-width: 0.8"/>
      </g>
     </g>
     <g id="text_2">
      <!-- 210 -->
      <g transform="translate(153.738884 153.650156) scale(0.09 -0.09)">
       <defs>
        <path id="DejaVuSans-31" d="M 794 531 
L 1825 531 
L 1825 4091 
L 703 3866 
L 703 4441 
L 1819 4666 
L 2450 4666 
L 2450 531 
L 3481 531 
L 3481 0 
L 794 0 
L 794 531 
z
" transform="scale(0.015625)"/>
       </defs>
       <use xlink:href="#DejaVuSans-32"/>
       <use xlink:href="#DejaVuSans-31" transform="translate(63.623047 0)"/>
       <use xlink:href="#DejaVuSans-30" transform="translate(127.246094 0)"/>
      </g>
     </g>
    </g>
    <g id="xtick_3">
     <g id="line2d_3">
      <g>
       <use xlink:href="#m1e2aac202e" x="218.624717" y="139.811563" style="stroke: #000000; stroke-width: 0.8"/>
      </g>
     </g>
     <g id="text_3">
      <!-- 220 -->
      <g transform="translate(210.035342 153.650156) scale(0.09 -0.09)">
       <use xlink:href="#DejaVuSans-32"/>
       <use xlink:href="#DejaVuSans-32" transform="translate(63.623047 0)"/>
       <use xlink:href="#DejaVuSans-30" transform="translate(127.246094 0)"/>
      </g>
     </g>
    </g>
    <g id="xtick_4">
     <g id="line2d_4">
      <g>
       <use xlink:href="#m1e2aac202e" x="274.921175" y="139.811563" style="stroke: #000000; stroke-width: 0.8"/>
      </g>
     </g>
     <g id="text_4">
      <!-- 230 -->
      <g transform="translate(266.3318 153.650156) scale(0.09 -0.09)">
       <defs>
        <path id="DejaVuSans-33" d="M 2597 2516 
Q 3050 2419 3304 2112 
Q 3559 1806 3559 1356 
Q 3559 666 3084 287 
Q 2609 -91 1734 -91 
Q 1441 -91 1130 -33 
Q 819 25 488 141 
L 488 750 
Q 750 597 1062 519 
Q 1375 441 1716 441 
Q 2309 441 2620 675 
Q 2931 909 2931 1356 
Q 2931 1769 2642 2001 
Q 2353 2234 1838 2234 
L 1294 2234 
L 1294 2753 
L 1863 2753 
Q 2328 2753 2575 2939 
Q 2822 3125 2822 3475 
Q 2822 3834 2567 4026 
Q 2313 4219 1838 4219 
Q 1578 4219 1281 4162 
Q 984 4106 628 3988 
L 628 4550 
Q 988 4650 1302 4700 
Q 1616 4750 1894 4750 
Q 2613 4750 3031 4423 
Q 3450 4097 3450 3541 
Q 3450 3153 3228 2886 
Q 3006 2619 2597 2516 
z
" transform="scale(0.015625)"/>
       </defs>
       <use xlink:href="#DejaVuSans-32"/>
       <use xlink:href="#DejaVuSans-33" transform="translate(63.623047 0)"/>
       <use xlink:href="#DejaVuSans-30" transform="translate(127.246094 0)"/>
      </g>
     </g>
    </g>
    <g id="xtick_5">
     <g id="line2d_5">
      <g>
       <use xlink:href="#m1e2aac202e" x="331.217633" y="139.811563" style="stroke: #000000; stroke-width: 0.8"/>
      </g>
     </g>
     <g id="text_5">
      <!-- 240 -->
      <g transform="translate(322.628258 153.650156) scale(0.09 -0.09)">
       <defs>
        <path id="DejaVuSans-34" d="M 2419 4116 
L 825 1625 
L 2419 1625 
L 2419 4116 
z
M 2253 4666 
L 3047 4666 
L 3047 1625 
L 3713 1625 
L 3713 1100 
L 3047 1100 
L 3047 0 
L 2419 0 
L 2419 1100 
L 313 1100 
L 313 1709 
L 2253 4666 
z
" transform="scale(0.015625)"/>
       </defs>
       <use xlink:href="#DejaVuSans-32"/>
       <use xlink:href="#DejaVuSans-34" transform="translate(63.623047 0)"/>
       <use xlink:href="#DejaVuSans-30" transform="translate(127.246094 0)"/>
      </g>
     </g>
    </g>
    <g id="xtick_6">
     <g id="line2d_6">
      <g>
       <use xlink:href="#m1e2aac202e" x="387.514091" y="139.811563" style="stroke: #000000; stroke-width: 0.8"/>
      </g>
     </g>
     <g id="text_6">
      <!-- 250 -->
      <g transform="translate(378.924716 153.650156) scale(0.09 -0.09)">
       <defs>
        <path id="DejaVuSans-35" d="M 691 4666 
L 3169 4666 
L 3169 4134 
L 1269 4134 
L 1269 2991 
Q 1406 3038 1543 3061 
Q 1681 3084 1819 3084 
Q 2600 3084 3056 2656 
Q 3513 2228 3513 1497 
Q 3513 744 3044 326 
Q 2575 -91 1722 -91 
Q 1428 -91 1123 -41 
Q 819 9 494 109 
L 494 744 
Q 775 591 1075 516 
Q 1375 441 1709 441 
Q 2250 441 2565 725 
Q 2881 1009 2881 1497 
Q 2881 1984 2565 2268 
Q 2250 2553 1709 2553 
Q 1456 2553 1204 2497 
Q 953 2441 691 2322 
L 691 4666 
z
" transform="scale(0.015625)"/>
       </defs>
       <use xlink:href="#DejaVuSans-32"/>
       <use xlink:href="#DejaVuSans-35" transform="translate(63.623047 0)"/>
       <use xlink:href="#DejaVuSans-30" transform="translate(127.246094 0)"/>
      </g>
     </g>
    </g>
    <g id="text_7">
     <!-- Altitude [km] -->
     <g transform="translate(197.860469 167.120313) scale(0.1 -0.1)">
      <defs>
       <path id="DejaVuSans-41" d="M 2188 4044 
L 1331 1722 
L 3047 1722 
L 2188 4044 
z
M 1831 4666 
L 2547 4666 
L 4325 0 
L 3669 0 
L 3244 1197 
L 1141 1197 
L 716 0 
L 50 0 
L 1831 4666 
z
" transform="scale(0.015625)"/>
       <path id="DejaVuSans-6c" d="M 603 4863 
L 1178 4863 
L 1178 0 
L 603 0 
L 603 4863 
z
" transform="scale(0.015625)"/>
       <path id="DejaVuSans-74" d="M 1172 4494 
L 1172 3500 
L 2356 3500 
L 2356 3053 
L 1172 3053 
L 1172 1153 
Q 1172 725 1289 603 
Q 1406 481 1766 481 
L 2356 481 
L 2356 0 
L 1766 0 
Q 1100 0 847 248 
Q 594 497 594 1153 
L 594 3053 
L 172 3053 
L 172 3500 
L 594 3500 
L 594 4494 
L 1172 4494 
z
" transform="scale(0.015625)"/>
       <path id="DejaVuSans-69" d="M 603 3500 
L 1178 3500 
L 1178 0 
L 603 0 
L 603 3500 
z
M 603 4863 
L 1178 4863 
L 1178 4134 
L 603 4134 
L 603 4863 
z
" transform="scale(0.015625)"/>
       <path id="DejaVuSans-75" d="M 544 1381 
L 544 3500 
L 1119 3500 
L 1119 1403 
Q 1119 906 1312 657 
Q 1506 409 1894 409 
Q 2359 409 2629 706 
Q 2900 1003 2900 1516 
L 2900 3500 
L 3475 3500 
L 3475 0 
L 2900 0 
L 2900 538 
Q 2691 219 2414 64 
Q 2138 -91 1772 -91 
Q 1169 -91 856 284 
Q 544 659 544 1381 
z
M 1991 3584 
L 1991 3584 
z
" transform="scale(0.015625)"/>
       <path id="DejaVuSans-64" d="M 2906 2969 
L 2906 4863 
L 3481 4863 
L 3481 0 
L 2906 0 
L 2906 525 
Q 2725 213 2448 61 
Q 2172 -91 1784 -91 
Q 1150 -91 751 415 
Q 353 922 353 1747 
Q 353 2572 751 3078 
Q 1150 3584 1784 3584 
Q 2172 3584 2448 3432 
Q 2725 3281 2906 2969 
z
M 947 1747 
Q 947 1113 1208 752 
Q 1469 391 1925 391 
Q 2381 391 2643 752 
Q 2906 1113 2906 1747 
Q 2906 2381 2643 2742 
Q 2381 3103 1925 3103 
Q 1469 3103 1208 2742 
Q 947 2381 947 1747 
z
" transform="scale(0.015625)"/>
       <path id="DejaVuSans-65" d="M 3597 1894 
L 3597 1613 
L 953 1613 
Q 991 1019 1311 708 
Q 1631 397 2203 397 
Q 2534 397 2845 478 
Q 3156 559 3463 722 
L 3463 178 
Q 3153 47 2828 -22 
Q 2503 -91 2169 -91 
Q 1331 -91 842 396 
Q 353 884 353 1716 
Q 353 2575 817 3079 
Q 1281 3584 2069 3584 
Q 2775 3584 3186 3129 
Q 3597 2675 3597 1894 
z
M 3022 2063 
Q 3016 2534 2758 2815 
Q 2500 3097 2075 3097 
Q 1594 3097 1305 2825 
Q 1016 2553 972 2059 
L 3022 2063 
z
" transform="scale(0.015625)"/>
       <path id="DejaVuSans-20" transform="scale(0.015625)"/>
       <path id="DejaVuSans-5b" d="M 550 4863 
L 1875 4863 
L 1875 4416 
L 1125 4416 
L 1125 -397 
L 1875 -397 
L 1875 -844 
L 550 -844 
L 550 4863 
z
" transform="scale(0.015625)"/>
       <path id="DejaVuSans-6b" d="M 581 4863 
L 1159 4863 
L 1159 1991 
L 2875 3500 
L 3609 3500 
L 1753 1863 
L 3688 0 
L 2938 0 
L 1159 1709 
L 1159 0 
L 581 0 
L 581 4863 
z
" transform="scale(0.015625)"/>
       <path id="DejaVuSans-6d" d="M 3328 2828 
Q 3544 3216 3844 3400 
Q 4144 3584 4550 3584 
Q 5097 3584 5394 3201 
Q 5691 2819 5691 2113 
L 5691 0 
L 5113 0 
L 5113 2094 
Q 5113 2597 4934 2840 
Q 4756 3084 4391 3084 
Q 3944 3084 3684 2787 
Q 3425 2491 3425 1978 
L 3425 0 
L 2847 0 
L 2847 2094 
Q 2847 2600 2669 2842 
Q 2491 3084 2119 3084 
Q 1678 3084 1418 2786 
Q 1159 2488 1159 1978 
L 1159 0 
L 581 0 
L 581 3500 
L 1159 3500 
L 1159 2956 
Q 1356 3278 1631 3431 
Q 1906 3584 2284 3584 
Q 2666 3584 2933 3390 
Q 3200 3197 3328 2828 
z
" transform="scale(0.015625)"/>
       <path id="DejaVuSans-5d" d="M 1947 4863 
L 1947 -844 
L 622 -844 
L 622 -397 
L 1369 -397 
L 1369 4416 
L 622 4416 
L 622 4863 
L 1947 4863 
z
" transform="scale(0.015625)"/>
      </defs>
      <use xlink:href="#DejaVuSans-41"/>
      <use xlink:href="#DejaVuSans-6c" transform="translate(68.408203 0)"/>
      <use xlink:href="#DejaVuSans-74" transform="translate(96.191406 0)"/>
      <use xlink:href="#DejaVuSans-69" transform="translate(135.400391 0)"/>
      <use xlink:href="#DejaVuSans-74" transform="translate(163.183594 0)"/>
      <use xlink:href="#DejaVuSans-75" transform="translate(202.392578 0)"/>
      <use xlink:href="#DejaVuSans-64" transform="translate(265.771484 0)"/>
      <use xlink:href="#DejaVuSans-65" transform="translate(329.248047 0)"/>
      <use xlink:href="#DejaVuSans-20" transform="translate(390.771484 0)"/>
      <use xlink:href="#DejaVuSans-5b" transform="translate(422.558594 0)"/>
      <use xlink:href="#DejaVuSans-6b" transform="translate(461.572266 0)"/>
      <use xlink:href="#DejaVuSans-6d" transform="translate(519.482422 0)"/>
      <use xlink:href="#DejaVuSans-5d" transform="translate(616.894531 0)"/>
     </g>
    </g>
   </g>
   <g id="matplotlib.axis_2">
    <g id="ytick_1">
     <g id="line2d_7">
      <defs>
       <path id="md10a620696" d="M 0 0 
L -3.5 0 
" style="stroke: #000000; stroke-width: 0.8"/>
      </defs>
      <g>
       <use xlink:href="#md10a620696" x="58.11" y="100.855812" style="stroke: #000000; stroke-width: 0.8"/>
      </g>
     </g>
     <g id="text_8">
      <!-- $\mathdefault{10^{-12}}$ -->
      <g transform="translate(26 104.275109) scale(0.09 -0.09)">
       <defs>
        <path id="DejaVuSans-2212" d="M 678 2272 
L 4684 2272 
L 4684 1741 
L 678 1741 
L 678 2272 
z
" transform="scale(0.015625)"/>
       </defs>
       <use xlink:href="#DejaVuSans-31" transform="translate(0 0.765625)"/>
       <use xlink:href="#DejaVuSans-30" transform="translate(63.623047 0.765625)"/>
       <use xlink:href="#DejaVuSans-2212" transform="translate(128.203125 39.046875) scale(0.7)"/>
       <use xlink:href="#DejaVuSans-31" transform="translate(186.855469 39.046875) scale(0.7)"/>
       <use xlink:href="#DejaVuSans-32" transform="translate(231.391602 39.046875) scale(0.7)"/>
      </g>
     </g>
    </g>
    <g id="ytick_2">
     <g id="line2d_8">
      <g>
       <use xlink:href="#md10a620696" x="58.11" y="61.863086" style="stroke: #000000; stroke-width: 0.8"/>
      </g>
     </g>
     <g id="text_9">
      <!-- $\mathdefault{10^{-11}}$ -->
      <g transform="translate(26 65.282383) scale(0.09 -0.09)">
       <use xlink:href="#DejaVuSans-31" transform="translate(0 0.684375)"/>
       <use xlink:href="#DejaVuSans-30" transform="translate(63.623047 0.684375)"/>
       <use xlink:href="#DejaVuSans-2212" transform="translate(128.203125 38.965625) scale(0.7)"/>
       <use xlink:href="#DejaVuSans-31" transform="translate(186.855469 38.965625) scale(0.7)"/>
       <use xlink:href="#DejaVuSans-31" transform="translate(231.391602 38.965625) scale(0.7)"/>
      </g>
     </g>
    </g>
    <g id="ytick_3">
     <g id="line2d_9">
      <g>
       <use xlink:href="#md10a620696" x="58.11" y="22.870361" style="stroke: #000000; stroke-width: 0.8"/>
      </g>
     </g>
     <g id="text_10">
      <!-- $\mathdefault{10^{-10}}$ -->
      <g transform="translate(26 26.289658) scale(0.09 -0.09)">
       <use xlink:href="#DejaVuSans-31" transform="translate(0 0.765625)"/>
       <use xlink:href="#DejaVuSans-30" transform="translate(63.623047 0.765625)"/>
       <use xlink:href="#DejaVuSans-2212" transform="translate(128.203125 39.046875) scale(0.7)"/>
       <use xlink:href="#DejaVuSans-31" transform="translate(186.855469 39.046875) scale(0.7)"/>
       <use xlink:href="#DejaVuSans-30" transform="translate(231.391602 39.046875) scale(0.7)"/>
      </g>
     </g>
    </g>
    <g id="ytick_4">
     <g id="line2d_10">
      <defs>
       <path id="m23873d4fa6" d="M 0 0 
L -2 0 
" style="stroke: #000000; stroke-width: 0.6"/>
      </defs>
      <g>
       <use xlink:href="#m23873d4fa6" x="58.11" y="128.110557" style="stroke: #000000; stroke-width: 0.6"/>
      </g>
     </g>
    </g>
    <g id="ytick_5">
     <g id="line2d_11">
      <g>
       <use xlink:href="#m23873d4fa6" x="58.11" y="121.244279" style="stroke: #000000; stroke-width: 0.6"/>
      </g>
     </g>
    </g>
    <g id="ytick_6">
     <g id="line2d_12">
      <g>
       <use xlink:href="#m23873d4fa6" x="58.11" y="116.372577" style="stroke: #000000; stroke-width: 0.6"/>
      </g>
     </g>
    </g>
    <g id="ytick_7">
     <g id="line2d_13">
      <g>
       <use xlink:href="#m23873d4fa6" x="58.11" y="112.593792" style="stroke: #000000; stroke-width: 0.6"/>
      </g>
     </g>
    </g>
    <g id="ytick_8">
     <g id="line2d_14">
      <g>
       <use xlink:href="#m23873d4fa6" x="58.11" y="109.506299" style="stroke: #000000; stroke-width: 0.6"/>
      </g>
     </g>
    </g>
    <g id="ytick_9">
     <g id="line2d_15">
      <g>
       <use xlink:href="#m23873d4fa6" x="58.11" y="106.895861" style="stroke: #000000; stroke-width: 0.6"/>
      </g>
     </g>
    </g>
    <g id="ytick_10">
     <g id="line2d_16">
      <g>
       <use xlink:href="#m23873d4fa6" x="58.11" y="104.634597" style="stroke: #000000; stroke-width: 0.6"/>
      </g>
     </g>
    </g>
    <g id="ytick_11">
     <g id="line2d_17">
      <g>
       <use xlink:href="#m23873d4fa6" x="58.11" y="102.640021" style="stroke: #000000; stroke-width: 0.6"/>
      </g>
     </g>
    </g>
    <g id="ytick_12">
     <g id="line2d_18">
      <g>
       <use xlink:href="#m23873d4fa6" x="58.11" y="89.117832" style="stroke: #000000; stroke-width: 0.6"/>
      </g>
     </g>
    </g>
    <g id="ytick_13">
     <g id="line2d_19">
      <g>
       <use xlink:href="#m23873d4fa6" x="58.11" y="82.251554" style="stroke: #000000; stroke-width: 0.6"/>
      </g>
     </g>
    </g>
    <g id="ytick_14">
     <g id="line2d_20">
      <g>
       <use xlink:href="#m23873d4fa6" x="58.11" y="77.379852" style="stroke: #000000; stroke-width: 0.6"/>
      </g>
     </g>
    </g>
    <g id="ytick_15">
     <g id="line2d_21">
      <g>
       <use xlink:href="#m23873d4fa6" x="58.11" y="73.601066" style="stroke: #000000; stroke-width: 0.6"/>
      </g>
     </g>
    </g>
    <g id="ytick_16">
     <g id="line2d_22">
      <g>
       <use xlink:href="#m23873d4fa6" x="58.11" y="70.513574" style="stroke: #000000; stroke-width: 0.6"/>
      </g>
     </g>
    </g>
    <g id="ytick_17">
     <g id="line2d_23">
      <g>
       <use xlink:href="#m23873d4fa6" x="58.11" y="67.903136" style="stroke: #000000; stroke-width: 0.6"/>
      </g>
     </g>
    </g>
    <g id="ytick_18">
     <g id="line2d_24">
      <g>
       <use xlink:href="#m23873d4fa6" x="58.11" y="65.641872" style="stroke: #000000; stroke-width: 0.6"/>
      </g>
     </g>
    </g>
    <g id="ytick_19">
     <g id="line2d_25">
      <g>
       <use xlink:href="#m23873d4fa6" x="58.11" y="63.647295" style="stroke: #000000; stroke-width: 0.6"/>
      </g>
     </g>
    </g>
    <g id="ytick_20">
     <g id="line2d_26">
      <g>
       <use xlink:href="#m23873d4fa6" x="58.11" y="50.125106" style="stroke: #000000; stroke-width: 0.6"/>
      </g>
     </g>
    </g>
    <g id="ytick_21">
     <g id="line2d_27">
      <g>
       <use xlink:href="#m23873d4fa6" x="58.11" y="43.258828" style="stroke: #000000; stroke-width: 0.6"/>
      </g>
     </g>
    </g>
    <g id="ytick_22">
     <g id="line2d_28">
      <g>
       <use xlink:href="#m23873d4fa6" x="58.11" y="38.387126" style="stroke: #000000; stroke-width: 0.6"/>
      </g>
     </g>
    </g>
    <g id="ytick_23">
     <g id="line2d_29">
      <g>
       <use xlink:href="#m23873d4fa6" x="58.11" y="34.608341" style="stroke: #000000; stroke-width: 0.6"/>
      </g>
     </g>
    </g>
    <g id="ytick_24">
     <g id="line2d_30">
      <g>
       <use xlink:href="#m23873d4fa6" x="58.11" y="31.520848" style="stroke: #000000; stroke-width: 0.6"/>
      </g>
     </g>
    </g>
    <g id="ytick_25">
     <g id="line2d_31">
      <g>
       <use xlink:href="#m23873d4fa6" x="58.11" y="28.91041" style="stroke: #000000; stroke-width: 0.6"/>
      </g>
     </g>
    </g>
    <g id="ytick_26">
     <g id="line2d_32">
      <g>
       <use xlink:href="#m23873d4fa6" x="58.11" y="26.649146" style="stroke: #000000; stroke-width: 0.6"/>
      </g>
     </g>
    </g>
    <g id="ytick_27">
     <g id="line2d_33">
      <g>
       <use xlink:href="#m23873d4fa6" x="58.11" y="24.65457" style="stroke: #000000; stroke-width: 0.6"/>
      </g>
     </g>
    </g>
    <g id="ytick_28">
     <g id="line2d_34">
      <g>
       <use xlink:href="#m23873d4fa6" x="58.11" y="11.132381" style="stroke: #000000; stroke-width: 0.6"/>
      </g>
     </g>
    </g>
    <g id="text_11">
     <!-- $\rho$ [kg/m$^3$] -->
     <g transform="translate(19.9 99.055781) rotate(-90) scale(0.1 -0.1)">
      <defs>
       <path id="DejaVuSans-Oblique-3c1" d="M 1203 2875 
Q 1453 3194 1981 3475 
Q 2188 3584 2756 3584 
Q 3394 3584 3694 3078 
Q 3994 2572 3834 1747 
Q 3672 922 3175 415 
Q 2678 -91 2041 -91 
Q 1656 -91 1409 63 
Q 1163 213 1044 525 
L 681 -1331 
L 103 -1331 
L 697 1716 
Q 838 2438 1203 2875 
z
M 3238 1747 
Q 3359 2381 3169 2744 
Q 2978 3103 2522 3103 
Q 2066 3103 1734 2744 
Q 1403 2381 1281 1747 
Q 1156 1113 1347 750 
Q 1538 391 1994 391 
Q 2450 391 2781 750 
Q 3113 1113 3238 1747 
z
" transform="scale(0.015625)"/>
       <path id="DejaVuSans-67" d="M 2906 1791 
Q 2906 2416 2648 2759 
Q 2391 3103 1925 3103 
Q 1463 3103 1205 2759 
Q 947 2416 947 1791 
Q 947 1169 1205 825 
Q 1463 481 1925 481 
Q 2391 481 2648 825 
Q 2906 1169 2906 1791 
z
M 3481 434 
Q 3481 -459 3084 -895 
Q 2688 -1331 1869 -1331 
Q 1566 -1331 1297 -1286 
Q 1028 -1241 775 -1147 
L 775 -588 
Q 1028 -725 1275 -790 
Q 1522 -856 1778 -856 
Q 2344 -856 2625 -561 
Q 2906 -266 2906 331 
L 2906 616 
Q 2728 306 2450 153 
Q 2172 0 1784 0 
Q 1141 0 747 490 
Q 353 981 353 1791 
Q 353 2603 747 3093 
Q 1141 3584 1784 3584 
Q 2172 3584 2450 3431 
Q 2728 3278 2906 2969 
L 2906 3500 
L 3481 3500 
L 3481 434 
z
" transform="scale(0.015625)"/>
       <path id="DejaVuSans-2f" d="M 1625 4666 
L 2156 4666 
L 531 -594 
L 0 -594 
L 1625 4666 
z
" transform="scale(0.015625)"/>
      </defs>
      <use xlink:href="#DejaVuSans-Oblique-3c1" transform="translate(0 0.765625)"/>
      <use xlink:href="#DejaVuSans-20" transform="translate(63.476562 0.765625)"/>
      <use xlink:href="#DejaVuSans-5b" transform="translate(95.263672 0.765625)"/>
      <use xlink:href="#DejaVuSans-6b" transform="translate(134.277344 0.765625)"/>
      <use xlink:href="#DejaVuSans-67" transform="translate(192.1875 0.765625)"/>
      <use xlink:href="#DejaVuSans-2f" transform="translate(255.664062 0.765625)"/>
      <use xlink:href="#DejaVuSans-6d" transform="translate(289.355469 0.765625)"/>
      <use xlink:href="#DejaVuSans-33" transform="translate(387.724609 39.046875) scale(0.7)"/>
      <use xlink:href="#DejaVuSans-5d" transform="translate(434.995117 0.765625)"/>
     </g>
    </g>
   </g>
   <g id="line2d_35">
    <path d="M 387.514091 127.147291 
L 387.514083 127.14729 
L 387.50952 133.740415 
L 387.500715 123.921573 
L 387.40633 126.687316 
L 387.308722 123.290266 
L 387.373152 128.721347 
L 387.295283 123.86916 
L 387.266732 130.302204 
L 387.176383 127.034636 
L 387.15804 129.82952 
L 387.109547 124.157259 
L 387.067997 127.511349 
L 386.94095 132.741066 
L 386.86375 126.690569 
L 386.83678 128.458079 
L 386.823064 131.570815 
L 386.737546 128.435991 
L 386.722758 125.639585 
L 386.66209 130.290024 
L 386.646545 130.063568 
L 386.615007 133.947401 
L 386.533578 131.43219 
L 386.499991 133.025663 
L 386.465834 128.15386 
L 386.431111 125.373477 
L 386.413538 128.227994 
L 386.323592 125.473672 
L 386.30519 125.574834 
L 386.172598 130.174775 
L 386.053843 126.791243 
L 385.951426 123.574205 
L 386.013246 126.900427 
L 385.909602 124.189414 
L 385.888509 126.005937 
L 385.845964 122.527873 
L 385.824513 122.840963 
L 385.802944 123.13104 
L 385.781258 122.898683 
L 385.759455 121.147973 
L 385.67108 122.129423 
L 385.580878 124.713308 
L 385.535107 124.193852 
L 385.512057 125.337809 
L 385.442263 123.61062 
L 385.418786 124.767572 
L 385.395206 124.984481 
L 385.371521 122.816641 
L 385.323847 125.664456 
L 385.29986 124.813993 
L 385.275774 124.937669 
L 385.153907 126.443675 
L 385.129255 126.518607 
L 385.079686 123.665543 
L 385.029767 125.77104 
L 385.00468 126.507095 
L 384.954258 124.973884 
L 384.928925 125.074032 
L 384.801111 126.497212 
L 384.671512 122.937758 
L 384.749475 126.610395 
L 384.645394 123.189335 
L 384.513888 126.392124 
L 384.460888 124.044958 
L 384.407679 125.789252 
L 384.381 125.803371 
L 384.300687 126.115685 
L 384.24693 124.060908 
L 384.219991 124.298776 
L 384.057599 120.150854 
L 383.839343 124.320189 
L 383.975962 120.122738 
L 383.757093 123.509312 
L 383.674679 122.040919 
L 383.647178 122.331848 
L 383.619664 123.502219 
L 383.592138 121.498583 
L 383.564602 122.686948 
L 383.537058 122.129524 
L 383.509505 122.410496 
L 383.481947 123.577954 
L 383.426817 121.870926 
L 383.206319 124.664918 
L 383.178783 122.405076 
L 383.096248 124.04159 
L 383.068764 123.298378 
L 383.013849 123.644268 
L 382.986421 124.778274 
L 382.959013 122.4797 
L 382.904267 121.681676 
L 382.849621 122.253874 
L 382.740673 124.106905 
L 382.659306 123.11819 
L 382.632257 122.470883 
L 382.605247 123.629965 
L 382.524463 124.256842 
L 382.497622 123.460177 
L 382.444078 124.74233 
L 382.417379 124.877616 
L 382.39073 123.438316 
L 382.337588 125.351068 
L 382.231976 130.548941 
L 382.205725 132.511709 
L 382.179538 128.24625 
L 382.101387 127.446842 
L 382.075479 128.466159 
L 382.049644 125.270565 
L 382.023885 125.257178 
L 381.998203 127.007555 
L 381.947078 124.938658 
L 381.921637 126.029904 
L 381.89628 126.042056 
L 381.820725 130.270255 
L 381.745984 128.280925 
L 381.623341 125.068728 
L 381.599113 126.153673 
L 381.55097 126.136973 
L 381.432483 123.323001 
L 381.385858 124.322858 
L 381.271287 126.238685 
L 381.248724 124.410089 
L 381.203955 127.205677 
L 381.181753 127.089095 
L 381.115889 129.197763 
L 381.072612 127.637026 
L 381.008669 126.020024 
L 380.987619 127.785238 
L 380.966702 127.496195 
L 380.844077 130.995607 
L 380.726556 126.126661 
L 380.70748 127.173824 
L 380.596141 123.999919 
L 380.578109 124.054715 
L 380.542498 125.207486 
L 380.507494 122.804502 
L 380.473095 124.088014 
L 380.406116 120.891391 
L 380.357469 122.376231 
L 380.219662 126.642705 
L 380.176441 126.101043 
L 380.162337 125.9535 
L 380.107432 128.48279 
L 380.042208 127.488919 
L 379.957221 122.724623 
L 379.900953 122.769907 
L 379.890134 122.99433 
L 379.879457 121.716353 
L 379.868922 122.018197 
L 379.848271 119.124069 
L 379.79902 123.376675 
L 379.761973 119.420102 
L 379.662505 126.788031 
L 379.640212 122.215639 
L 379.598492 125.666464 
L 379.591895 124.537763 
L 379.483897 129.028354 
L 379.542581 123.545982 
L 379.474242 126.355057 
L 379.430039 121.229241 
L 379.387694 126.852471 
L 379.366581 126.3213 
L 379.26224 128.624235 
L 379.29179 123.681418 
L 379.255446 126.741031 
L 379.248546 129.689797 
L 379.175401 121.965067 
L 379.153052 125.527804 
L 379.057265 119.063164 
L 379.018705 121.036891 
L 378.961043 124.433201 
L 378.93745 120.827349 
L 378.904227 122.715418 
L 378.801813 120.397317 
L 378.840989 123.831767 
L 378.781368 120.957412 
L 378.716491 123.373473 
L 378.670229 129.621172 
L 378.608985 127.787235 
L 378.543925 121.541057 
L 378.474984 122.514691 
L 378.446305 125.494157 
L 378.371832 124.185647 
L 378.35646 122.540913 
L 378.293382 127.518942 
L 378.22776 124.8049 
L 378.194 127.244792 
L 378.106862 131.717586 
L 378.159613 125.904423 
L 378.070926 128.856385 
L 378.05273 128.338133 
L 378.034382 131.765168 
L 377.959504 127.129286 
L 377.862616 125.037195 
L 377.842806 124.26776 
L 377.762146 124.900874 
L 377.720972 124.041452 
L 377.700177 124.73732 
L 377.658173 127.502593 
L 377.615626 123.956079 
L 377.528927 123.830847 
L 377.506923 126.817971 
L 377.417618 126.104651 
L 377.394976 125.965341 
L 377.256539 124.211096 
L 377.185711 124.017314 
L 377.113849 126.737678 
L 377.089671 125.302445 
L 377.016485 126.001897 
L 376.991877 127.905129 
L 376.917433 125.734445 
L 376.842091 123.641019 
L 376.816784 124.718303 
L 376.791382 125.361569 
L 376.765886 123.401525 
L 376.688853 123.362492 
L 376.53243 119.936851 
L 376.373023 125.500523 
L 376.346182 124.218753 
L 376.319265 124.117078 
L 376.210889 128.510263 
L 376.183627 125.977967 
L 376.1563 125.807295 
L 376.018769 124.001237 
L 375.963368 126.764681 
L 375.907767 126.276177 
L 375.767982 124.226216 
L 375.683645 123.890853 
L 375.655464 124.948266 
L 375.627253 122.048673 
L 375.599012 123.787725 
L 375.542449 123.621524 
L 375.51413 121.896736 
L 375.485788 124.778141 
L 375.315364 131.426775 
L 375.059341 126.703148 
L 375.002518 126.164366 
L 374.88906 122.840008 
L 374.860744 123.919288 
L 374.804182 122.773311 
L 374.775938 122.753203 
L 374.747723 124.503385 
L 374.719536 122.567771 
L 374.69138 123.652982 
L 374.635165 121.098321 
L 374.579088 122.335958 
L 374.551104 122.440131 
L 374.523159 121.509229 
L 374.467391 126.275299 
L 374.384067 124.660789 
L 374.27365 123.926457 
L 374.191406 120.549211 
L 374.136867 121.82809 
L 374.055515 120.618058 
L 374.08257 122.08267 
L 374.001597 121.051124 
L 373.974736 120.278939 
L 373.947941 120.443929 
L 373.921215 123.254928 
L 373.841453 122.333793 
L 373.788639 122.312393 
L 373.736124 120.832315 
L 373.657931 121.144633 
L 373.6062 123.948616 
L 373.554799 122.07974 
L 373.453017 122.414875 
L 373.402651 120.085762 
L 373.377602 120.25058 
L 373.303001 121.666725 
L 373.180519 118.667785 
L 372.94273 121.564196 
L 372.919492 120.676317 
L 372.827542 118.091114 
L 372.759637 119.143342 
L 372.737203 120.953397 
L 372.670509 117.712086 
L 372.648481 120.361894 
L 372.604728 122.403791 
L 372.497138 117.701704 
L 372.475927 118.88941 
L 372.412907 117.144657 
L 372.392103 116.769138 
L 372.371399 117.976018 
L 372.269374 120.995431 
L 372.330291 117.837703 
L 372.189536 120.314624 
L 372.130692 119.349634 
L 372.091952 119.872473 
L 372.0536 120.318044 
L 371.904012 117.535936 
L 371.725268 122.485597 
L 371.656237 121.09302 
L 371.639195 118.730762 
L 371.605367 121.570723 
L 371.555261 119.228687 
L 371.441255 124.226758 
L 371.425296 122.87451 
L 371.331258 128.789086 
L 371.285351 127.025703 
L 371.240193 122.58193 
L 371.123416 122.836066 
L 371.053091 127.128641 
L 371.025526 124.128165 
L 370.971353 125.584188 
L 370.905397 121.731948 
L 370.779065 125.34908 
L 370.866735 121.60604 
L 370.766825 125.054195 
L 370.754654 123.529969 
L 370.694833 129.835291 
L 370.683074 125.154732 
L 370.671382 128.518549 
L 370.591407 122.627629 
L 370.580241 123.674907 
L 370.514525 120.223476 
L 370.461326 121.592234 
L 370.399155 124.758744 
L 370.388957 121.462355 
L 370.338612 123.712049 
L 370.308889 121.505162 
L 370.250392 124.995673 
L 370.174084 130.425003 
L 370.155278 126.248592 
L 370.025944 118.624953 
L 369.934501 122.300891 
L 370.007666 118.225546 
L 369.906928 120.786589 
L 369.888471 117.173529 
L 369.804267 121.284619 
L 369.785224 121.392949 
L 369.746689 123.3925 
L 369.677599 119.966226 
L 369.595571 125.290968 
L 369.553161 122.842429 
L 369.542402 122.752073 
L 369.531579 124.648079 
L 369.509735 119.615628 
L 369.442536 121.127633 
L 369.43108 121.186215 
L 369.407938 118.811724 
L 369.360695 122.097706 
L 369.336575 120.934133 
L 369.262144 127.204806 
L 369.171284 126.211467 
L 369.047973 123.497117 
L 369.033815 123.216778 
L 369.005223 128.415247 
L 368.932138 123.471444 
L 368.90226 123.142636 
L 368.887182 125.049558 
L 368.825937 119.643546 
L 368.81039 120.755686 
L 368.682488 116.524074 
L 368.666047 115.537843 
L 368.616093 117.457899 
L 368.599227 116.896655 
L 368.513248 119.050049 
L 368.478072 118.46045 
L 368.44244 118.763183 
L 368.276398 124.627406 
L 368.160557 120.197821 
L 368.140855 121.287333 
L 368.081074 122.833683 
L 368.060923 122.691998 
L 367.958495 119.565306 
L 367.937677 122.477769 
L 367.8533 119.276076 
L 367.831932 119.348011 
L 367.810454 118.838432 
L 367.788866 119.614551 
L 367.657049 120.876629 
L 367.6347 120.898972 
L 367.612243 122.768299 
L 367.567008 118.178196 
L 367.54423 116.888481 
L 367.498353 119.73081 
L 367.310611 124.187427 
L 367.452049 118.790139 
L 367.286676 123.017178 
L 367.140958 117.302838 
L 366.915741 126.03701 
L 366.890247 125.382156 
L 366.813234 122.012923 
L 366.683187 122.859441 
L 366.656934 123.850759 
L 366.630603 122.280312 
L 366.577711 123.049941 
L 366.551153 122.833182 
L 366.497818 125.175233 
L 366.444204 123.326265 
L 366.363281 119.213559 
L 366.309008 121.183563 
L 366.281776 121.134806 
L 366.254484 119.973174 
L 366.22713 121.047521 
L 366.199717 122.927195 
L 366.117132 122.332368 
L 366.089493 119.254077 
L 366.006257 119.301988 
L 365.838439 119.34617 
L 365.810307 120.433576 
L 365.78213 117.766992 
L 365.725647 118.022628 
L 365.612189 120.064088 
L 365.49812 117.171595 
L 365.354763 121.587311 
L 365.326 121.469569 
L 365.23955 120.028081 
L 365.152889 124.716298 
L 365.095018 122.532499 
L 365.066059 123.515071 
L 365.037086 123.195298 
L 364.92108 119.627451 
L 364.892057 119.575514 
L 364.863027 122.579067 
L 364.804954 117.694376 
L 364.775912 120.542414 
L 364.746869 119.389048 
L 364.717824 120.464217 
L 364.601669 123.843212 
L 364.572642 123.471055 
L 364.514615 119.877243 
L 364.456631 121.37615 
L 364.427659 122.388968 
L 364.369761 121.955542 
L 364.283051 118.095847 
L 364.196527 118.514364 
L 364.167731 118.630348 
L 364.138958 117.717615 
L 364.081487 117.88908 
L 363.909735 122.622865 
L 363.767508 120.308257 
L 363.710885 120.015161 
L 363.682636 123.097591 
L 363.626269 119.523366 
L 363.598153 120.583693 
L 363.514087 117.7202 
L 363.458287 117.856293 
L 363.430461 120.756371 
L 363.347297 120.471593 
L 363.292125 119.184549 
L 363.237177 120.189365 
L 363.20979 120.132088 
L 363.182462 118.957855 
L 363.155193 120.711907 
L 363.073759 123.062292 
L 363.046743 121.409731 
L 363.019794 121.121526 
L 362.992912 122.126943 
L 362.939354 121.648143 
L 362.859548 118.442506 
L 362.83309 121.41063 
L 362.728004 120.763873 
L 362.624149 119.168957 
L 362.547094 118.938844 
L 362.496132 120.63066 
L 362.395215 119.839497 
L 362.3702 122.950734 
L 362.345272 119.386682 
L 362.295682 120.162972 
L 362.246449 117.350346 
L 362.197575 119.002207 
L 362.173274 120.064281 
L 362.100918 118.714424 
L 362.076983 119.783908 
L 361.958703 116.941856 
L 361.935326 117.033818 
L 361.865755 116.689208 
L 361.842749 118.520801 
L 361.729103 115.089758 
L 361.401751 129.284456 
L 361.380678 128.070918 
L 361.215725 115.726363 
L 361.076648 116.848516 
L 361.057172 118.688568 
L 360.980228 117.636683 
L 360.923512 114.974981 
L 360.886159 117.813094 
L 360.812518 115.86782 
L 360.758188 115.722178 
L 360.704597 116.972606 
L 360.530986 123.138149 
L 360.463628 118.760558 
L 360.430384 122.31724 
L 360.413871 123.25407 
L 360.381057 120.459714 
L 360.348527 122.001747 
L 360.221133 117.580736 
L 360.189939 117.554983 
L 360.128283 120.496914 
L 360.113016 117.353467 
L 360.082652 120.146018 
L 359.992849 115.61463 
L 359.96331 116.892615 
L 359.89023 122.490433 
L 359.818162 121.442411 
L 359.747033 118.108348 
L 359.789603 122.007925 
L 359.648838 118.854206 
L 359.524469 124.704863 
L 359.593338 118.335087 
L 359.510755 121.703142 
L 359.333868 116.410509 
L 359.469724 122.802819 
L 359.266203 117.827085 
L 359.171384 122.135516 
L 359.225598 117.647359 
L 359.130638 121.083719 
L 359.089794 124.710962 
L 359.02146 118.163663 
L 359.007747 120.041929 
L 358.980266 115.339652 
L 358.952701 116.609707 
L 358.938882 114.245831 
L 358.869351 119.53431 
L 358.855346 116.515243 
L 358.813111 119.353598 
L 358.75624 116.115593 
L 358.727544 118.923219 
L 358.654958 114.889553 
L 358.610763 116.342299 
L 358.566032 114.213377 
L 358.520722 116.087337 
L 358.428214 117.455983 
L 358.412536 116.428375 
L 358.380945 113.618479 
L 358.34903 116.466133 
L 358.332947 115.571537 
L 358.184231 120.16043 
L 358.133 118.351556 
L 358.098372 119.790372 
L 357.974159 124.309596 
L 357.882578 118.712313 
L 357.826479 119.765179 
L 357.769512 117.12084 
L 357.788598 120.460822 
L 357.731046 118.144027 
L 357.672601 114.04266 
L 357.593236 114.222738 
L 357.552916 113.816786 
L 357.491612 115.819903 
L 357.40831 120.414458 
L 357.365983 118.122065 
L 357.34465 118.065838 
L 357.192112 114.748901 
L 357.169857 114.968497 
L 357.147483 113.684837 
L 357.056784 113.704734 
L 356.98747 115.255244 
L 356.91703 117.133012 
L 356.893299 114.501411 
L 356.845457 116.378719 
L 356.772739 116.007295 
L 356.748244 113.605331 
L 356.673983 116.507077 
L 356.648971 115.522792 
L 356.598557 116.677774 
L 356.547625 115.70386 
L 356.444202 118.730292 
L 356.418023 116.758543 
L 356.365277 118.486687 
L 356.338712 116.555204 
L 356.312018 115.54705 
L 356.258246 116.68514 
L 356.231168 116.71958 
L 356.203962 118.584565 
L 356.149171 116.508564 
L 356.093873 113.580408 
L 356.009969 114.346154 
L 355.89631 118.162587 
L 355.78063 117.773369 
L 355.722044 114.982813 
L 355.692567 116.721224 
L 355.662967 117.78094 
L 355.633246 117.698038 
L 355.543357 114.412668 
L 355.482829 114.79255 
L 355.452386 113.981096 
L 355.421822 115.111822 
L 355.39114 114.255411 
L 355.360338 117.094337 
L 355.298381 112.976589 
L 355.267226 115.721188 
L 355.141435 112.388622 
L 355.109696 112.64569 
L 355.07784 114.361869 
L 354.981577 114.330729 
L 354.851608 110.463975 
L 354.719785 113.826258 
L 354.586129 119.11365 
L 354.518639 116.735816 
L 354.484732 116.70966 
L 354.382381 115.537719 
L 354.348057 116.616233 
L 354.244482 116.555275 
L 354.209759 113.839263 
L 354.140023 114.064451 
L 354.034709 118.564463 
L 353.964044 118.154618 
L 353.89303 116.627604 
L 353.821681 119.375944 
L 353.785885 119.070736 
L 353.641935 116.903442 
L 353.569524 116.572648 
L 353.533216 117.612275 
L 353.496841 116.297472 
L 353.423898 116.067139 
L 353.387333 114.291511 
L 353.314022 114.396861 
L 353.166717 118.778435 
L 353.018598 116.638331 
L 352.981454 116.469194 
L 352.832474 111.747495 
L 352.795132 111.989637 
L 352.645398 115.388848 
L 352.607878 112.8041 
L 352.570325 112.958755 
L 352.419816 117.630701 
L 352.382122 116.250531 
L 352.306666 117.137256 
L 352.268907 117.000776 
L 352.231129 114.02193 
L 352.155525 115.161554 
L 352.117701 115.198636 
L 352.004151 112.365632 
L 351.890503 113.073285 
L 351.852602 110.912078 
L 351.776776 110.943668 
L 351.587084 113.011863 
L 351.700919 110.749129 
L 351.549129 112.563614 
L 351.473207 110.659879 
L 351.435242 111.833052 
L 351.321334 112.60909 
L 351.283363 111.886373 
L 351.245393 112.076077 
L 351.093536 116.926238 
L 351.055585 116.768821 
L 350.865988 113.485305 
L 350.828111 113.533159 
L 350.79025 114.630729 
L 350.752406 113.031094 
L 350.638989 111.167124 
L 350.601223 111.39442 
L 350.525755 112.747471 
L 350.488054 111.971416 
L 350.450375 112.132543 
L 350.375091 111.082617 
L 350.26235 114.28262 
L 350.224822 111.754518 
L 350.14985 113.058493 
L 350.112408 112.224763 
L 350.074995 113.952174 
L 350.000264 113.460069 
L 349.925664 113.680921 
L 349.888416 111.255122 
L 349.739782 114.189184 
L 349.702718 111.641564 
L 349.62871 113.531917 
L 349.591767 113.538277 
L 349.444439 117.700386 
L 349.297912 120.210104 
L 349.224991 117.717696 
L 349.188624 118.670326 
L 349.152321 119.09173 
L 349.116085 118.512869 
L 349.079918 121.981765 
L 349.043822 118.739034 
L 348.935978 116.31331 
L 348.900184 119.543958 
L 348.828837 117.198369 
L 348.793287 114.896577 
L 348.757822 117.991401 
L 348.722443 117.643412 
L 348.651949 113.963619 
L 348.616837 115.716579 
L 348.581816 116.729005 
L 348.546887 115.276146 
L 348.512052 114.421896 
L 348.477311 116.292118 
L 348.339314 115.647389 
L 348.305061 112.660707 
L 348.202904 112.773466 
L 348.135306 112.828679 
L 348.068116 115.78506 
L 348.00134 113.837111 
L 347.968109 113.863104 
L 347.836233 111.290413 
L 347.869044 113.922779 
L 347.803527 111.432652 
L 347.770927 111.56255 
L 347.738433 112.68501 
L 347.67376 111.325537 
L 347.641581 111.54599 
L 347.545672 115.117785 
L 347.482262 114.920219 
L 347.450717 115.53016 
L 347.41928 114.59038 
L 347.29461 111.778031 
L 347.263713 112.891215 
L 347.20224 113.053003 
L 347.171665 114.908199 
L 347.110838 114.725155 
L 346.990483 113.312635 
L 346.87187 116.412544 
L 346.755024 112.07055 
L 346.726089 113.171727 
L 346.697264 112.160273 
L 346.639942 113.295281 
L 346.611445 115.159165 
L 346.583057 113.203877 
L 346.554778 113.242776 
L 346.359796 109.459841 
L 346.16977 113.481075 
L 346.089774 110.948765 
L 346.010611 111.28337 
L 345.984404 111.37563 
L 345.854699 117.568413 
L 345.752521 113.484644 
L 345.727193 114.537546 
L 345.651724 113.098305 
L 345.626737 116.133272 
L 345.577014 112.595482 
L 345.552277 113.672371 
L 345.503047 110.888252 
L 345.429794 111.191419 
L 345.357221 112.459652 
L 345.285289 108.992013 
L 345.237667 109.478146 
L 345.143151 112.717532 
L 345.096234 111.277877 
L 345.072855 111.434056 
L 345.049527 113.276907 
L 344.956705 113.226748 
L 344.933615 113.215161 
L 344.864608 112.087055 
L 344.727677 116.121712 
L 344.704987 113.850645 
L 344.659713 117.669157 
L 344.637129 115.818449 
L 344.614579 116.785368 
L 344.592062 113.19103 
L 344.569579 111.374658 
L 344.524704 114.340701 
L 344.50231 113.043047 
L 344.346308 118.734771 
L 344.213557 114.686493 
L 344.191512 115.686459 
L 344.147484 113.925171 
L 344.1255 114.948673 
L 344.037734 110.052801 
L 343.972042 111.439383 
L 343.950161 113.289508 
L 343.862678 113.115514 
L 343.840811 111.968144 
L 343.797072 114.926706 
L 343.753319 114.528208 
L 343.57799 108.252209 
L 343.556012 108.515707 
L 343.534013 108.759053 
L 343.511991 107.60793 
L 343.467867 110.463147 
L 343.445761 109.66432 
L 343.423623 109.815829 
L 343.40145 110.947136 
L 343.379242 109.529097 
L 343.334706 109.999249 
L 343.289998 108.901205 
L 343.222572 109.581893 
L 343.15466 109.032374 
L 343.086209 112.051348 
L 343.063264 111.018019 
L 343.017174 112.140964 
L 342.994025 111.091335 
L 342.970806 112.185091 
L 342.924149 109.568672 
L 342.85359 109.410119 
L 342.806145 109.869614 
L 342.782295 109.116565 
L 342.734329 109.45343 
L 342.685998 110.730728 
L 342.66169 109.306147 
L 342.637285 109.547724 
L 342.61278 108.827713 
L 342.588175 109.975388 
L 342.563466 109.198622 
L 342.463574 113.579246 
L 342.412982 113.339479 
L 342.36195 110.322205 
L 342.310471 111.972589 
L 342.284561 113.033941 
L 342.258537 111.814037 
L 342.206141 112.811233 
L 342.153277 109.930423 
L 342.046104 110.247285 
L 342.019002 110.308582 
L 341.936935 107.854022 
L 341.909319 108.102186 
L 341.797507 109.877139 
L 341.71219 108.813105 
L 341.740771 110.208804 
L 341.683466 109.064989 
L 341.654596 109.862171 
L 341.62558 108.435476 
L 341.596415 107.229732 
L 341.537634 108.682398 
L 341.47824 108.24365 
L 341.41822 109.594337 
L 341.357564 107.657527 
L 341.326994 110.374695 
L 341.29626 109.484738 
L 341.265363 110.602407 
L 341.234301 112.451383 
L 341.171683 109.710732 
L 341.044443 112.823109 
L 340.979814 109.952384 
L 340.947246 112.854941 
L 340.914509 111.588182 
L 340.881603 111.493153 
L 340.815283 111.325378 
L 340.714539 113.85227 
L 340.577863 109.99459 
L 340.47358 106.808398 
L 340.403198 107.355591 
L 340.296308 105.563164 
L 340.151279 108.881882 
L 340.077676 106.88811 
L 340.040599 107.155921 
L 340.003338 108.317141 
L 339.965891 106.262955 
L 339.928258 107.44347 
L 339.73728 109.950982 
L 339.69852 109.039828 
L 339.659573 111.902522 
L 339.581117 110.650776 
L 339.54161 108.965579 
L 339.462038 109.137514 
L 339.421973 108.641684 
L 339.381723 109.418296 
L 339.259864 110.602836 
L 339.218876 109.577434 
L 339.177705 109.60597 
L 339.011204 114.479095 
L 338.926881 113.826879 
L 338.713041 110.010093 
L 338.538924 111.680095 
L 338.450876 111.321935 
L 338.40661 109.44393 
L 338.362183 109.458094 
L 338.317597 110.544363 
L 338.182891 108.172278 
L 338.092303 108.389956 
L 338.001095 109.59231 
L 337.909274 109.747729 
L 337.863135 108.20042 
L 337.816845 108.389789 
L 337.630178 104.345635 
L 337.393434 106.885462 
L 337.34563 108.690358 
L 337.297675 106.373015 
L 337.15291 109.56892 
L 337.104358 108.581631 
L 337.006817 108.670612 
L 336.859431 110.475055 
L 336.810023 110.344558 
L 336.760478 111.388495 
L 336.710799 110.114315 
L 336.409963 105.633883 
L 336.35937 105.971886 
L 336.30865 106.285022 
L 336.257801 108.085569 
L 336.206826 107.255169 
L 336.053149 105.11392 
L 336.001674 105.402351 
L 335.79454 108.879361 
L 335.480261 104.632935 
L 335.321557 105.487696 
L 335.268428 106.643364 
L 335.215186 105.951518 
L 335.108369 106.342019 
L 335.001116 109.300701 
L 334.947329 108.242285 
L 334.893439 108.251412 
L 334.622481 104.431832 
L 334.567995 104.731823 
L 334.403966 106.417509 
L 334.349102 105.715208 
L 333.962582 114.251481 
L 333.907042 112.323593 
L 333.851431 113.268761 
L 333.795752 112.854812 
L 333.684203 110.856573 
L 333.516449 113.285534 
L 333.460429 112.856613 
L 333.404364 112.472275 
L 333.348257 110.826789 
L 333.29211 111.815575 
L 333.235927 111.534349 
L 333.123462 108.196768 
L 333.067185 109.26261 
L 332.954551 108.069216 
L 332.8982 109.136928 
L 332.841828 106.384563 
L 332.785437 106.486708 
L 332.616166 107.76458 
L 332.446782 105.102739 
L 332.3903 103.976601 
L 332.333809 104.328733 
L 332.2208 105.48905 
L 332.164286 108.274384 
L 332.107766 107.218302 
L 332.051245 108.301124 
L 331.994722 107.23551 
L 331.712174 112.51691 
L 331.655697 111.978942 
L 331.599239 111.500203 
L 331.542802 109.110487 
L 331.48639 110.133109 
L 331.317323 109.645 
L 330.980201 114.08072 
L 330.924181 113.456725 
L 330.868219 112.904349 
L 330.812318 114.869432 
L 330.700712 112.018302 
L 330.533849 116.682229 
L 330.478389 114.016092 
L 330.423016 115.854653 
L 330.367735 116.608453 
L 330.257464 113.173601 
L 330.20248 114.999384 
L 330.147604 113.171479 
L 330.092838 112.620675 
L 329.929227 109.973931 
L 329.874928 110.951572 
L 329.820753 110.63525 
L 329.766704 110.349714 
L 329.60533 105.210625 
L 329.551801 105.315988 
L 329.498405 106.426116 
L 329.445143 105.497041 
L 329.392014 105.574234 
L 329.286166 109.051815 
L 329.233451 108.797331 
L 328.868543 117.247479 
L 328.817036 114.895329 
L 328.663525 113.415146 
L 328.612701 114.249583 
L 328.562055 113.502803 
L 328.41121 108.665918 
L 328.361297 108.42 
L 328.311571 107.522768 
L 328.212685 111.299993 
L 328.163528 110.885091 
L 328.114564 109.195347 
L 328.065795 110.974987 
L 328.017224 111.896798 
L 327.92068 109.613813 
L 327.872711 110.581844 
L 327.777386 108.634228 
L 327.682888 111.346847 
L 327.496424 108.02459 
L 327.358812 103.543788 
L 327.268131 103.883796 
L 327.133688 106.692479 
L 327.001132 104.027594 
L 326.870444 105.391661 
L 326.827292 105.495838 
L 326.530961 110.879614 
L 326.489452 110.323395 
L 326.366172 107.37306 
L 326.204712 109.585686 
L 326.085803 106.012907 
L 325.968753 110.689985 
L 325.930149 108.900507 
L 325.815569 103.287751 
L 325.740192 103.588763 
L 325.591786 106.80275 
L 325.555164 106.748298 
L 325.482483 106.650504 
L 325.410545 104.84308 
L 325.37485 105.567335 
L 325.304002 107.269723 
L 325.233865 105.256717 
L 325.19906 106.334014 
L 325.164428 108.207304 
L 325.129969 106.128884 
L 325.061557 105.021444 
L 325.027602 107.982772 
L 324.960186 107.632755 
L 324.893418 103.051421 
L 324.86027 103.203064 
L 324.696806 108.265461 
L 324.632455 107.630235 
L 324.600496 109.411434 
L 324.537008 106.742994 
L 324.474084 108.145334 
L 324.349877 105.627292 
L 324.319155 106.686595 
L 324.258094 105.391554 
L 324.227749 106.456843 
L 324.107556 105.105985 
L 324.077792 105.060826 
L 323.930559 107.748425 
L 323.901413 107.551484 
L 323.872363 106.171756 
L 323.843406 109.278116 
L 323.785766 107.310576 
L 323.671545 111.125221 
L 323.643206 109.108195 
L 323.58678 110.235761 
L 323.558691 111.132991 
L 323.502757 110.045385 
L 323.33678 105.305207 
L 323.281999 105.137312 
L 323.17311 103.620442 
L 323.064933 104.874281 
L 322.984137 104.981715 
L 322.876673 101.355801 
L 322.849827 101.585659 
L 322.769268 106.27328 
L 322.715513 106.09244 
L 322.688612 103.221106 
L 322.580764 103.484642 
L 322.553723 104.587342 
L 322.526643 102.038418 
L 322.49952 102.205986 
L 322.47235 103.340668 
L 322.445128 101.953218 
L 322.390511 103.007981 
L 322.335636 103.170004 
L 322.197135 104.511773 
L 322.056405 103.033424 
L 321.99939 103.343302 
L 321.912997 103.714833 
L 321.854777 101.381225 
L 321.825469 104.144099 
L 321.736706 103.264348 
L 321.646621 106.09833 
L 321.616286 104.184677 
L 321.585792 104.238628 
L 321.430813 101.725262 
L 321.30357 100.047149 
L 321.173108 101.34044 
L 321.139955 100.187999 
L 321.106577 100.534604 
L 320.970743 102.852448 
L 320.866333 100.760839 
L 320.795468 101.179834 
L 320.6137 104.653628 
L 320.576533 104.633913 
L 320.53909 103.517297 
L 320.425088 110.345703 
L 320.386529 109.727205 
L 320.269168 105.273733 
L 320.229484 105.081942 
L 320.189515 103.166809 
L 320.108715 104.251039 
L 319.985337 103.157558 
L 319.85931 108.451919 
L 319.816711 107.903312 
L 319.773818 107.416023 
L 319.730631 108.362208 
L 319.554925 101.128714 
L 319.510252 102.258314 
L 319.465277 101.416726 
L 319.374409 101.654959 
L 319.328513 102.769342 
L 319.282307 101.850409 
L 319.235788 100.433793 
L 319.188956 103.188559 
L 319.094341 102.254365 
L 318.998453 102.336437 
L 318.950028 103.428686 
L 318.901282 102.399089 
L 318.852212 100.869948 
L 318.802817 101.019916 
L 318.601961 103.930155 
L 318.550924 102.810173 
L 318.499558 103.88421 
L 318.395835 106.291332 
L 318.34348 105.923362 
L 318.290797 106.900066 
L 318.237788 106.579243 
L 318.076802 101.567851 
L 318.022484 101.636965 
L 317.967837 100.180364 
L 317.91286 100.358105 
L 317.857551 100.520321 
L 317.745933 101.789822 
L 317.575989 99.893342 
L 317.518665 100.081809 
L 317.344648 101.534736 
L 317.226926 101.799055 
L 317.167551 100.906678 
L 317.107832 101.002183 
L 316.987362 101.164762 
L 316.926611 99.723528 
L 316.865515 100.859024 
L 316.804073 101.619515 
L 316.742286 100.092841 
L 316.680154 101.217426 
L 316.617675 101.36134 
L 316.55485 100.497535 
L 316.491679 101.610022 
L 316.428161 100.149706 
L 316.364297 100.368888 
L 316.235523 100.753078 
L 316.170614 99.950616 
L 316.105357 101.072645 
L 315.973798 98.876159 
L 315.907496 99.095994 
L 315.840844 99.297283 
L 315.773842 98.082218 
L 315.70649 98.355067 
L 315.638786 98.606168 
L 315.43357 101.507658 
L 315.295012 100.06584 
L 315.155059 100.435218 
L 314.942527 102.2679 
L 314.870995 101.19478 
L 314.79912 102.27036 
L 314.726906 101.189406 
L 314.654353 102.263508 
L 314.581464 102.257054 
L 314.508238 100.571549 
L 314.434678 100.702065 
L 314.286558 98.441056 
L 314.211998 98.645942 
L 314.137107 98.833052 
L 314.061884 99.961338 
L 313.986331 99.158505 
L 313.83424 101.943118 
L 313.757706 101.938119 
L 313.526173 99.250014 
L 313.448358 102.05625 
L 313.370227 99.34209 
L 313.291783 101.056188 
L 313.213027 101.015321 
L 313.133963 100.975511 
L 313.054592 102.037617 
L 312.894941 100.861435 
L 312.734095 100.789007 
L 312.65323 103.743767 
L 312.490632 99.951475 
L 312.408903 101.77424 
L 312.32689 101.737917 
L 312.244596 99.00512 
L 312.162024 99.106211 
L 311.745057 103.575482 
L 311.660866 102.127167 
L 311.576419 103.138656 
L 311.491719 101.750602 
L 311.40677 104.831582 
L 311.321575 104.461736 
L 311.150468 100.260952 
L 311.06456 102.095744 
L 310.978421 100.213445 
L 310.892052 100.266763 
L 310.805456 100.946706 
L 310.631597 99.205028 
L 310.544339 100.288396 
L 310.456866 99.270293 
L 310.281282 100.373108 
L 310.193178 99.329795 
L 310.10487 100.405335 
L 309.927651 98.764282 
L 309.838744 98.904573 
L 309.481188 96.447905 
L 309.391324 98.229403 
L 309.301272 97.432257 
L 309.211036 97.573445 
L 309.120617 97.700818 
L 309.030017 96.358777 
L 308.939237 97.497404 
L 308.848278 96.772527 
L 308.757143 97.89979 
L 308.665833 97.115755 
L 308.574351 98.819446 
L 308.482699 97.26522 
L 308.390879 97.396157 
L 308.298893 97.51397 
L 308.114431 95.851098 
L 308.021957 96.159288 
L 307.929321 94.247191 
L 307.743563 95.75399 
L 307.650443 96.05958 
L 307.557163 95.453597 
L 307.370131 97.255538 
L 307.182486 98.453201 
L 307.088439 98.538589 
L 306.994246 97.591214 
L 306.899909 98.68067 
L 306.805432 96.191338 
L 306.521174 99.134286 
L 306.33101 98.077982 
L 306.140349 100.990633 
L 306.044841 102.869722 
L 305.949223 102.50338 
L 305.853497 100.889456 
L 305.757671 101.871365 
L 305.565731 100.117576 
L 305.469628 103.239104 
L 305.373442 102.810824 
L 305.27718 103.235087 
L 305.084448 100.33368 
L 304.987987 101.324384 
L 304.794896 100.85325 
L 304.698277 101.383337 
L 304.601614 103.152429 
L 304.408183 100.204176 
L 304.311424 101.191288 
L 304.214641 99.699079 
L 304.117839 101.447873 
L 303.924198 98.94364 
L 303.730533 98.640342 
L 303.440057 101.21753 
L 303.149708 97.57416 
L 303.05297 98.626493 
L 302.762932 95.751214 
L 302.666319 96.848626 
L 302.569741 94.428711 
L 302.473201 94.616074 
L 302.376698 94.786415 
L 302.280234 95.904451 
L 302.18381 95.08049 
L 302.087427 96.18967 
L 301.991087 94.771575 
L 301.798536 96.651285 
L 301.606171 94.261571 
L 301.51006 95.385797 
L 301.413999 94.593732 
L 301.222029 96.29556 
L 300.93449 96.277454 
L 300.743102 101.078094 
L 300.551989 97.380663 
L 300.361174 97.144347 
L 300.265885 98.181295 
L 300.170678 98.076847 
L 300.075555 96.221664 
L 299.980518 96.283217 
L 299.885567 95.29985 
L 299.69593 96.422819 
L 299.601247 96.456284 
L 299.506655 95.430238 
L 299.412157 95.449457 
L 299.317753 95.464191 
L 299.223445 94.889674 
L 299.129232 96.701685 
L 298.941101 95.606083 
L 298.847185 95.592977 
L 298.75337 96.658972 
L 298.659658 93.983936 
L 298.566048 95.090308 
L 298.472541 94.20136 
L 298.379137 97.023302 
L 298.285838 96.964095 
L 298.099562 95.745186 
L 298.006587 95.693763 
L 297.913722 96.749084 
L 297.820969 93.98831 
L 297.728327 96.811926 
L 297.635799 96.751264 
L 297.543385 98.607002 
L 297.451089 98.370465 
L 297.266857 97.955757 
L 297.083115 94.86066 
L 296.99143 94.855929 
L 296.899869 97.775237 
L 296.717128 94.695878 
L 296.534894 94.690229 
L 296.443967 93.114141 
L 296.353168 95.908243 
L 296.262495 94.797678 
L 296.17195 95.861518 
L 296.081531 93.161763 
L 295.901072 94.371975 
L 295.81103 94.465845 
L 295.721111 93.530823 
L 295.541646 98.241528 
L 295.273397 94.674365 
L 295.184236 95.732411 
L 295.095203 95.688905 
L 294.917515 92.483986 
L 294.828856 92.698909 
L 294.740317 91.95019 
L 294.651896 92.117662 
L 294.387321 95.201571 
L 294.299354 92.508773 
L 294.211497 92.619832 
L 294.123747 92.719401 
L 294.036103 91.326817 
L 293.861124 95.884115 
L 293.773788 95.785011 
L 293.686555 94.558951 
L 293.512398 99.459764 
L 293.425478 97.610211 
L 293.338667 98.558059 
L 293.165373 97.828908 
L 292.992527 94.169359 
L 292.906271 95.219919 
L 292.820126 95.150984 
L 292.734091 95.085559 
L 292.648164 93.2977 
L 292.562343 93.386656 
L 292.391011 93.535977 
L 292.305494 91.994209 
L 292.220073 92.177181 
L 292.134744 92.343696 
L 291.964349 91.102789 
L 291.794277 91.564904 
L 291.539705 89.856946 
L 291.370297 91.659563 
L 291.285674 91.20132 
L 291.11657 91.614914 
L 291.03208 90.838293 
L 290.863209 92.10753 
L 290.778819 91.255429 
L 290.694456 91.368253 
L 290.610116 92.472745 
L 290.525796 91.560099 
L 290.441493 91.640782 
L 290.188653 91.830795 
L 290.104387 92.918796 
L 290.020123 91.920603 
L 289.935859 94.803477 
L 289.851592 92.887679 
L 289.767322 93.56502 
L 289.683046 93.446256 
L 289.598762 91.668077 
L 289.345834 94.636473 
L 289.17713 91.560443 
L 289.008338 94.317667 
L 288.923905 94.205582 
L 288.839444 92.959712 
L 288.58589 96.189771 
L 288.501315 95.763035 
L 288.332082 97.149353 
L 287.908553 94.938915 
L 287.823774 98.173755 
L 287.654149 95.730693 
L 287.569303 96.673659 
L 287.399545 94.611089 
L 287.314633 95.588554 
L 287.229697 95.293689 
L 287.144736 95.025791 
L 287.05975 93.551831 
L 286.974737 94.559024 
L 286.80462 90.796792 
L 286.549163 92.554129 
L 286.463923 91.42851 
L 286.378634 92.491508 
L 286.293293 91.366193 
L 286.207898 94.313405 
L 286.036933 89.556965 
L 285.951355 89.671069 
L 285.779987 92.441083 
L 285.608316 91.248602 
L 285.436323 96.099691 
L 285.263998 92.262187 
L 285.177706 92.11548 
L 285.004846 90.314763 
L 284.918271 90.335188 
L 284.831594 91.412596 
L 284.74481 89.777509 
L 284.657914 89.924337 
L 284.570901 90.057059 
L 284.396497 87.421487 
L 284.309092 86.865365 
L 284.22154 88.022005 
L 284.133836 87.387428 
L 283.957944 90.183882 
L 283.692829 90.428547 
L 283.604097 87.949148 
L 283.515176 89.074541 
L 283.426057 86.859557 
L 283.157459 89.904033 
L 283.067493 89.994616 
L 282.977303 89.054371 
L 282.886885 89.119431 
L 282.339389 95.040647 
L 282.247298 91.350708 
L 282.062387 96.346119 
L 281.969569 95.761104 
L 281.783207 93.407183 
L 281.689665 94.355681 
L 281.501852 93.638162 
L 281.313059 88.503287 
L 281.218285 89.592622 
L 281.123253 88.616347 
L 281.02796 89.700802 
L 280.932399 87.173835 
L 280.740453 88.444637 
L 280.547369 88.705186 
L 280.450386 86.350515 
L 280.353101 86.556754 
L 280.059384 92.977829 
L 279.861999 89.531857 
L 279.762826 90.577863 
L 279.663329 90.503931 
L 279.563505 90.433396 
L 279.463351 89.251767 
L 279.262041 92.154434 
L 279.160881 88.920965 
L 278.957537 91.825048 
L 278.752821 94.115343 
L 278.649951 93.523221 
L 278.443189 90.702994 
L 278.339294 91.697601 
L 278.130467 88.459727 
L 278.025528 89.516607 
L 277.920234 86.79584 
L 277.814581 89.602884 
L 277.708565 89.552512 
L 277.495433 89.454745 
L 277.38831 86.70548 
L 277.28081 86.795596 
L 277.064658 86.944797 
L 276.955996 86.440114 
L 276.846937 86.624878 
L 276.737474 88.42593 
L 276.627604 87.38683 
L 276.406629 88.464863 
L 276.183977 85.974382 
L 275.959609 87.185347 
L 275.846769 86.277907 
L 275.733485 87.36841 
L 275.619753 86.425218 
L 275.505569 86.484751 
L 275.390928 87.566356 
L 275.275827 86.57906 
L 275.160262 86.615093 
L 275.044228 87.68961 
L 274.927723 86.667736 
L 274.337996 86.707867 
L 274.218588 87.770996 
L 274.098684 86.695401 
L 273.857377 86.670316 
L 273.735969 87.729172 
L 273.614052 86.042128 
L 273.491624 86.759604 
L 273.245225 89.475663 
L 272.99676 86.355123 
L 272.620141 86.297 
L 272.366409 83.352243 
L 272.238731 83.558928 
L 272.110502 82.371426 
L 271.981717 84.997664 
L 271.722452 85.289332 
L 271.591964 84.429094 
L 271.460899 85.522173 
L 271.329253 85.619033 
L 271.197022 84.695993 
L 271.064202 85.778181 
L 270.930788 83.324501 
L 270.662163 86.07864 
L 270.391117 83.541251 
L 269.979956 87.942366 
L 269.841672 84.921721 
L 269.702771 86.62475 
L 269.423113 86.331515 
L 269.140971 84.549168 
L 268.998964 86.249733 
L 268.856331 86.109236 
L 268.713072 87.12663 
L 268.569187 86.996468 
L 268.424675 87.568699 
L 268.279538 87.279486 
L 268.133778 88.254406 
L 267.840384 84.938935 
L 267.692748 87.87139 
L 267.544488 86.422608 
L 267.246101 89.084299 
L 267.095981 89.505601 
L 266.945248 90.388944 
L 266.793907 92.322305 
L 266.641965 91.550821 
L 266.336301 95.540595 
L 266.182595 91.52157 
L 266.028315 91.75112 
L 265.87347 93.563629 
L 265.248574 89.377541 
L 265.090997 91.298458 
L 264.932889 91.514769 
L 264.61512 94.014572 
L 264.455474 90.244594 
L 264.295327 89.623378 
L 264.134683 87.66042 
L 263.973548 87.196135 
L 263.811924 90.479486 
L 263.649817 86.218829 
L 263.487228 87.16945 
L 263.32416 86.848567 
L 263.160615 85.310105 
L 262.996593 86.283664 
L 262.832096 84.818077 
L 262.667125 84.598941 
L 262.50168 85.58849 
L 262.002501 82.311586 
L 261.835153 83.359034 
L 261.330205 80.789465 
L 260.650002 81.075623 
L 260.478682 80.558114 
L 260.306846 82.332385 
L 260.134489 81.313248 
L 259.961608 81.322911 
L 259.7882 79.793126 
L 259.614257 80.882705 
L 259.439776 80.024838 
L 259.264752 82.787562 
L 259.089183 82.736993 
L 258.736392 78.633762 
L 258.559157 79.740933 
L 258.202972 80.07587 
L 258.02401 79.256372 
L 257.664318 79.47114 
L 257.483578 82.237466 
L 257.302238 81.087404 
L 257.120297 82.117915 
L 256.937752 80.966182 
L 256.7546 81.996064 
L 256.57084 80.842867 
L 256.386468 80.780485 
L 256.201482 80.117528 
L 256.015877 81.904488 
L 255.829651 80.725785 
L 255.642802 80.649741 
L 255.455328 81.674216 
L 255.267227 81.598893 
L 255.078498 82.193033 
L 254.88914 83.165908 
L 254.699156 81.732597 
L 253.932939 80.977158 
L 253.739813 81.973065 
L 253.546056 81.813376 
L 253.351668 80.515303 
L 253.156646 81.518021 
L 252.960991 83.346618 
L 252.764705 83.025216 
L 252.567787 81.491143 
L 252.37024 82.455446 
L 252.172062 80.990785 
L 251.973255 80.766191 
L 251.773816 78.834712 
L 251.573739 78.204367 
L 251.373019 78.301158 
L 251.171646 75.933479 
L 250.969613 76.109739 
L 250.563534 78.818208 
L 250.359476 77.22764 
L 250.154731 78.994143 
L 249.949292 76.389829 
L 249.74315 75.960342 
L 249.536293 75.271977 
L 249.32871 74.097692 
L 249.120388 74.357875 
L 248.911315 75.473882 
L 248.701479 75.702959 
L 248.279475 74.660563 
L 248.067281 74.063231 
L 247.854274 72.986046 
L 247.64044 74.120301 
L 247.425763 73.558391 
L 247.210232 74.676586 
L 246.993832 74.03169 
L 246.776553 75.135367 
L 246.558383 74.416188 
L 246.119327 74.721859 
L 245.898423 75.801005 
L 245.676588 74.958167 
L 245.453813 76.027137 
L 245.230089 74.59064 
L 245.005406 76.337161 
L 244.779756 75.381072 
L 244.553132 76.430183 
L 244.096934 76.48206 
L 243.867347 75.461332 
L 243.405164 75.452506 
L 243.172557 78.281286 
L 242.938937 78.104459 
L 242.7043 76.787598 
L 242.468644 77.775314 
L 242.231966 76.482555 
L 241.994263 76.338896 
L 241.755531 77.331238 
L 241.515767 76.066421 
L 241.27497 79.002355 
L 241.033139 78.687739 
L 240.790274 77.17049 
L 240.546375 76.911451 
L 240.301443 78.604281 
L 240.055479 79.5051 
L 239.808486 79.092394 
L 239.560465 77.434735 
L 239.061338 76.798177 
L 238.810233 77.741553 
L 238.558099 76.247352 
L 238.304936 79.29292 
L 237.539298 78.029827 
L 237.28204 79.878914 
L 237.023765 77.922019 
L 236.764476 77.442762 
L 236.504175 78.335633 
L 236.242867 78.711996 
L 235.980554 78.11217 
L 235.717246 81.448794 
L 235.452947 80.626982 
L 235.187665 78.403218 
L 234.921405 79.240337 
L 234.654173 79.518828 
L 234.38598 83.085587 
L 234.116837 85.0964 
L 233.846758 81.781289 
L 233.303853 85.414038 
L 233.03106 83.715213 
L 232.757398 85.557401 
L 232.482883 86.017526 
L 232.207532 84.351817 
L 231.931357 81.051992 
L 231.654373 84.972808 
L 231.376593 83.431112 
L 231.098031 80.28233 
L 230.818697 80.9798 
L 230.538599 78.341965 
L 230.257746 77.537774 
L 229.976145 79.278314 
L 229.410732 77.485975 
L 229.126932 75.909512 
L 228.842403 75.45587 
L 228.271135 70.036775 
L 227.984377 71.685076 
L 227.696858 72.651786 
L 227.408569 71.327682 
L 227.119501 71.15908 
L 226.829646 72.131344 
L 226.538991 70.218103 
L 226.247521 70.214531 
L 225.955222 69.16784 
L 225.662078 70.182354 
L 225.368074 69.110923 
L 224.480754 68.978755 
L 224.183162 69.982954 
L 223.884635 68.864745 
L 223.585158 69.865696 
L 223.284714 67.175821 
L 222.983284 68.807525 
L 222.680854 68.720266 
L 222.377411 70.369955 
L 222.072943 69.466834 
L 221.767431 67.722628 
L 221.460856 69.462714 
L 221.153207 70.026034 
L 220.844469 69.109967 
L 220.534627 69.023308 
L 220.22366 66.27871 
L 219.598263 66.345717 
L 219.283792 69.088254 
L 218.968116 67.843779 
L 218.651219 68.819113 
L 218.333085 68.686938 
L 218.013693 65.84176 
L 217.693022 66.860266 
L 217.37105 67.481986 
L 217.047762 68.449415 
L 216.723136 66.566079 
L 216.397149 65.547279 
L 216.069779 65.531265 
L 215.741 66.53729 
L 215.410786 64.902674 
L 215.079112 66.624512 
L 214.745954 65.515179 
L 214.41129 65.450277 
L 214.075096 66.440454 
L 213.737351 65.305617 
L 213.398031 66.292215 
L 213.057113 65.143481 
L 212.714579 66.777501 
L 212.37041 66.530669 
L 212.024587 64.597274 
L 211.677087 64.524418 
L 211.327886 66.154639 
L 210.976968 67.089206 
L 210.624314 65.691811 
L 210.269906 66.631496 
L 209.913722 65.264924 
L 209.195927 61.828488 
L 208.834247 62.855167 
L 208.470665 61.946893 
L 208.105146 62.963115 
L 206.623022 63.011707 
L 206.247311 61.975231 
L 205.869467 63.588589 
L 205.489465 63.401902 
L 205.107283 66.291361 
L 204.722905 65.922845 
L 204.33631 64.349533 
L 203.947475 63.373013 
L 202.369149 62.83107 
L 201.968675 63.357242 
L 201.565793 63.055136 
L 201.160485 66.032464 
L 199.929837 64.654506 
L 199.51465 63.002537 
L 199.096944 62.645208 
L 198.676699 64.280847 
L 198.253901 65.107878 
L 197.400573 64.123783 
L 196.101044 69.648508 
L 195.662642 66.757523 
L 195.221633 70.396519 
L 194.778019 67.260512 
L 193.882979 65.259204 
L 193.431544 65.977231 
L 192.520796 64.422402 
L 192.061449 60.321355 
L 191.599417 59.954274 
L 191.134669 60.826447 
L 190.667174 59.275728 
L 190.196902 60.888636 
L 189.723829 61.711857 
L 188.769169 60.771118 
L 188.287522 59.088641 
L 187.802953 58.704187 
L 187.315421 57.670235 
L 186.824878 57.488356 
L 186.331266 54.606559 
L 185.834518 53.087738 
L 185.334558 53.146508 
L 184.831314 54.130494 
L 184.324718 55.79091 
L 183.814708 55.674277 
L 183.301219 53.913092 
L 182.784176 52.945873 
L 182.263499 51.483429 
L 181.739095 51.053608 
L 181.210868 51.224712 
L 180.678729 51.897236 
L 180.142601 54.504364 
L 179.60242 54.361684 
L 179.058124 56.044492 
L 178.509661 55.725053 
L 177.956976 54.249142 
L 177.400018 57.125856 
L 176.838743 55.356868 
L 175.703017 52.853658 
L 173.376999 51.892524 
L 172.783713 51.044725 
L 171.582418 50.854128 
L 170.97422 49.147794 
L 169.742194 49.139338 
L 169.118153 48.136553 
L 168.488618 48.078841 
L 167.853473 47.459447 
L 167.212596 46.579341 
L 165.254346 46.537357 
L 164.58932 47.454533 
L 163.917965 47.988959 
L 163.240189 50.704969 
L 162.555918 51.044143 
L 161.865077 49.773538 
L 161.167585 50.133299 
L 160.463369 49.615112 
L 159.752352 50.382882 
L 159.034452 48.651586 
L 157.577658 47.765883 
L 156.838568 45.605807 
L 156.092195 45.359114 
L 155.338406 44.512508 
L 154.577064 45.001497 
L 153.808031 44.128795 
L 152.246289 43.853981 
L 151.453283 44.311837 
L 150.651996 42.364932 
L 149.842256 41.625032 
L 149.023877 40.623612 
L 148.196674 41.489763 
L 147.360458 41.392322 
L 146.515041 40.299968 
L 145.660233 41.142995 
L 144.795845 40.992978 
L 143.921672 38.354896 
L 143.037506 40.792727 
L 142.143153 40.586155 
L 141.238417 39.336824 
L 140.323102 40.136414 
L 139.397021 40.525947 
L 138.459985 38.455852 
L 137.511802 41.026163 
L 136.552288 40.606905 
L 135.581259 39.049145 
L 134.598518 39.778763 
L 133.603852 36.587335 
L 132.597019 37.357114 
L 131.577773 36.052835 
L 130.545845 35.194799 
L 129.500962 35.614999 
L 128.442882 36.997592 
L 126.286226 36.042417 
L 125.187179 36.72468 
L 122.946398 35.780935 
L 121.804138 34.174427 
L 120.646954 36.804778 
L 119.474601 34.898625 
L 118.28685 36.26929 
L 117.083479 36.818862 
L 115.864229 33.95639 
L 110.822201 31.743718 
L 109.518743 30.051085 
L 108.197376 29.515411 
L 106.857711 30.120244 
L 104.122023 32.999019 
L 102.725349 30.673505 
L 99.872654 28.969409 
L 98.415882 28.162204 
L 96.938316 30.890252 
L 95.439587 29.86535 
L 93.919296 27.515606 
L 92.376981 24.687918 
L 90.812102 25.194187 
L 89.224124 26.550858 
L 84.316248 23.975232 
L 82.630362 21.915588 
L 80.918448 21.12554 
L 79.179805 21.558462 
L 77.413695 19.572534 
L 75.619338 19.996383 
L 73.795909 18.041567 
L 73.795909 18.041567 
" clip-path="url(#p829de4d68f)" style="fill: none; stroke: #1f77b4; stroke-width: 1.5; stroke-linecap: square"/>
   </g>
   <g id="line2d_36">
    <path d="M 387.514091 127.685791 
L 73.795909 16.664162 
L 73.795909 16.664162 
" clip-path="url(#p829de4d68f)" style="fill: none; stroke: #ff7f0e; stroke-width: 1.5; stroke-linecap: square"/>
   </g>
   <g id="patch_3">
    <path d="M 58.11 139.811562 
L 58.11 10.8 
" style="fill: none; stroke: #000000; stroke-width: 0.8; stroke-linejoin: miter; stroke-linecap: square"/>
   </g>
   <g id="patch_4">
    <path d="M 403.2 139.811562 
L 403.2 10.8 
" style="fill: none; stroke: #000000; stroke-width: 0.8; stroke-linejoin: miter; stroke-linecap: square"/>
   </g>
   <g id="patch_5">
    <path d="M 58.11 139.811563 
L 403.2 139.811563 
" style="fill: none; stroke: #000000; stroke-width: 0.8; stroke-linejoin: miter; stroke-linecap: square"/>
   </g>
   <g id="patch_6">
    <path d="M 58.11 10.8 
L 403.2 10.8 
" style="fill: none; stroke: #000000; stroke-width: 0.8; stroke-linejoin: miter; stroke-linecap: square"/>
   </g>
   <g id="legend_1">
    <g id="patch_7">
     <path d="M 314.87625 44.420625 
L 396.9 44.420625 
Q 398.7 44.420625 398.7 42.620625 
L 398.7 17.1 
Q 398.7 15.3 396.9 15.3 
L 314.87625 15.3 
Q 313.07625 15.3 313.07625 17.1 
L 313.07625 42.620625 
Q 313.07625 44.420625 314.87625 44.420625 
z
" style="fill: #ffffff; opacity: 0.8; stroke: #cccccc; stroke-linejoin: miter"/>
    </g>
    <g id="line2d_37">
     <path d="M 316.67625 22.588594 
L 325.67625 22.588594 
L 334.67625 22.588594 
" style="fill: none; stroke: #1f77b4; stroke-width: 1.5; stroke-linecap: square"/>
    </g>
    <g id="text_12">
     <!-- Stochastic -->
     <g transform="translate(341.87625 25.738594) scale(0.09 -0.09)">
      <defs>
       <path id="DejaVuSans-53" d="M 3425 4513 
L 3425 3897 
Q 3066 4069 2747 4153 
Q 2428 4238 2131 4238 
Q 1616 4238 1336 4038 
Q 1056 3838 1056 3469 
Q 1056 3159 1242 3001 
Q 1428 2844 1947 2747 
L 2328 2669 
Q 3034 2534 3370 2195 
Q 3706 1856 3706 1288 
Q 3706 609 3251 259 
Q 2797 -91 1919 -91 
Q 1588 -91 1214 -16 
Q 841 59 441 206 
L 441 856 
Q 825 641 1194 531 
Q 1563 422 1919 422 
Q 2459 422 2753 634 
Q 3047 847 3047 1241 
Q 3047 1584 2836 1778 
Q 2625 1972 2144 2069 
L 1759 2144 
Q 1053 2284 737 2584 
Q 422 2884 422 3419 
Q 422 4038 858 4394 
Q 1294 4750 2059 4750 
Q 2388 4750 2728 4690 
Q 3069 4631 3425 4513 
z
" transform="scale(0.015625)"/>
       <path id="DejaVuSans-6f" d="M 1959 3097 
Q 1497 3097 1228 2736 
Q 959 2375 959 1747 
Q 959 1119 1226 758 
Q 1494 397 1959 397 
Q 2419 397 2687 759 
Q 2956 1122 2956 1747 
Q 2956 2369 2687 2733 
Q 2419 3097 1959 3097 
z
M 1959 3584 
Q 2709 3584 3137 3096 
Q 3566 2609 3566 1747 
Q 3566 888 3137 398 
Q 2709 -91 1959 -91 
Q 1206 -91 779 398 
Q 353 888 353 1747 
Q 353 2609 779 3096 
Q 1206 3584 1959 3584 
z
" transform="scale(0.015625)"/>
       <path id="DejaVuSans-63" d="M 3122 3366 
L 3122 2828 
Q 2878 2963 2633 3030 
Q 2388 3097 2138 3097 
Q 1578 3097 1268 2742 
Q 959 2388 959 1747 
Q 959 1106 1268 751 
Q 1578 397 2138 397 
Q 2388 397 2633 464 
Q 2878 531 3122 666 
L 3122 134 
Q 2881 22 2623 -34 
Q 2366 -91 2075 -91 
Q 1284 -91 818 406 
Q 353 903 353 1747 
Q 353 2603 823 3093 
Q 1294 3584 2113 3584 
Q 2378 3584 2631 3529 
Q 2884 3475 3122 3366 
z
" transform="scale(0.015625)"/>
       <path id="DejaVuSans-68" d="M 3513 2113 
L 3513 0 
L 2938 0 
L 2938 2094 
Q 2938 2591 2744 2837 
Q 2550 3084 2163 3084 
Q 1697 3084 1428 2787 
Q 1159 2491 1159 1978 
L 1159 0 
L 581 0 
L 581 4863 
L 1159 4863 
L 1159 2956 
Q 1366 3272 1645 3428 
Q 1925 3584 2291 3584 
Q 2894 3584 3203 3211 
Q 3513 2838 3513 2113 
z
" transform="scale(0.015625)"/>
       <path id="DejaVuSans-61" d="M 2194 1759 
Q 1497 1759 1228 1600 
Q 959 1441 959 1056 
Q 959 750 1161 570 
Q 1363 391 1709 391 
Q 2188 391 2477 730 
Q 2766 1069 2766 1631 
L 2766 1759 
L 2194 1759 
z
M 3341 1997 
L 3341 0 
L 2766 0 
L 2766 531 
Q 2569 213 2275 61 
Q 1981 -91 1556 -91 
Q 1019 -91 701 211 
Q 384 513 384 1019 
Q 384 1609 779 1909 
Q 1175 2209 1959 2209 
L 2766 2209 
L 2766 2266 
Q 2766 2663 2505 2880 
Q 2244 3097 1772 3097 
Q 1472 3097 1187 3025 
Q 903 2953 641 2809 
L 641 3341 
Q 956 3463 1253 3523 
Q 1550 3584 1831 3584 
Q 2591 3584 2966 3190 
Q 3341 2797 3341 1997 
z
" transform="scale(0.015625)"/>
       <path id="DejaVuSans-73" d="M 2834 3397 
L 2834 2853 
Q 2591 2978 2328 3040 
Q 2066 3103 1784 3103 
Q 1356 3103 1142 2972 
Q 928 2841 928 2578 
Q 928 2378 1081 2264 
Q 1234 2150 1697 2047 
L 1894 2003 
Q 2506 1872 2764 1633 
Q 3022 1394 3022 966 
Q 3022 478 2636 193 
Q 2250 -91 1575 -91 
Q 1294 -91 989 -36 
Q 684 19 347 128 
L 347 722 
Q 666 556 975 473 
Q 1284 391 1588 391 
Q 1994 391 2212 530 
Q 2431 669 2431 922 
Q 2431 1156 2273 1281 
Q 2116 1406 1581 1522 
L 1381 1569 
Q 847 1681 609 1914 
Q 372 2147 372 2553 
Q 372 3047 722 3315 
Q 1072 3584 1716 3584 
Q 2034 3584 2315 3537 
Q 2597 3491 2834 3397 
z
" transform="scale(0.015625)"/>
      </defs>
      <use xlink:href="#DejaVuSans-53"/>
      <use xlink:href="#DejaVuSans-74" transform="translate(63.476562 0)"/>
      <use xlink:href="#DejaVuSans-6f" transform="translate(102.685547 0)"/>
      <use xlink:href="#DejaVuSans-63" transform="translate(163.867188 0)"/>
      <use xlink:href="#DejaVuSans-68" transform="translate(218.847656 0)"/>
      <use xlink:href="#DejaVuSans-61" transform="translate(282.226562 0)"/>
      <use xlink:href="#DejaVuSans-73" transform="translate(343.505859 0)"/>
      <use xlink:href="#DejaVuSans-74" transform="translate(395.605469 0)"/>
      <use xlink:href="#DejaVuSans-69" transform="translate(434.814453 0)"/>
      <use xlink:href="#DejaVuSans-63" transform="translate(462.597656 0)"/>
     </g>
    </g>
    <g id="line2d_38">
     <path d="M 316.67625 35.798906 
L 325.67625 35.798906 
L 334.67625 35.798906 
" style="fill: none; stroke: #ff7f0e; stroke-width: 1.5; stroke-linecap: square"/>
    </g>
    <g id="text_13">
     <!-- Exponential -->
     <g transform="translate(341.87625 38.948906) scale(0.09 -0.09)">
      <defs>
       <path id="DejaVuSans-45" d="M 628 4666 
L 3578 4666 
L 3578 4134 
L 1259 4134 
L 1259 2753 
L 3481 2753 
L 3481 2222 
L 1259 2222 
L 1259 531 
L 3634 531 
L 3634 0 
L 628 0 
L 628 4666 
z
" transform="scale(0.015625)"/>
       <path id="DejaVuSans-78" d="M 3513 3500 
L 2247 1797 
L 3578 0 
L 2900 0 
L 1881 1375 
L 863 0 
L 184 0 
L 1544 1831 
L 300 3500 
L 978 3500 
L 1906 2253 
L 2834 3500 
L 3513 3500 
z
" transform="scale(0.015625)"/>
       <path id="DejaVuSans-70" d="M 1159 525 
L 1159 -1331 
L 581 -1331 
L 581 3500 
L 1159 3500 
L 1159 2969 
Q 1341 3281 1617 3432 
Q 1894 3584 2278 3584 
Q 2916 3584 3314 3078 
Q 3713 2572 3713 1747 
Q 3713 922 3314 415 
Q 2916 -91 2278 -91 
Q 1894 -91 1617 61 
Q 1341 213 1159 525 
z
M 3116 1747 
Q 3116 2381 2855 2742 
Q 2594 3103 2138 3103 
Q 1681 3103 1420 2742 
Q 1159 2381 1159 1747 
Q 1159 1113 1420 752 
Q 1681 391 2138 391 
Q 2594 391 2855 752 
Q 3116 1113 3116 1747 
z
" transform="scale(0.015625)"/>
       <path id="DejaVuSans-6e" d="M 3513 2113 
L 3513 0 
L 2938 0 
L 2938 2094 
Q 2938 2591 2744 2837 
Q 2550 3084 2163 3084 
Q 1697 3084 1428 2787 
Q 1159 2491 1159 1978 
L 1159 0 
L 581 0 
L 581 3500 
L 1159 3500 
L 1159 2956 
Q 1366 3272 1645 3428 
Q 1925 3584 2291 3584 
Q 2894 3584 3203 3211 
Q 3513 2838 3513 2113 
z
" transform="scale(0.015625)"/>
      </defs>
      <use xlink:href="#DejaVuSans-45"/>
      <use xlink:href="#DejaVuSans-78" transform="translate(63.183594 0)"/>
      <use xlink:href="#DejaVuSans-70" transform="translate(122.363281 0)"/>
      <use xlink:href="#DejaVuSans-6f" transform="translate(185.839844 0)"/>
      <use xlink:href="#DejaVuSans-6e" transform="translate(247.021484 0)"/>
      <use xlink:href="#DejaVuSans-65" transform="translate(310.400391 0)"/>
      <use xlink:href="#DejaVuSans-6e" transform="translate(371.923828 0)"/>
      <use xlink:href="#DejaVuSans-74" transform="translate(435.302734 0)"/>
      <use xlink:href="#DejaVuSans-69" transform="translate(474.511719 0)"/>
      <use xlink:href="#DejaVuSans-61" transform="translate(502.294922 0)"/>
      <use xlink:href="#DejaVuSans-6c" transform="translate(563.574219 0)"/>
     </g>
    </g>
   </g>
  </g>
 </g>
 <defs>
  <clipPath id="p829de4d68f">
   <rect x="58.11" y="10.8" width="345.09" height="129.011562"/>
  </clipPath>
 </defs>
</svg>
