<?xml version="1.0" encoding="utf-8" standalone="no"?>
<!DOCTYPE svg PUBLIC "-//W3C//DTD SVG 1.1//EN"
  "http://www.w3.org/Graphics/SVG/1.1/DTD/svg11.dtd">
<svg xmlns:xlink="http://www.w3.org/1999/xlink" width="414pt" height="180pt" viewBox="0 0 414 180" xmlns="http://www.w3.org/2000/svg" version="1.1">
 <metadata>
  <rdf:RDF xmlns:dc="http://purl.org/dc/elements/1.1/" xmlns:cc="http://creativecommons.org/ns#" xmlns:rdf="http://www.w3.org/1999/02/22-rdf-syntax-ns#">
   <cc:Work>
    <dc:type rdf:resource="http://purl.org/dc/dcmitype/StillImage"/>
    <dc:date>2026-04-27T00:12:57.273918</dc:date>
    <dc:format>image/svg+xml</dc:format>
    <dc:creator>
     <cc:Agent>
      <dc:title>Matplotlib v3.10.7, https://matplotlib.org/</dc:title>
     </cc:Agent>
    </dc:creator>
   </cc:Work>
  </rdf:RDF>
 </metadata>
 <defs>
  <style type="text/css">*{stroke-linejoin: round; stroke-linecap: butt}</style>
 </defs>
 <g id="figure_1">
  <g id="patch_1">
   <path d="M 0 180 
L 414 180 
L 414 0 
L 0 0 
L 0 180 
z
" style="fill: none"/>
  </g>
  <g id="axes_1">
   <g id="patch_2">
    <path d="M 58.11 139.811563 
L 403.2 139.811563 
L 403.2 10.8 
L 58.11 10.8 
L 58.11 139.811563 
z
" style="fill: none"/>
   </g>
   <g id="matplotlib.axis_1">
    <g id="xtick_1">
     <g id="line2d_1">
      <defs>
       <path id="md9122b2dea" d="M 0 0 
L 0 3.5 
" style="stroke: #000000; stroke-width: 0.8"/>
      </defs>
      <g>
       <use xlink:href="#md9122b2dea" x="61.621329" y="139.811563" style="stroke: #000000; stroke-width: 0.8"/>
      </g>
     </g>
     <g id="text_1">
      <!-- 180 -->
      <g transform="translate(53.031954 153.650156) scale(0.09 -0.09)">
       <defs>
        <path id="DejaVuSans-31" d="M 794 531 
L 1825 531 
L 1825 4091 
L 703 3866 
L 703 4441 
L 1819 4666 
L 2450 4666 
L 2450 531 
L 3481 531 
L 3481 0 
L 794 0 
L 794 531 
z
" transform="scale(0.015625)"/>
        <path id="DejaVuSans-38" d="M 2034 2216 
Q 1584 2216 1326 1975 
Q 1069 1734 1069 1313 
Q 1069 891 1326 650 
Q 1584 409 2034 409 
Q 2484 409 2743 651 
Q 3003 894 3003 1313 
Q 3003 1734 2745 1975 
Q 2488 2216 2034 2216 
z
M 1403 2484 
Q 997 2584 770 2862 
Q 544 3141 544 3541 
Q 544 4100 942 4425 
Q 1341 4750 2034 4750 
Q 2731 4750 3128 4425 
Q 3525 4100 3525 3541 
Q 3525 3141 3298 2862 
Q 3072 2584 2669 2484 
Q 3125 2378 3379 2068 
Q 3634 1759 3634 1313 
Q 3634 634 3220 271 
Q 2806 -91 2034 -91 
Q 1263 -91 848 271 
Q 434 634 434 1313 
Q 434 1759 690 2068 
Q 947 2378 1403 2484 
z
M 1172 3481 
Q 1172 3119 1398 2916 
Q 1625 2713 2034 2713 
Q 2441 2713 2670 2916 
Q 2900 3119 2900 3481 
Q 2900 3844 2670 4047 
Q 2441 4250 2034 4250 
Q 1625 4250 1398 4047 
Q 1172 3844 1172 3481 
z
" transform="scale(0.015625)"/>
        <path id="DejaVuSans-30" d="M 2034 4250 
Q 1547 4250 1301 3770 
Q 1056 3291 1056 2328 
Q 1056 1369 1301 889 
Q 1547 409 2034 409 
Q 2525 409 2770 889 
Q 3016 1369 3016 2328 
Q 3016 3291 2770 3770 
Q 2525 4250 2034 4250 
z
M 2034 4750 
Q 2819 4750 3233 4129 
Q 3647 3509 3647 2328 
Q 3647 1150 3233 529 
Q 2819 -91 2034 -91 
Q 1250 -91 836 529 
Q 422 1150 422 2328 
Q 422 3509 836 4129 
Q 1250 4750 2034 4750 
z
" transform="scale(0.015625)"/>
       </defs>
       <use xlink:href="#DejaVuSans-31"/>
       <use xlink:href="#DejaVuSans-38" transform="translate(63.623047 0)"/>
       <use xlink:href="#DejaVuSans-30" transform="translate(127.246094 0)"/>
      </g>
     </g>
    </g>
    <g id="xtick_2">
     <g id="line2d_2">
      <g>
       <use xlink:href="#md9122b2dea" x="108.177438" y="139.811563" style="stroke: #000000; stroke-width: 0.8"/>
      </g>
     </g>
     <g id="text_2">
      <!-- 190 -->
      <g transform="translate(99.588063 153.650156) scale(0.09 -0.09)">
       <defs>
        <path id="DejaVuSans-39" d="M 703 97 
L 703 672 
Q 941 559 1184 500 
Q 1428 441 1663 441 
Q 2288 441 2617 861 
Q 2947 1281 2994 2138 
Q 2813 1869 2534 1725 
Q 2256 1581 1919 1581 
Q 1219 1581 811 2004 
Q 403 2428 403 3163 
Q 403 3881 828 4315 
Q 1253 4750 1959 4750 
Q 2769 4750 3195 4129 
Q 3622 3509 3622 2328 
Q 3622 1225 3098 567 
Q 2575 -91 1691 -91 
Q 1453 -91 1209 -44 
Q 966 3 703 97 
z
M 1959 2075 
Q 2384 2075 2632 2365 
Q 2881 2656 2881 3163 
Q 2881 3666 2632 3958 
Q 2384 4250 1959 4250 
Q 1534 4250 1286 3958 
Q 1038 3666 1038 3163 
Q 1038 2656 1286 2365 
Q 1534 2075 1959 2075 
z
" transform="scale(0.015625)"/>
       </defs>
       <use xlink:href="#DejaVuSans-31"/>
       <use xlink:href="#DejaVuSans-39" transform="translate(63.623047 0)"/>
       <use xlink:href="#DejaVuSans-30" transform="translate(127.246094 0)"/>
      </g>
     </g>
    </g>
    <g id="xtick_3">
     <g id="line2d_3">
      <g>
       <use xlink:href="#md9122b2dea" x="154.733547" y="139.811563" style="stroke: #000000; stroke-width: 0.8"/>
      </g>
     </g>
     <g id="text_3">
      <!-- 200 -->
      <g transform="translate(146.144172 153.650156) scale(0.09 -0.09)">
       <defs>
        <path id="DejaVuSans-32" d="M 1228 531 
L 3431 531 
L 3431 0 
L 469 0 
L 469 531 
Q 828 903 1448 1529 
Q 2069 2156 2228 2338 
Q 2531 2678 2651 2914 
Q 2772 3150 2772 3378 
Q 2772 3750 2511 3984 
Q 2250 4219 1831 4219 
Q 1534 4219 1204 4116 
Q 875 4013 500 3803 
L 500 4441 
Q 881 4594 1212 4672 
Q 1544 4750 1819 4750 
Q 2544 4750 2975 4387 
Q 3406 4025 3406 3419 
Q 3406 3131 3298 2873 
Q 3191 2616 2906 2266 
Q 2828 2175 2409 1742 
Q 1991 1309 1228 531 
z
" transform="scale(0.015625)"/>
       </defs>
       <use xlink:href="#DejaVuSans-32"/>
       <use xlink:href="#DejaVuSans-30" transform="translate(63.623047 0)"/>
       <use xlink:href="#DejaVuSans-30" transform="translate(127.246094 0)"/>
      </g>
     </g>
    </g>
    <g id="xtick_4">
     <g id="line2d_4">
      <g>
       <use xlink:href="#md9122b2dea" x="201.289656" y="139.811563" style="stroke: #000000; stroke-width: 0.8"/>
      </g>
     </g>
     <g id="text_4">
      <!-- 210 -->
      <g transform="translate(192.700281 153.650156) scale(0.09 -0.09)">
       <use xlink:href="#DejaVuSans-32"/>
       <use xlink:href="#DejaVuSans-31" transform="translate(63.623047 0)"/>
       <use xlink:href="#DejaVuSans-30" transform="translate(127.246094 0)"/>
      </g>
     </g>
    </g>
    <g id="xtick_5">
     <g id="line2d_5">
      <g>
       <use xlink:href="#md9122b2dea" x="247.845765" y="139.811563" style="stroke: #000000; stroke-width: 0.8"/>
      </g>
     </g>
     <g id="text_5">
      <!-- 220 -->
      <g transform="translate(239.25639 153.650156) scale(0.09 -0.09)">
       <use xlink:href="#DejaVuSans-32"/>
       <use xlink:href="#DejaVuSans-32" transform="translate(63.623047 0)"/>
       <use xlink:href="#DejaVuSans-30" transform="translate(127.246094 0)"/>
      </g>
     </g>
    </g>
    <g id="xtick_6">
     <g id="line2d_6">
      <g>
       <use xlink:href="#md9122b2dea" x="294.401873" y="139.811563" style="stroke: #000000; stroke-width: 0.8"/>
      </g>
     </g>
     <g id="text_6">
      <!-- 230 -->
      <g transform="translate(285.812498 153.650156) scale(0.09 -0.09)">
       <defs>
        <path id="DejaVuSans-33" d="M 2597 2516 
Q 3050 2419 3304 2112 
Q 3559 1806 3559 1356 
Q 3559 666 3084 287 
Q 2609 -91 1734 -91 
Q 1441 -91 1130 -33 
Q 819 25 488 141 
L 488 750 
Q 750 597 1062 519 
Q 1375 441 1716 441 
Q 2309 441 2620 675 
Q 2931 909 2931 1356 
Q 2931 1769 2642 2001 
Q 2353 2234 1838 2234 
L 1294 2234 
L 1294 2753 
L 1863 2753 
Q 2328 2753 2575 2939 
Q 2822 3125 2822 3475 
Q 2822 3834 2567 4026 
Q 2313 4219 1838 4219 
Q 1578 4219 1281 4162 
Q 984 4106 628 3988 
L 628 4550 
Q 988 4650 1302 4700 
Q 1616 4750 1894 4750 
Q 2613 4750 3031 4423 
Q 3450 4097 3450 3541 
Q 3450 3153 3228 2886 
Q 3006 2619 2597 2516 
z
" transform="scale(0.015625)"/>
       </defs>
       <use xlink:href="#DejaVuSans-32"/>
       <use xlink:href="#DejaVuSans-33" transform="translate(63.623047 0)"/>
       <use xlink:href="#DejaVuSans-30" transform="translate(127.246094 0)"/>
      </g>
     </g>
    </g>
    <g id="xtick_7">
     <g id="line2d_7">
      <g>
       <use xlink:href="#md9122b2dea" x="340.957982" y="139.811563" style="stroke: #000000; stroke-width: 0.8"/>
      </g>
     </g>
     <g id="text_7">
      <!-- 240 -->
      <g transform="translate(332.368607 153.650156) scale(0.09 -0.09)">
       <defs>
        <path id="DejaVuSans-34" d="M 2419 4116 
L 825 1625 
L 2419 1625 
L 2419 4116 
z
M 2253 4666 
L 3047 4666 
L 3047 1625 
L 3713 1625 
L 3713 1100 
L 3047 1100 
L 3047 0 
L 2419 0 
L 2419 1100 
L 313 1100 
L 313 1709 
L 2253 4666 
z
" transform="scale(0.015625)"/>
       </defs>
       <use xlink:href="#DejaVuSans-32"/>
       <use xlink:href="#DejaVuSans-34" transform="translate(63.623047 0)"/>
       <use xlink:href="#DejaVuSans-30" transform="translate(127.246094 0)"/>
      </g>
     </g>
    </g>
    <g id="xtick_8">
     <g id="line2d_8">
      <g>
       <use xlink:href="#md9122b2dea" x="387.514091" y="139.811563" style="stroke: #000000; stroke-width: 0.8"/>
      </g>
     </g>
     <g id="text_8">
      <!-- 250 -->
      <g transform="translate(378.924716 153.650156) scale(0.09 -0.09)">
       <defs>
        <path id="DejaVuSans-35" d="M 691 4666 
L 3169 4666 
L 3169 4134 
L 1269 4134 
L 1269 2991 
Q 1406 3038 1543 3061 
Q 1681 3084 1819 3084 
Q 2600 3084 3056 2656 
Q 3513 2228 3513 1497 
Q 3513 744 3044 326 
Q 2575 -91 1722 -91 
Q 1428 -91 1123 -41 
Q 819 9 494 109 
L 494 744 
Q 775 591 1075 516 
Q 1375 441 1709 441 
Q 2250 441 2565 725 
Q 2881 1009 2881 1497 
Q 2881 1984 2565 2268 
Q 2250 2553 1709 2553 
Q 1456 2553 1204 2497 
Q 953 2441 691 2322 
L 691 4666 
z
" transform="scale(0.015625)"/>
       </defs>
       <use xlink:href="#DejaVuSans-32"/>
       <use xlink:href="#DejaVuSans-35" transform="translate(63.623047 0)"/>
       <use xlink:href="#DejaVuSans-30" transform="translate(127.246094 0)"/>
      </g>
     </g>
    </g>
    <g id="text_9">
     <!-- Altitude [km] -->
     <g transform="translate(197.860469 167.120313) scale(0.1 -0.1)">
      <defs>
       <path id="DejaVuSans-41" d="M 2188 4044 
L 1331 1722 
L 3047 1722 
L 2188 4044 
z
M 1831 4666 
L 2547 4666 
L 4325 0 
L 3669 0 
L 3244 1197 
L 1141 1197 
L 716 0 
L 50 0 
L 1831 4666 
z
" transform="scale(0.015625)"/>
       <path id="DejaVuSans-6c" d="M 603 4863 
L 1178 4863 
L 1178 0 
L 603 0 
L 603 4863 
z
" transform="scale(0.015625)"/>
       <path id="DejaVuSans-74" d="M 1172 4494 
L 1172 3500 
L 2356 3500 
L 2356 3053 
L 1172 3053 
L 1172 1153 
Q 1172 725 1289 603 
Q 1406 481 1766 481 
L 2356 481 
L 2356 0 
L 1766 0 
Q 1100 0 847 248 
Q 594 497 594 1153 
L 594 3053 
L 172 3053 
L 172 3500 
L 594 3500 
L 594 4494 
L 1172 4494 
z
" transform="scale(0.015625)"/>
       <path id="DejaVuSans-69" d="M 603 3500 
L 1178 3500 
L 1178 0 
L 603 0 
L 603 3500 
z
M 603 4863 
L 1178 4863 
L 1178 4134 
L 603 4134 
L 603 4863 
z
" transform="scale(0.015625)"/>
       <path id="DejaVuSans-75" d="M 544 1381 
L 544 3500 
L 1119 3500 
L 1119 1403 
Q 1119 906 1312 657 
Q 1506 409 1894 409 
Q 2359 409 2629 706 
Q 2900 1003 2900 1516 
L 2900 3500 
L 3475 3500 
L 3475 0 
L 2900 0 
L 2900 538 
Q 2691 219 2414 64 
Q 2138 -91 1772 -91 
Q 1169 -91 856 284 
Q 544 659 544 1381 
z
M 1991 3584 
L 1991 3584 
z
" transform="scale(0.015625)"/>
       <path id="DejaVuSans-64" d="M 2906 2969 
L 2906 4863 
L 3481 4863 
L 3481 0 
L 2906 0 
L 2906 525 
Q 2725 213 2448 61 
Q 2172 -91 1784 -91 
Q 1150 -91 751 415 
Q 353 922 353 1747 
Q 353 2572 751 3078 
Q 1150 3584 1784 3584 
Q 2172 3584 2448 3432 
Q 2725 3281 2906 2969 
z
M 947 1747 
Q 947 1113 1208 752 
Q 1469 391 1925 391 
Q 2381 391 2643 752 
Q 2906 1113 2906 1747 
Q 2906 2381 2643 2742 
Q 2381 3103 1925 3103 
Q 1469 3103 1208 2742 
Q 947 2381 947 1747 
z
" transform="scale(0.015625)"/>
       <path id="DejaVuSans-65" d="M 3597 1894 
L 3597 1613 
L 953 1613 
Q 991 1019 1311 708 
Q 1631 397 2203 397 
Q 2534 397 2845 478 
Q 3156 559 3463 722 
L 3463 178 
Q 3153 47 2828 -22 
Q 2503 -91 2169 -91 
Q 1331 -91 842 396 
Q 353 884 353 1716 
Q 353 2575 817 3079 
Q 1281 3584 2069 3584 
Q 2775 3584 3186 3129 
Q 3597 2675 3597 1894 
z
M 3022 2063 
Q 3016 2534 2758 2815 
Q 2500 3097 2075 3097 
Q 1594 3097 1305 2825 
Q 1016 2553 972 2059 
L 3022 2063 
z
" transform="scale(0.015625)"/>
       <path id="DejaVuSans-20" transform="scale(0.015625)"/>
       <path id="DejaVuSans-5b" d="M 550 4863 
L 1875 4863 
L 1875 4416 
L 1125 4416 
L 1125 -397 
L 1875 -397 
L 1875 -844 
L 550 -844 
L 550 4863 
z
" transform="scale(0.015625)"/>
       <path id="DejaVuSans-6b" d="M 581 4863 
L 1159 4863 
L 1159 1991 
L 2875 3500 
L 3609 3500 
L 1753 1863 
L 3688 0 
L 2938 0 
L 1159 1709 
L 1159 0 
L 581 0 
L 581 4863 
z
" transform="scale(0.015625)"/>
       <path id="DejaVuSans-6d" d="M 3328 2828 
Q 3544 3216 3844 3400 
Q 4144 3584 4550 3584 
Q 5097 3584 5394 3201 
Q 5691 2819 5691 2113 
L 5691 0 
L 5113 0 
L 5113 2094 
Q 5113 2597 4934 2840 
Q 4756 3084 4391 3084 
Q 3944 3084 3684 2787 
Q 3425 2491 3425 1978 
L 3425 0 
L 2847 0 
L 2847 2094 
Q 2847 2600 2669 2842 
Q 2491 3084 2119 3084 
Q 1678 3084 1418 2786 
Q 1159 2488 1159 1978 
L 1159 0 
L 581 0 
L 581 3500 
L 1159 3500 
L 1159 2956 
Q 1356 3278 1631 3431 
Q 1906 3584 2284 3584 
Q 2666 3584 2933 3390 
Q 3200 3197 3328 2828 
z
" transform="scale(0.015625)"/>
       <path id="DejaVuSans-5d" d="M 1947 4863 
L 1947 -844 
L 622 -844 
L 622 -397 
L 1369 -397 
L 1369 4416 
L 622 4416 
L 622 4863 
L 1947 4863 
z
" transform="scale(0.015625)"/>
      </defs>
      <use xlink:href="#DejaVuSans-41"/>
      <use xlink:href="#DejaVuSans-6c" transform="translate(68.408203 0)"/>
      <use xlink:href="#DejaVuSans-74" transform="translate(96.191406 0)"/>
      <use xlink:href="#DejaVuSans-69" transform="translate(135.400391 0)"/>
      <use xlink:href="#DejaVuSans-74" transform="translate(163.183594 0)"/>
      <use xlink:href="#DejaVuSans-75" transform="translate(202.392578 0)"/>
      <use xlink:href="#DejaVuSans-64" transform="translate(265.771484 0)"/>
      <use xlink:href="#DejaVuSans-65" transform="translate(329.248047 0)"/>
      <use xlink:href="#DejaVuSans-20" transform="translate(390.771484 0)"/>
      <use xlink:href="#DejaVuSans-5b" transform="translate(422.558594 0)"/>
      <use xlink:href="#DejaVuSans-6b" transform="translate(461.572266 0)"/>
      <use xlink:href="#DejaVuSans-6d" transform="translate(519.482422 0)"/>
      <use xlink:href="#DejaVuSans-5d" transform="translate(616.894531 0)"/>
     </g>
    </g>
   </g>
   <g id="matplotlib.axis_2">
    <g id="ytick_1">
     <g id="line2d_9">
      <defs>
       <path id="mfd6bd57ba8" d="M 0 0 
L -3.5 0 
" style="stroke: #000000; stroke-width: 0.8"/>
      </defs>
      <g>
       <use xlink:href="#mfd6bd57ba8" x="58.11" y="135.80637" style="stroke: #000000; stroke-width: 0.8"/>
      </g>
     </g>
     <g id="text_10">
      <!-- $\mathdefault{10^{-13}}$ -->
      <g transform="translate(26 139.225667) scale(0.09 -0.09)">
       <defs>
        <path id="DejaVuSans-2212" d="M 678 2272 
L 4684 2272 
L 4684 1741 
L 678 1741 
L 678 2272 
z
" transform="scale(0.015625)"/>
       </defs>
       <use xlink:href="#DejaVuSans-31" transform="translate(0 0.765625)"/>
       <use xlink:href="#DejaVuSans-30" transform="translate(63.623047 0.765625)"/>
       <use xlink:href="#DejaVuSans-2212" transform="translate(128.203125 39.046875) scale(0.7)"/>
       <use xlink:href="#DejaVuSans-31" transform="translate(186.855469 39.046875) scale(0.7)"/>
       <use xlink:href="#DejaVuSans-33" transform="translate(231.391602 39.046875) scale(0.7)"/>
      </g>
     </g>
    </g>
    <g id="ytick_2">
     <g id="line2d_10">
      <g>
       <use xlink:href="#mfd6bd57ba8" x="58.11" y="104.327516" style="stroke: #000000; stroke-width: 0.8"/>
      </g>
     </g>
     <g id="text_11">
      <!-- $\mathdefault{10^{-12}}$ -->
      <g transform="translate(26 107.746813) scale(0.09 -0.09)">
       <use xlink:href="#DejaVuSans-31" transform="translate(0 0.765625)"/>
       <use xlink:href="#DejaVuSans-30" transform="translate(63.623047 0.765625)"/>
       <use xlink:href="#DejaVuSans-2212" transform="translate(128.203125 39.046875) scale(0.7)"/>
       <use xlink:href="#DejaVuSans-31" transform="translate(186.855469 39.046875) scale(0.7)"/>
       <use xlink:href="#DejaVuSans-32" transform="translate(231.391602 39.046875) scale(0.7)"/>
      </g>
     </g>
    </g>
    <g id="ytick_3">
     <g id="line2d_11">
      <g>
       <use xlink:href="#mfd6bd57ba8" x="58.11" y="72.848663" style="stroke: #000000; stroke-width: 0.8"/>
      </g>
     </g>
     <g id="text_12">
      <!-- $\mathdefault{10^{-11}}$ -->
      <g transform="translate(26 76.26796) scale(0.09 -0.09)">
       <use xlink:href="#DejaVuSans-31" transform="translate(0 0.684375)"/>
       <use xlink:href="#DejaVuSans-30" transform="translate(63.623047 0.684375)"/>
       <use xlink:href="#DejaVuSans-2212" transform="translate(128.203125 38.965625) scale(0.7)"/>
       <use xlink:href="#DejaVuSans-31" transform="translate(186.855469 38.965625) scale(0.7)"/>
       <use xlink:href="#DejaVuSans-31" transform="translate(231.391602 38.965625) scale(0.7)"/>
      </g>
     </g>
    </g>
    <g id="ytick_4">
     <g id="line2d_12">
      <g>
       <use xlink:href="#mfd6bd57ba8" x="58.11" y="41.369809" style="stroke: #000000; stroke-width: 0.8"/>
      </g>
     </g>
     <g id="text_13">
      <!-- $\mathdefault{10^{-10}}$ -->
      <g transform="translate(26 44.789106) scale(0.09 -0.09)">
       <use xlink:href="#DejaVuSans-31" transform="translate(0 0.765625)"/>
       <use xlink:href="#DejaVuSans-30" transform="translate(63.623047 0.765625)"/>
       <use xlink:href="#DejaVuSans-2212" transform="translate(128.203125 39.046875) scale(0.7)"/>
       <use xlink:href="#DejaVuSans-31" transform="translate(186.855469 39.046875) scale(0.7)"/>
       <use xlink:href="#DejaVuSans-30" transform="translate(231.391602 39.046875) scale(0.7)"/>
      </g>
     </g>
    </g>
    <g id="ytick_5">
     <g id="line2d_13">
      <defs>
       <path id="m55ddde52d6" d="M 0 0 
L -2 0 
" style="stroke: #000000; stroke-width: 0.6"/>
      </defs>
      <g>
       <use xlink:href="#m55ddde52d6" x="58.11" y="138.856986" style="stroke: #000000; stroke-width: 0.6"/>
      </g>
     </g>
    </g>
    <g id="ytick_6">
     <g id="line2d_14">
      <g>
       <use xlink:href="#m55ddde52d6" x="58.11" y="137.246763" style="stroke: #000000; stroke-width: 0.6"/>
      </g>
     </g>
    </g>
    <g id="ytick_7">
     <g id="line2d_15">
      <g>
       <use xlink:href="#m55ddde52d6" x="58.11" y="126.330291" style="stroke: #000000; stroke-width: 0.6"/>
      </g>
     </g>
    </g>
    <g id="ytick_8">
     <g id="line2d_16">
      <g>
       <use xlink:href="#m55ddde52d6" x="58.11" y="120.78714" style="stroke: #000000; stroke-width: 0.6"/>
      </g>
     </g>
    </g>
    <g id="ytick_9">
     <g id="line2d_17">
      <g>
       <use xlink:href="#m55ddde52d6" x="58.11" y="116.854212" style="stroke: #000000; stroke-width: 0.6"/>
      </g>
     </g>
    </g>
    <g id="ytick_10">
     <g id="line2d_18">
      <g>
       <use xlink:href="#m55ddde52d6" x="58.11" y="113.803595" style="stroke: #000000; stroke-width: 0.6"/>
      </g>
     </g>
    </g>
    <g id="ytick_11">
     <g id="line2d_19">
      <g>
       <use xlink:href="#m55ddde52d6" x="58.11" y="111.311061" style="stroke: #000000; stroke-width: 0.6"/>
      </g>
     </g>
    </g>
    <g id="ytick_12">
     <g id="line2d_20">
      <g>
       <use xlink:href="#m55ddde52d6" x="58.11" y="109.203652" style="stroke: #000000; stroke-width: 0.6"/>
      </g>
     </g>
    </g>
    <g id="ytick_13">
     <g id="line2d_21">
      <g>
       <use xlink:href="#m55ddde52d6" x="58.11" y="107.378132" style="stroke: #000000; stroke-width: 0.6"/>
      </g>
     </g>
    </g>
    <g id="ytick_14">
     <g id="line2d_22">
      <g>
       <use xlink:href="#m55ddde52d6" x="58.11" y="105.76791" style="stroke: #000000; stroke-width: 0.6"/>
      </g>
     </g>
    </g>
    <g id="ytick_15">
     <g id="line2d_23">
      <g>
       <use xlink:href="#m55ddde52d6" x="58.11" y="94.851437" style="stroke: #000000; stroke-width: 0.6"/>
      </g>
     </g>
    </g>
    <g id="ytick_16">
     <g id="line2d_24">
      <g>
       <use xlink:href="#m55ddde52d6" x="58.11" y="89.308286" style="stroke: #000000; stroke-width: 0.6"/>
      </g>
     </g>
    </g>
    <g id="ytick_17">
     <g id="line2d_25">
      <g>
       <use xlink:href="#m55ddde52d6" x="58.11" y="85.375358" style="stroke: #000000; stroke-width: 0.6"/>
      </g>
     </g>
    </g>
    <g id="ytick_18">
     <g id="line2d_26">
      <g>
       <use xlink:href="#m55ddde52d6" x="58.11" y="82.324742" style="stroke: #000000; stroke-width: 0.6"/>
      </g>
     </g>
    </g>
    <g id="ytick_19">
     <g id="line2d_27">
      <g>
       <use xlink:href="#m55ddde52d6" x="58.11" y="79.832207" style="stroke: #000000; stroke-width: 0.6"/>
      </g>
     </g>
    </g>
    <g id="ytick_20">
     <g id="line2d_28">
      <g>
       <use xlink:href="#m55ddde52d6" x="58.11" y="77.724799" style="stroke: #000000; stroke-width: 0.6"/>
      </g>
     </g>
    </g>
    <g id="ytick_21">
     <g id="line2d_29">
      <g>
       <use xlink:href="#m55ddde52d6" x="58.11" y="75.899279" style="stroke: #000000; stroke-width: 0.6"/>
      </g>
     </g>
    </g>
    <g id="ytick_22">
     <g id="line2d_30">
      <g>
       <use xlink:href="#m55ddde52d6" x="58.11" y="74.289056" style="stroke: #000000; stroke-width: 0.6"/>
      </g>
     </g>
    </g>
    <g id="ytick_23">
     <g id="line2d_31">
      <g>
       <use xlink:href="#m55ddde52d6" x="58.11" y="63.372584" style="stroke: #000000; stroke-width: 0.6"/>
      </g>
     </g>
    </g>
    <g id="ytick_24">
     <g id="line2d_32">
      <g>
       <use xlink:href="#m55ddde52d6" x="58.11" y="57.829433" style="stroke: #000000; stroke-width: 0.6"/>
      </g>
     </g>
    </g>
    <g id="ytick_25">
     <g id="line2d_33">
      <g>
       <use xlink:href="#m55ddde52d6" x="58.11" y="53.896505" style="stroke: #000000; stroke-width: 0.6"/>
      </g>
     </g>
    </g>
    <g id="ytick_26">
     <g id="line2d_34">
      <g>
       <use xlink:href="#m55ddde52d6" x="58.11" y="50.845889" style="stroke: #000000; stroke-width: 0.6"/>
      </g>
     </g>
    </g>
    <g id="ytick_27">
     <g id="line2d_35">
      <g>
       <use xlink:href="#m55ddde52d6" x="58.11" y="48.353354" style="stroke: #000000; stroke-width: 0.6"/>
      </g>
     </g>
    </g>
    <g id="ytick_28">
     <g id="line2d_36">
      <g>
       <use xlink:href="#m55ddde52d6" x="58.11" y="46.245946" style="stroke: #000000; stroke-width: 0.6"/>
      </g>
     </g>
    </g>
    <g id="ytick_29">
     <g id="line2d_37">
      <g>
       <use xlink:href="#m55ddde52d6" x="58.11" y="44.420426" style="stroke: #000000; stroke-width: 0.6"/>
      </g>
     </g>
    </g>
    <g id="ytick_30">
     <g id="line2d_38">
      <g>
       <use xlink:href="#m55ddde52d6" x="58.11" y="42.810203" style="stroke: #000000; stroke-width: 0.6"/>
      </g>
     </g>
    </g>
    <g id="ytick_31">
     <g id="line2d_39">
      <g>
       <use xlink:href="#m55ddde52d6" x="58.11" y="31.89373" style="stroke: #000000; stroke-width: 0.6"/>
      </g>
     </g>
    </g>
    <g id="ytick_32">
     <g id="line2d_40">
      <g>
       <use xlink:href="#m55ddde52d6" x="58.11" y="26.350579" style="stroke: #000000; stroke-width: 0.6"/>
      </g>
     </g>
    </g>
    <g id="ytick_33">
     <g id="line2d_41">
      <g>
       <use xlink:href="#m55ddde52d6" x="58.11" y="22.417651" style="stroke: #000000; stroke-width: 0.6"/>
      </g>
     </g>
    </g>
    <g id="ytick_34">
     <g id="line2d_42">
      <g>
       <use xlink:href="#m55ddde52d6" x="58.11" y="19.367035" style="stroke: #000000; stroke-width: 0.6"/>
      </g>
     </g>
    </g>
    <g id="ytick_35">
     <g id="line2d_43">
      <g>
       <use xlink:href="#m55ddde52d6" x="58.11" y="16.8745" style="stroke: #000000; stroke-width: 0.6"/>
      </g>
     </g>
    </g>
    <g id="ytick_36">
     <g id="line2d_44">
      <g>
       <use xlink:href="#m55ddde52d6" x="58.11" y="14.767092" style="stroke: #000000; stroke-width: 0.6"/>
      </g>
     </g>
    </g>
    <g id="ytick_37">
     <g id="line2d_45">
      <g>
       <use xlink:href="#m55ddde52d6" x="58.11" y="12.941572" style="stroke: #000000; stroke-width: 0.6"/>
      </g>
     </g>
    </g>
    <g id="ytick_38">
     <g id="line2d_46">
      <g>
       <use xlink:href="#m55ddde52d6" x="58.11" y="11.331349" style="stroke: #000000; stroke-width: 0.6"/>
      </g>
     </g>
    </g>
    <g id="text_14">
     <!-- $\rho$ [kg/m$^3$] -->
     <g transform="translate(19.9 99.055781) rotate(-90) scale(0.1 -0.1)">
      <defs>
       <path id="DejaVuSans-Oblique-3c1" d="M 1203 2875 
Q 1453 3194 1981 3475 
Q 2188 3584 2756 3584 
Q 3394 3584 3694 3078 
Q 3994 2572 3834 1747 
Q 3672 922 3175 415 
Q 2678 -91 2041 -91 
Q 1656 -91 1409 63 
Q 1163 213 1044 525 
L 681 -1331 
L 103 -1331 
L 697 1716 
Q 838 2438 1203 2875 
z
M 3238 1747 
Q 3359 2381 3169 2744 
Q 2978 3103 2522 3103 
Q 2066 3103 1734 2744 
Q 1403 2381 1281 1747 
Q 1156 1113 1347 750 
Q 1538 391 1994 391 
Q 2450 391 2781 750 
Q 3113 1113 3238 1747 
z
" transform="scale(0.015625)"/>
       <path id="DejaVuSans-67" d="M 2906 1791 
Q 2906 2416 2648 2759 
Q 2391 3103 1925 3103 
Q 1463 3103 1205 2759 
Q 947 2416 947 1791 
Q 947 1169 1205 825 
Q 1463 481 1925 481 
Q 2391 481 2648 825 
Q 2906 1169 2906 1791 
z
M 3481 434 
Q 3481 -459 3084 -895 
Q 2688 -1331 1869 -1331 
Q 1566 -1331 1297 -1286 
Q 1028 -1241 775 -1147 
L 775 -588 
Q 1028 -725 1275 -790 
Q 1522 -856 1778 -856 
Q 2344 -856 2625 -561 
Q 2906 -266 2906 331 
L 2906 616 
Q 2728 306 2450 153 
Q 2172 0 1784 0 
Q 1141 0 747 490 
Q 353 981 353 1791 
Q 353 2603 747 3093 
Q 1141 3584 1784 3584 
Q 2172 3584 2450 3431 
Q 2728 3278 2906 2969 
L 2906 3500 
L 3481 3500 
L 3481 434 
z
" transform="scale(0.015625)"/>
       <path id="DejaVuSans-2f" d="M 1625 4666 
L 2156 4666 
L 531 -594 
L 0 -594 
L 1625 4666 
z
" transform="scale(0.015625)"/>
      </defs>
      <use xlink:href="#DejaVuSans-Oblique-3c1" transform="translate(0 0.765625)"/>
      <use xlink:href="#DejaVuSans-20" transform="translate(63.476562 0.765625)"/>
      <use xlink:href="#DejaVuSans-5b" transform="translate(95.263672 0.765625)"/>
      <use xlink:href="#DejaVuSans-6b" transform="translate(134.277344 0.765625)"/>
      <use xlink:href="#DejaVuSans-67" transform="translate(192.1875 0.765625)"/>
      <use xlink:href="#DejaVuSans-2f" transform="translate(255.664062 0.765625)"/>
      <use xlink:href="#DejaVuSans-6d" transform="translate(289.355469 0.765625)"/>
      <use xlink:href="#DejaVuSans-33" transform="translate(387.724609 39.046875) scale(0.7)"/>
      <use xlink:href="#DejaVuSans-5d" transform="translate(434.995117 0.765625)"/>
     </g>
    </g>
   </g>
   <g id="line2d_47">
    <path d="M 387.514091 181 
L 387.484873 121.271192 
L 387.406163 126.5742 
L 387.401746 126.557226 
L 387.339603 123.603203 
L 387.372818 126.70661 
L 387.295191 126.320598 
L 387.288335 126.321982 
L 387.22072 122.839537 
L 387.169567 125.019626 
L 387.15141 125.083143 
L 386.986019 132.430942 
L 386.9745 131.753777 
L 386.939122 129.024642 
L 386.890061 130.935676 
L 386.877462 133.947401 
L 386.799131 127.536629 
L 386.613721 122.740969 
L 386.505198 127.124723 
L 386.456874 125.640603 
L 386.253194 131.60517 
L 386.217717 130.470655 
L 386.034375 122.398362 
L 385.996573 123.544634 
L 385.958407 122.816413 
L 385.93919 121.269169 
L 385.881007 122.776088 
L 385.861439 124.237549 
L 385.841785 122.408265 
L 385.782315 122.969006 
L 385.742255 122.225769 
L 385.701872 123.378015 
L 385.681562 123.569999 
L 385.661174 125.044456 
L 385.599554 123.117579 
L 385.578865 122.827533 
L 385.558105 123.495929 
L 385.537273 125.777695 
L 385.453258 124.374219 
L 385.432089 124.481652 
L 385.368204 122.914052 
L 385.325309 123.985613 
L 385.303774 124.120419 
L 385.260533 121.378307 
L 385.195261 123.265482 
L 385.151485 123.048386 
L 385.063351 126.177909 
L 385.041204 123.86994 
L 384.974514 126.194975 
L 384.952206 125.211252 
L 384.88507 128.997571 
L 384.840153 128.331727 
L 384.727408 125.178703 
L 384.704793 126.037294 
L 384.68216 123.733031 
L 384.636846 124.694073 
L 384.591475 122.724909 
L 384.54606 125.128245 
L 384.500611 125.161165 
L 384.273316 129.692567 
L 384.182648 127.073921 
L 384.160026 127.867843 
L 384.069779 128.280218 
L 384.092301 127.501841 
L 384.047285 127.97609 
L 384.024823 127.703665 
L 384.002394 128.093672 
L 383.957642 131.039443 
L 383.890811 128.380867 
L 383.736502 122.370336 
L 383.714666 122.519409 
L 383.606343 125.198901 
L 383.584859 124.293281 
L 383.563438 124.277861 
L 383.542081 122.970115 
L 383.478407 124.056456 
L 383.436301 125.498262 
L 383.373681 124.457681 
L 383.352957 123.107804 
L 383.311739 125.37419 
L 383.270836 123.895994 
L 383.150112 126.604716 
L 383.110565 125.32128 
L 383.090926 125.196058 
L 383.07138 126.038508 
L 383.051927 123.603251 
L 382.975064 125.789479 
L 382.899774 127.069166 
L 382.844377 124.285268 
L 382.807971 124.214708 
L 382.789928 125.083363 
L 382.701345 124.057105 
L 382.615552 123.967537 
L 382.548987 123.913083 
L 382.500297 126.021983 
L 382.421548 123.384706 
L 382.375762 123.468133 
L 382.23123 126.643051 
L 382.203842 125.276054 
L 382.190341 127.817712 
L 382.150612 127.737872 
L 382.099467 126.208681 
L 382.038515 129.071601 
L 381.91626 123.686703 
L 381.885756 123.660511 
L 381.828372 128.469066 
L 381.775797 125.576437 
L 381.61719 121.607301 
L 381.751302 126.042604 
L 381.591083 123.566925 
L 381.581405 125.965951 
L 381.518615 121.467076 
L 381.480266 124.60808 
L 381.438779 120.088519 
L 381.455793 127.826092 
L 381.371838 125.011356 
L 381.366251 126.330567 
L 381.295393 120.360157 
L 381.27583 122.928407 
L 381.212431 119.630798 
L 381.164137 122.028999 
L 381.092186 123.212955 
L 381.133563 121.877022 
L 381.083481 122.013275 
L 380.988358 120.913832 
L 381.047207 123.756563 
L 380.978023 121.599403 
L 380.946102 123.266048 
L 380.866229 125.096464 
L 380.924054 121.97752 
L 380.842013 123.451809 
L 380.829672 123.429841 
L 380.817176 125.844445 
L 380.75237 122.669986 
L 380.738944 122.786369 
L 380.725362 122.082332 
L 380.683685 123.662389 
L 380.669483 123.615851 
L 380.596159 126.915512 
L 380.550336 125.123157 
L 380.454661 129.356587 
L 380.421602 128.455227 
L 380.265863 123.92874 
L 380.118219 131.109505 
L 380.099185 130.286377 
L 379.942585 125.347021 
L 379.922488 126.150499 
L 379.799623 129.146356 
L 379.454812 121.118529 
L 379.432518 123.37908 
L 379.387687 120.941196 
L 379.342541 122.621434 
L 379.319853 121.871718 
L 379.297088 122.76966 
L 379.251339 125.792029 
L 379.205304 121.731636 
L 379.182183 122.632059 
L 379.135738 120.815828 
L 379.112417 121.738481 
L 379.089031 121.880624 
L 379.065582 120.780138 
L 379.018498 122.462662 
L 378.994865 121.719046 
L 378.82787 124.483765 
L 378.779699 124.12245 
L 378.755546 124.950739 
L 378.731349 122.417716 
L 378.658515 124.538942 
L 378.634161 124.424472 
L 378.536414 127.397535 
L 378.511905 126.87303 
L 378.48737 124.717001 
L 378.389014 124.929101 
L 378.36438 126.473519 
L 378.31507 123.280029 
L 378.290397 121.828335 
L 378.216327 121.933381 
L 378.14221 125.856522 
L 378.06809 123.704085 
L 377.969334 120.278297 
L 377.944667 121.66886 
L 377.821532 122.699141 
L 377.796955 121.864867 
L 377.72335 121.921053 
L 377.649964 122.827635 
L 377.625557 121.487618 
L 377.576833 119.832761 
L 377.528236 120.940981 
L 377.407364 124.031683 
L 377.287518 121.311 
L 377.239908 121.413182 
L 377.1925 121.496163 
L 377.028293 118.754247 
L 376.981896 119.346211 
L 376.958787 119.61119 
L 376.821425 116.836646 
L 376.73111 122.368112 
L 376.641863 121.159165 
L 376.59766 120.117198 
L 376.531902 123.763359 
L 376.466827 122.525653 
L 376.445293 123.378752 
L 376.423839 121.029834 
L 376.402466 119.852702 
L 376.3178 120.37504 
L 376.296843 121.285289 
L 376.255186 119.4627 
L 376.234487 120.394746 
L 376.213875 119.797467 
L 376.152567 120.996834 
L 376.132309 121.117702 
L 376.112141 120.421934 
L 376.052183 121.506132 
L 376.012672 120.819624 
L 375.839601 127.52268 
L 375.746954 120.731426 
L 375.710624 120.84481 
L 375.604186 124.145208 
L 375.552432 120.330237 
L 375.501669 122.567679 
L 375.403159 122.302248 
L 375.37123 124.685142 
L 375.355437 124.44556 
L 375.324199 125.621316 
L 375.308755 125.279727 
L 375.248157 127.186362 
L 375.203966 124.647794 
L 375.160867 121.068665 
L 375.064555 122.096481 
L 375.051282 124.570164 
L 374.974199 120.711499 
L 374.889715 117.145552 
L 374.855232 118.930147 
L 374.778606 121.230571 
L 374.821747 118.390086 
L 374.747348 120.426806 
L 374.658914 115.566502 
L 374.604021 116.529317 
L 374.543512 116.27373 
L 374.569012 117.984236 
L 374.510432 116.655661 
L 374.386559 119.251055 
L 374.379174 118.720919 
L 374.306907 120.857531 
L 374.29981 120.115749 
L 374.243613 119.125054 
L 374.174103 123.659581 
L 374.167156 123.394379 
L 374.146297 125.366505 
L 374.132369 128.596161 
L 374.055256 121.928391 
L 374.048182 122.77942 
L 374.026868 121.593893 
L 374.01973 124.056654 
L 373.947184 120.777961 
L 373.924915 121.670451 
L 373.894778 119.521097 
L 373.864069 124.870534 
L 373.856295 124.558379 
L 373.848482 126.135282 
L 373.768037 120.026844 
L 373.664996 117.791799 
L 373.708904 120.452005 
L 373.656032 119.178425 
L 373.552943 120.198043 
L 373.591434 117.251737 
L 373.543128 119.50923 
L 373.513204 120.607843 
L 373.503067 122.106583 
L 373.482546 119.780828 
L 373.418953 120.492692 
L 373.374809 117.881459 
L 373.305824 118.811896 
L 373.157251 122.336739 
L 373.144208 122.169248 
L 373.091012 127.206733 
L 373.036195 123.991844 
L 372.994028 121.77622 
L 372.979772 124.286836 
L 372.906999 122.130206 
L 372.846999 124.082635 
L 372.816408 121.058131 
L 372.785427 120.948177 
L 372.706269 124.234746 
L 372.673932 121.142477 
L 372.657621 121.999508 
L 372.641214 120.50238 
L 372.608114 120.623178 
L 372.591422 118.594167 
L 372.523694 121.682908 
L 372.419267 126.691174 
L 372.365815 125.133654 
L 372.293313 125.468911 
L 372.238041 121.861218 
L 372.18202 124.083569 
L 372.200775 121.568317 
L 372.163183 122.72577 
L 372.125268 119.559735 
L 372.067801 123.485761 
L 372.048488 123.25118 
L 371.91116 118.393773 
L 371.891239 118.534994 
L 371.770166 121.094993 
L 371.688007 118.969553 
L 371.667292 120.370233 
L 371.646508 121.237907 
L 371.604735 119.786398 
L 371.583747 119.877924 
L 371.456424 117.572244 
L 371.434974 118.509535 
L 371.413459 116.826964 
L 371.391878 117.072155 
L 371.370233 116.233433 
L 371.32675 118.544305 
L 371.283009 116.693796 
L 371.105533 122.797293 
L 371.083078 121.59342 
L 371.060567 124.147462 
L 371.038001 125.732304 
L 370.969986 124.854055 
L 370.809619 119.033274 
L 370.786534 119.09059 
L 370.647189 120.189515 
L 370.530064 118.176244 
L 370.553556 120.288101 
L 370.50654 118.295746 
L 370.341048 121.900337 
L 370.269739 118.15218 
L 370.198236 119.277329 
L 370.126559 120.697884 
L 370.078693 119.740569 
L 370.054737 118.411274 
L 369.982794 119.476984 
L 369.910753 119.667472 
L 369.790524 117.977739 
L 369.718327 123.304407 
L 369.646124 122.48684 
L 369.57395 121.890692 
L 369.549905 119.330516 
L 369.47782 120.598108 
L 369.310091 126.92796 
L 369.214699 121.801717 
L 369.167167 122.830801 
L 369.143447 123.591762 
L 369.11976 121.53517 
L 369.096106 121.392788 
L 369.001855 125.447511 
L 368.95497 124.355581 
L 368.792337 120.485175 
L 368.67772 116.799865 
L 368.632256 117.266328 
L 368.609607 118.733468 
L 368.541995 117.040375 
L 368.519571 116.061778 
L 368.452642 117.438513 
L 368.430447 116.874478 
L 368.38623 119.158723 
L 368.342248 116.128203 
L 368.147259 118.863293 
L 368.125894 120.275855 
L 368.08335 117.458306 
L 368.062171 117.568309 
L 367.957221 118.819814 
L 367.915686 116.987125 
L 367.853863 118.657999 
L 367.691881 121.946851 
L 367.573266 118.98791 
L 367.553744 119.855056 
L 367.47637 118.836 
L 367.457207 119.7066 
L 367.325104 118.190761 
L 367.306525 118.785 
L 367.251228 117.525174 
L 367.160518 115.94996 
L 367.106945 118.337094 
L 367.03649 117.635105 
L 367.019048 117.77372 
L 367.001673 116.664977 
L 366.94995 117.498307 
L 366.881914 120.230979 
L 366.83158 119.464567 
L 366.798354 118.532952 
L 366.749004 120.634626 
L 366.732686 120.502436 
L 366.60447 115.728984 
L 366.573048 117.214262 
L 366.557428 117.30344 
L 366.464948 118.539122 
L 366.449737 117.274246 
L 366.38944 115.51926 
L 366.344767 116.531087 
L 366.184601 121.226459 
L 366.271288 115.92518 
L 366.170303 121.016702 
L 366.156047 120.827708 
L 366.085372 115.178058 
L 366.043411 116.569851 
L 366.001746 119.621044 
L 365.946619 117.392746 
L 365.905564 115.3601 
L 365.864728 119.024477 
L 365.837613 116.936988 
L 365.824087 117.028747 
L 365.716508 120.993469 
L 365.676423 119.890467 
L 365.663089 119.794962 
L 365.649768 120.279246 
L 365.623162 119.857894 
L 365.596604 122.071241 
L 365.543618 118.304263 
L 365.51718 119.717241 
L 365.503973 119.632903 
L 365.438021 116.995088 
L 365.385299 117.514415 
L 365.358927 114.688681 
L 365.266386 115.771425 
L 365.253116 116.005942 
L 365.239831 115.076158 
L 365.226527 115.359167 
L 365.146233 113.363533 
L 365.119247 114.676968 
L 365.037438 116.670318 
L 365.092126 114.578321 
L 365.023666 115.564029 
L 365.00985 114.627048 
L 364.940081 117.097567 
L 364.88337 119.915026 
L 364.911829 117.083413 
L 364.825819 117.712293 
L 364.72292 113.700175 
L 364.69296 114.971114 
L 364.538919 117.166971 
L 364.662731 113.741653 
L 364.5231 116.465293 
L 364.507203 115.362741 
L 364.442814 117.779304 
L 364.426514 116.524464 
L 364.41013 116.679804 
L 364.258893 122.050137 
L 364.189493 122.297647 
L 364.171937 120.765211 
L 364.064906 125.568971 
L 364.046793 124.61706 
L 363.936544 122.069832 
L 363.973587 125.423275 
L 363.917914 122.377042 
L 363.899214 125.3035 
L 363.823723 122.69754 
L 363.571077 118.637572 
L 363.551196 119.474372 
L 363.531252 116.996318 
L 363.45085 119.281315 
L 363.430594 119.168502 
L 363.410276 118.12159 
L 363.369458 119.456061 
L 363.328396 119.174164 
L 363.307776 118.981007 
L 363.16183 126.459294 
L 363.013386 120.371022 
L 363.119653 127.158073 
L 362.970569 122.545573 
L 362.797717 120.106649 
L 362.688537 125.414361 
L 362.644652 121.905465 
L 362.578621 119.69617 
L 362.512367 120.460214 
L 362.468086 118.208844 
L 362.379281 123.601952 
L 362.245591 119.662233 
L 362.223266 121.110287 
L 362.200931 118.984679 
L 362.178587 119.794949 
L 362.044347 116.733832 
L 361.999544 116.723095 
L 361.909869 117.708701 
L 361.932296 116.220943 
L 361.887437 116.802055 
L 361.864999 116.785933 
L 361.797657 114.563428 
L 361.730265 115.023482 
L 361.685308 116.430525 
L 361.617829 115.391886 
L 361.595325 115.48794 
L 361.460175 117.25743 
L 361.437631 117.186522 
L 361.369974 119.222808 
L 361.324854 118.883713 
L 361.302291 116.362059 
L 361.212025 117.251314 
L 361.166886 117.253557 
L 361.099174 116.372851 
L 361.076604 118.762632 
L 360.986334 118.26524 
L 360.941212 115.900931 
L 360.873548 117.373074 
L 360.828454 115.816661 
L 360.760841 118.246349 
L 360.738311 117.198747 
L 360.715786 119.673767 
L 360.670754 118.185257 
L 360.603256 120.3689 
L 360.625748 117.829794 
L 360.535835 119.491601 
L 360.49094 118.0335 
L 360.468509 118.855203 
L 360.446091 120.402888 
L 360.401294 117.169747 
L 360.378916 117.072883 
L 360.267243 115.447908 
L 360.089383 123.654224 
L 360.045114 120.248732 
L 359.978886 116.429838 
L 359.912876 117.215672 
L 359.825207 114.999539 
L 359.781518 115.976732 
L 359.737924 116.107455 
L 359.694425 119.13414 
L 359.629359 116.316194 
L 359.607718 116.273871 
L 359.478394 118.375297 
L 359.34998 115.427672 
L 359.328668 115.455467 
L 359.28612 115.502245 
L 359.137958 113.841441 
L 359.095825 115.271515 
L 359.032778 113.873739 
L 358.969897 114.924684 
L 358.782194 122.562303 
L 358.740693 118.328523 
L 358.637328 118.428883 
L 358.575592 117.097278 
L 358.452754 114.554753 
L 358.391626 114.959502 
L 358.33067 113.2557 
L 358.269864 114.517093 
L 358.229401 114.794684 
L 358.148622 112.363451 
L 358.088133 113.022556 
L 358.047838 113.381776 
L 357.987427 118.649155 
L 357.906935 117.830123 
L 357.866713 117.529345 
L 357.726025 112.730832 
L 357.705927 112.99421 
L 357.665719 111.747604 
L 357.625487 114.165669 
L 357.585222 112.218251 
L 357.565073 111.829435 
L 357.504549 112.555677 
L 357.281277 119.903509 
L 357.178993 113.652396 
L 357.137933 114.67594 
L 356.931079 109.845999 
L 356.910218 111.874641 
L 356.805299 111.585637 
L 356.741798 113.547886 
L 356.677847 112.115489 
L 356.63495 111.537033 
L 356.613419 112.494854 
L 356.570186 112.157992 
L 356.46107 116.217386 
L 356.394876 113.845931 
L 356.372689 113.920863 
L 356.350441 116.242338 
L 356.260823 115.466935 
L 356.238262 115.39551 
L 356.101587 118.632929 
L 356.009251 116.566956 
L 355.986018 117.385839 
L 355.962726 118.934941 
L 355.939376 115.928417 
L 355.915967 116.766238 
L 355.868977 113.065762 
L 355.821751 115.339945 
L 355.79805 116.849095 
L 355.726599 116.481491 
L 355.702665 114.071123 
L 355.630517 115.54496 
L 355.509113 117.650001 
L 355.484662 116.40558 
L 355.460155 118.979003 
L 355.410976 118.281243 
L 355.361583 118.365379 
L 355.262176 115.815717 
L 355.237197 114.272762 
L 355.16196 115.688851 
L 355.136781 116.525198 
L 355.111552 116.3997 
L 355.010151 113.806852 
L 354.98468 116.156378 
L 354.907981 115.8935 
L 354.779216 114.66947 
L 354.753325 114.623213 
L 354.72739 117.050629 
L 354.649319 116.5293 
L 354.544627 115.085752 
L 354.518351 115.933382 
L 354.492033 113.553022 
L 354.412838 113.669089 
L 354.333278 114.611128 
L 354.306677 113.77252 
L 354.173069 111.763082 
L 354.092412 114.221896 
L 354.038434 113.467307 
L 354.011382 112.260536 
L 353.957157 113.672006 
L 353.902767 113.703107 
L 353.766072 110.82009 
L 353.738606 111.769882 
L 353.600625 113.649595 
L 353.572898 113.732163 
L 353.545128 112.522626 
L 353.517313 113.995336 
L 353.461555 113.246122 
L 353.43361 113.28446 
L 353.377593 115.672771 
L 353.265058 115.309945 
L 353.236823 115.237182 
L 353.123495 114.088609 
L 353.095069 114.950176 
L 353.066605 113.502323 
L 353.038104 113.581578 
L 352.923733 113.830294 
L 352.89505 113.032442 
L 352.808784 113.138947 
L 352.779958 113.166878 
L 352.722203 115.416126 
L 352.693275 113.010885 
L 352.664313 113.897842 
L 352.519006 110.108495 
L 352.489842 111.063874 
L 352.314129 115.63398 
L 352.284725 114.536495 
L 352.255289 113.038346 
L 352.225821 114.444361 
L 352.166794 116.663711 
L 352.137237 115.389514 
L 352.048401 116.10071 
L 352.018736 113.474154 
L 351.929591 113.401151 
L 351.899827 114.27001 
L 351.87004 113.35835 
L 351.810397 114.208125 
L 351.750665 113.283367 
L 351.720768 114.693938 
L 351.600991 118.008664 
L 351.571007 117.59697 
L 351.541009 114.540503 
L 351.450945 115.422491 
L 351.420904 115.19056 
L 351.300665 116.997086 
L 351.360797 114.792113 
L 351.270593 116.686575 
L 351.120205 112.03084 
L 351.090127 112.928854 
L 351.060048 112.998547 
L 351.02997 112.226325 
L 350.999892 113.627878 
L 350.969816 114.481042 
L 350.909669 113.428939 
L 350.819473 113.272053 
L 350.789416 114.133644 
L 350.759364 112.688916 
L 350.729316 111.94488 
L 350.669237 112.907362 
L 350.639204 112.96673 
L 350.579156 110.988229 
L 350.54914 113.234182 
L 350.489124 111.277967 
L 350.399139 111.594636 
L 350.369154 113.892186 
L 350.279233 113.130372 
L 350.249271 113.990716 
L 350.189367 112.993694 
L 350.159426 113.857043 
L 350.099566 111.685474 
L 350.009834 111.87945 
L 349.950051 112.822299 
L 349.920172 110.783955 
L 349.860434 112.315147 
L 349.830577 112.325899 
L 349.770886 113.212761 
L 349.741053 112.347778 
L 349.711228 112.352094 
L 349.681412 113.228731 
L 349.621806 112.357819 
L 349.592017 112.357658 
L 349.532468 114.600649 
L 349.472963 113.404896 
L 349.413504 113.213039 
L 349.383794 114.062441 
L 349.324413 112.980788 
L 349.294743 113.836058 
L 349.176204 110.474684 
L 349.087443 112.776954 
L 349.057882 111.940564 
L 348.939776 112.003283 
L 348.821897 117.34758 
L 348.792468 116.901384 
L 348.645603 111.848799 
L 348.616288 111.863773 
L 348.499236 116.879988 
L 348.41169 116.458188 
L 348.38256 117.188075 
L 348.237331 114.114916 
L 348.208374 112.511765 
L 348.12168 113.093661 
L 348.092841 113.933667 
L 348.064033 112.87432 
L 348.035256 112.262697 
L 348.006508 112.817751 
L 347.977791 114.238455 
L 347.89183 113.055651 
L 347.863241 113.019138 
L 347.720753 110.12964 
L 347.578967 111.494793 
L 347.550687 111.583279 
L 347.465991 109.947958 
L 347.381495 112.245118 
L 347.353372 111.400976 
L 347.297188 110.272031 
L 347.213053 110.568917 
L 347.157052 112.962206 
L 347.073175 112.820537 
L 346.933703 111.746641 
L 346.878023 111.692845 
L 346.850205 110.368058 
L 346.766831 111.434841 
L 346.711309 111.569093 
L 346.544957 108.267458 
L 346.517249 108.508391 
L 346.489542 108.330559 
L 346.37869 107.698947 
L 346.239937 108.754635 
L 346.295476 107.507413 
L 346.212144 108.310962 
L 346.184332 107.479255 
L 346.156501 108.85206 
L 346.12865 111.054193 
L 346.044963 108.913403 
L 345.933023 109.789208 
L 345.904966 109.207077 
L 345.876877 108.228795 
L 345.820601 109.730336 
L 345.622479 108.234725 
L 345.536942 110.02382 
L 345.508337 109.394236 
L 345.479685 109.52307 
L 345.422232 111.919718 
L 345.306729 111.875153 
L 345.277727 110.980844 
L 345.248673 112.390966 
L 345.219569 112.248344 
L 345.161207 112.000214 
L 345.13195 112.84222 
L 345.102643 111.793408 
L 345.043875 112.552789 
L 345.014415 112.471936 
L 344.836566 107.994435 
L 344.806737 108.937631 
L 344.746906 108.597027 
L 344.686841 110.041848 
L 344.535628 112.57041 
L 344.321332 107.20019 
L 344.19742 109.068735 
L 344.166263 108.500829 
L 344.135032 109.426441 
L 344.103727 109.58383 
L 344.072346 111.060515 
L 344.009359 110.238787 
L 343.914309 110.27717 
L 343.754349 108.317977 
L 343.592385 110.172325 
L 343.559746 108.911723 
L 343.461327 109.219607 
L 343.328926 111.409991 
L 343.295616 111.378269 
L 343.161542 110.37595 
L 343.094006 114.320841 
L 343.026147 112.635169 
L 342.923762 110.744271 
L 342.889477 113.187282 
L 342.820674 111.774192 
L 342.786159 112.596716 
L 342.751568 111.457205 
L 342.612452 107.773674 
L 342.507309 108.161105 
L 342.436823 108.433355 
L 342.330501 109.565388 
L 342.2949 108.84832 
L 342.25922 109.747908 
L 342.115698 110.019653 
L 341.898032 111.720641 
L 341.861483 111.52757 
L 341.824859 112.346747 
L 341.78816 112.176682 
L 341.603559 108.645925 
L 341.566416 108.723566 
L 341.417106 111.108057 
L 341.266635 109.964471 
L 341.153041 111.284732 
L 341.076969 108.351022 
L 340.924009 108.650622 
L 340.692573 115.10938 
L 340.614935 111.460318 
L 340.576031 112.892653 
L 340.537071 112.526285 
L 340.498059 113.296722 
L 340.458994 112.980034 
L 340.262936 109.614727 
L 340.223583 109.567858 
L 340.184184 108.209706 
L 340.10525 109.175893 
L 340.065714 109.744572 
L 340.026135 108.34589 
L 339.946842 109.291529 
L 339.707899 105.775066 
L 339.587803 108.422099 
L 339.426989 105.726158 
L 339.386658 106.029897 
L 339.346274 105.623663 
L 339.305835 105.481906 
L 339.143524 109.066592 
L 339.102809 109.033851 
L 339.062039 107.700716 
L 339.021215 107.782707 
L 338.980337 108.678863 
L 338.939405 107.923525 
L 338.775145 108.128117 
L 338.568629 105.229926 
L 338.527164 106.182437 
L 338.485643 106.433024 
L 338.360739 104.302857 
L 338.318988 105.666842 
L 338.19337 107.467864 
L 338.151375 107.091472 
L 338.10932 106.506308 
L 338.067203 106.656822 
L 337.940484 110.546934 
L 337.855706 110.30319 
L 337.81323 108.738477 
L 337.770697 110.234045 
L 337.728107 110.13091 
L 337.685463 109.101903 
L 337.642765 109.948707 
L 337.471455 112.571858 
L 337.256274 108.644185 
L 337.169915 111.482181 
L 337.12668 110.539617 
L 337.040104 110.245052 
L 336.866552 106.657724 
L 336.736044 107.755717 
L 336.648877 107.913841 
L 336.605245 105.938241 
L 336.561581 106.091995 
L 336.430397 109.854252 
L 336.386608 108.798393 
L 336.342789 108.701894 
L 336.167244 112.529673 
L 336.255068 108.530965 
L 336.07933 111.774466 
L 335.859229 107.841257 
L 335.815162 107.891971 
L 335.726984 107.977174 
L 335.594608 105.007959 
L 335.550453 105.94161 
L 335.506281 105.387131 
L 335.417886 104.67386 
L 335.329418 106.956013 
L 335.285157 106.26178 
L 335.152262 107.332326 
L 335.107927 105.37006 
L 335.063573 106.291261 
L 335.019199 106.444565 
L 334.974805 104.654344 
L 334.930391 105.591091 
L 334.797023 108.623104 
L 334.663474 107.581808 
L 334.618921 108.441619 
L 334.574349 106.198059 
L 334.52976 107.094194 
L 334.485153 108.579994 
L 334.39589 108.47231 
L 334.351234 108.423613 
L 334.306563 107.475681 
L 334.261878 108.334963 
L 334.217179 108.29448 
L 334.038245 105.805421 
L 333.993476 105.202393 
L 333.814249 107.730874 
L 333.589886 105.227651 
L 333.54497 104.677474 
L 333.500038 104.846405 
L 333.275135 108.685128 
L 333.230108 108.580825 
L 333.185066 106.195069 
L 333.09494 107.114089 
L 332.959646 107.195751 
L 332.91452 105.100876 
L 332.824223 105.328189 
L 332.733866 105.515563 
L 332.462436 109.590499 
L 332.371861 108.995405 
L 332.326562 109.787716 
L 332.281255 108.512675 
L 332.235943 109.319615 
L 332.190627 110.863926 
L 332.145308 108.793256 
L 332.054664 107.540444 
L 332.00934 108.375014 
L 331.964017 108.258565 
L 331.873372 107.117604 
L 331.737418 109.396933 
L 331.782733 106.952876 
L 331.692107 109.170327 
L 331.646801 107.413739 
L 331.6015 108.923286 
L 331.556205 109.346141 
L 331.510918 109.025205 
L 331.465639 107.203312 
L 331.375112 107.93773 
L 331.329863 107.841908 
L 331.284625 108.32084 
L 331.2394 108.098032 
L 331.194187 107.344763 
L 331.148988 108.856023 
L 331.103803 107.668135 
L 331.058632 107.504478 
L 331.013477 105.946497 
L 330.968337 108.324985 
L 330.923214 107.212573 
L 330.742879 104.128384 
L 330.562767 107.243077 
L 330.337899 103.862738 
L 330.292957 104.780369 
L 330.248022 103.711778 
L 330.203094 103.933386 
L 330.15817 102.307853 
L 330.068327 102.408537 
L 329.888616 106.749836 
L 329.843679 104.519147 
L 329.753791 104.672086 
L 329.618914 107.11707 
L 329.573941 106.119777 
L 329.528961 106.053085 
L 329.303943 103.626347 
L 329.213865 104.674282 
L 329.123731 101.940482 
L 329.078639 102.892328 
L 329.033526 103.14358 
L 328.898056 106.195619 
L 328.852852 106.180535 
L 328.807625 105.282931 
L 328.671803 109.549047 
L 328.626486 108.452514 
L 328.490415 106.385195 
L 328.399603 109.437715 
L 328.35417 107.987584 
L 328.308719 107.693778 
L 328.263252 108.482662 
L 328.081235 106.059192 
L 328.035695 106.573445 
L 327.944571 104.979485 
L 327.853388 104.830998 
L 327.807775 107.207275 
L 327.625173 106.701257 
L 327.579485 105.148189 
L 327.533783 106.641641 
L 327.488065 106.542774 
L 327.442332 108.063243 
L 327.396585 107.82106 
L 327.350824 106.589979 
L 327.305049 107.403711 
L 327.259261 107.828481 
L 327.213461 110.518139 
L 327.167652 108.788579 
L 327.121833 108.360109 
L 326.984329 106.03321 
L 326.93848 106.860223 
L 326.892623 106.720884 
L 326.846758 105.639195 
L 326.800887 106.476628 
L 326.755007 106.369399 
L 326.663223 102.773212 
L 326.617316 103.68617 
L 326.571396 103.025642 
L 326.525462 103.931602 
L 326.479514 103.234597 
L 326.433548 103.324686 
L 326.387566 104.716414 
L 326.295546 104.26405 
L 326.249505 102.303112 
L 326.203441 102.460527 
L 326.018932 104.01926 
L 325.972736 104.030029 
L 325.880255 102.886444 
L 325.787644 103.888263 
L 325.741286 101.968932 
L 325.694891 102.138363 
L 325.555462 103.347627 
L 325.508898 102.683221 
L 325.415633 102.887951 
L 325.228522 106.940248 
L 324.993548 103.458363 
L 324.85196 104.389142 
L 324.804658 102.294919 
L 324.7573 104.550429 
L 324.709887 106.050164 
L 324.614892 105.789719 
L 324.519669 102.134929 
L 324.471969 103.0448 
L 324.376384 103.273855 
L 324.328495 102.565013 
L 324.280541 102.64849 
L 324.184432 106.455836 
L 324.136278 105.266159 
L 324.088057 106.08574 
L 324.039769 104.950491 
L 323.991415 105.778675 
L 323.942994 105.644671 
L 323.797323 101.969884 
L 323.748626 102.086313 
L 323.699857 102.990445 
L 323.60209 100.871995 
L 323.306861 106.936773 
L 323.158165 105.490926 
L 323.108442 105.942102 
L 323.058642 106.728069 
L 323.008764 106.465983 
L 322.858672 104.824779 
L 322.808489 105.643706 
L 322.707895 104.369625 
L 322.607 108.424921 
L 322.455105 104.737856 
L 322.404328 107.275601 
L 322.35348 105.840203 
L 322.20051 103.815396 
L 322.149376 104.657537 
L 322.046894 102.219882 
L 321.944117 102.305796 
L 321.841036 102.371916 
L 321.737644 104.743943 
L 321.68583 103.691096 
L 321.633938 103.594771 
L 321.581966 104.437361 
L 321.529916 104.350378 
L 321.477785 104.269775 
L 321.425574 101.940336 
L 321.373281 101.991137 
L 321.320906 102.875513 
L 321.268447 102.075762 
L 321.215903 102.110478 
L 321.057758 104.252437 
L 320.898836 103.0911 
L 320.739125 101.796746 
L 320.685707 101.839325 
L 320.578593 101.909337 
L 320.524897 104.248109 
L 320.471106 104.144124 
L 320.309168 102.953347 
L 320.254999 103.800538 
L 320.200735 102.310108 
L 320.146373 102.367769 
L 320.091915 102.927305 
L 320.037358 102.849971 
L 319.982704 105.286424 
L 319.927953 105.061995 
L 319.81816 104.673184 
L 319.597403 100.546052 
L 319.486413 100.891726 
L 319.430758 100.271004 
L 319.374993 100.400235 
L 319.263131 100.624273 
L 319.094471 98.86622 
L 319.038009 99.092087 
L 318.867866 101.579187 
L 318.810893 100.839662 
L 318.753789 100.905392 
L 318.696552 100.96399 
L 318.639182 103.277159 
L 318.581679 102.283308 
L 318.466271 102.153481 
L 318.408365 100.772281 
L 318.350324 100.831772 
L 318.292146 100.88459 
L 318.175373 99.847164 
L 317.999145 100.992075 
L 317.8216 99.256892 
L 317.642692 100.480634 
L 317.522638 100.733074 
L 317.462372 98.871463 
L 317.401944 99.054341 
L 317.34135 99.22183 
L 317.219661 98.475215 
L 317.158559 99.407404 
L 317.097283 98.869972 
L 317.035831 99.043171 
L 316.974202 101.251026 
L 316.912393 100.46554 
L 316.788238 101.385286 
L 316.725888 99.334039 
L 316.663356 100.241601 
L 316.2204 100.891094 
L 316.15636 100.118636 
L 316.092129 100.165806 
L 316.027704 101.046189 
L 315.963085 100.242951 
L 315.898272 101.119997 
L 315.833264 100.300101 
L 315.768061 101.174309 
L 315.702662 100.340344 
L 315.637066 100.354964 
L 315.372716 100.383323 
L 315.239356 101.250593 
L 315.172378 101.248558 
L 315.105203 100.374243 
L 315.03783 101.238945 
L 314.970258 101.231667 
L 314.902487 100.349569 
L 314.834518 101.212832 
L 314.766351 100.326575 
L 314.697985 101.189046 
L 314.629419 99.81752 
L 314.353173 104.140852 
L 314.213876 102.499631 
L 314.143941 103.291048 
L 314.073816 103.05966 
L 314.003503 102.849232 
L 313.933003 101.667695 
L 313.862318 102.482063 
L 313.720395 101.212568 
L 313.434388 106.533193 
L 313.14564 101.784628 
L 313.073044 103.202763 
L 313.000288 102.244832 
L 312.854306 104.104453 
L 312.781084 103.637299 
L 312.707714 106.409406 
L 312.634199 105.760756 
L 312.41281 101.594095 
L 312.338739 102.3932 
L 312.264534 102.188286 
L 312.190195 99.591535 
L 312.115722 100.447665 
L 312.041117 99.53425 
L 311.966379 100.39045 
L 311.891508 98.189304 
L 311.816504 99.079624 
L 311.741365 99.158225 
L 311.439451 97.108234 
L 311.363624 97.327624 
L 311.287654 96.79521 
L 311.211539 96.968807 
L 311.135277 97.882741 
L 311.058868 97.27153 
L 310.905603 98.661741 
L 310.751741 98.684075 
L 310.674587 97.434578 
L 310.597282 97.54208 
L 310.519825 98.436597 
L 310.286535 96.360218 
L 310.208458 96.603744 
L 309.973256 97.22314 
L 309.894525 97.85026 
L 309.815627 96.688297 
L 309.736561 97.59651 
L 309.577915 95.620954 
L 309.498329 95.898145 
L 309.418564 95.070735 
L 309.338617 96.492743 
L 309.258484 95.975455 
L 308.855028 101.13813 
L 308.773781 98.508228 
L 308.692351 100.894423 
L 308.61074 100.711012 
L 308.528949 102.232961 
L 308.446982 100.832805 
L 308.36484 101.609471 
L 308.117384 98.544445 
L 308.034559 99.387684 
L 307.868402 98.362547 
L 307.61791 98.20387 
L 307.450086 99.548466 
L 307.197128 99.048793 
L 307.11249 101.533104 
L 306.85765 99.116958 
L 306.772398 99.041145 
L 306.686996 97.560292 
L 306.601442 97.614839 
L 306.515735 96.829488 
L 306.429877 96.86633 
L 306.257703 99.081921 
L 306.084928 97.984562 
L 305.998318 100.404884 
L 305.911561 100.17567 
L 305.824659 98.969501 
L 305.737615 99.7752 
L 305.300276 95.424171 
L 305.212379 94.453164 
L 305.124335 95.883985 
L 305.03614 95.259342 
L 304.947794 95.381251 
L 304.859295 95.491128 
L 304.592883 100.741587 
L 304.50378 100.425795 
L 304.41453 100.14024 
L 304.145925 96.987974 
L 304.056108 96.938749 
L 303.96615 95.589436 
L 303.785812 97.810025 
L 303.695431 96.363475 
L 303.604908 96.429894 
L 303.423437 97.827989 
L 303.33249 97.759737 
L 303.241401 96.790443 
L 303.150174 99.190022 
L 303.058808 98.982663 
L 302.967305 97.808883 
L 302.875667 98.618382 
L 302.783895 98.457874 
L 302.691991 98.309764 
L 302.507785 96.584913 
L 302.415486 97.116638 
L 302.137796 95.657869 
L 301.952007 96.525008 
L 301.858912 96.526425 
L 301.57882 94.383652 
L 301.391408 94.563437 
L 301.297494 96.829283 
L 301.109242 94.662442 
L 301.014903 94.721479 
L 300.92042 96.098187 
L 300.825794 96.027173 
L 300.731024 96.866345 
L 300.445858 94.463833 
L 300.350515 94.520033 
L 300.159388 95.441961 
L 300.063603 94.646359 
L 299.967668 96.954863 
L 299.871586 96.85554 
L 299.775355 96.762297 
L 299.678975 94.423426 
L 299.582446 96.724361 
L 299.485768 95.714387 
L 299.291967 97.024723 
L 299.194846 96.81053 
L 299.09758 97.608719 
L 299.00017 96.434113 
L 298.804924 98.598905 
L 298.609126 96.984862 
L 298.511024 97.770837 
L 298.215916 94.370137 
L 298.117277 94.442169 
L 297.919582 92.528001 
L 297.820521 92.667632 
L 297.621962 94.045121 
L 297.32301 94.058641 
L 297.223057 92.800289 
L 297.122949 93.690185 
L 296.922254 91.98625 
L 296.720899 94.339683 
L 296.619968 93.530719 
L 296.41759 94.416695 
L 296.31614 92.340073 
L 296.112702 93.339815 
L 296.010708 92.196702 
L 295.806158 95.099881 
L 295.600849 94.077019 
L 295.497908 94.917564 
L 295.394776 94.861078 
L 295.291452 95.351537 
L 295.084228 92.409293 
L 294.980324 94.673384 
L 294.771927 93.681213 
L 294.667433 93.633501 
L 294.562741 95.018806 
L 294.457851 94.839116 
L 294.247483 96.072166 
L 294.036334 94.129625 
L 293.930467 94.952162 
L 293.824405 94.842005 
L 293.718147 92.469237 
L 293.611689 92.494451 
L 293.505032 94.805289 
L 293.291117 93.665638 
L 293.183858 93.572072 
L 293.076398 94.96166 
L 292.968738 94.735731 
L 292.860879 95.528008 
L 292.752821 94.338384 
L 292.644566 96.840777 
L 292.536115 93.871214 
L 292.427467 96.335742 
L 292.318626 96.035503 
L 292.100361 93.155638 
L 291.990935 93.070455 
L 291.881314 93.90194 
L 291.661473 91.631403 
L 291.551249 92.498845 
L 291.440818 90.470304 
L 291.330175 90.592324 
L 291.108236 89.7389 
L 290.996929 89.907627 
L 290.77362 91.307266 
L 290.097928 91.435856 
L 289.984444 91.440416 
L 289.642463 93.632069 
L 289.413189 91.095095 
L 289.298161 91.954633 
L 289.182868 89.874824 
L 289.067307 92.096409 
L 288.951474 91.226795 
L 288.835368 91.214442 
L 288.602322 90.024801 
L 288.485375 92.272725 
L 288.368142 91.348435 
L 288.132812 92.686862 
L 288.014715 95.180155 
L 287.896331 94.837509 
L 287.777662 91.960374 
L 287.658706 94.396051 
L 287.539465 93.093169 
L 287.419939 93.87419 
L 287.300129 93.646139 
L 287.180035 94.043146 
L 287.05966 93.696185 
L 286.939005 94.451602 
L 286.696859 92.836052 
L 286.575369 93.615328 
L 286.453602 93.383346 
L 286.331557 92.178514 
L 285.963764 94.800969 
L 285.84062 97.605479 
L 285.593539 94.314404 
L 285.469605 93.973213 
L 285.345411 92.612051 
L 285.220958 95.192394 
L 285.096248 93.597238 
L 284.971285 95.017803 
L 284.846073 94.469638 
L 284.594904 92.042358 
L 284.468948 92.822287 
L 284.216302 95.890002 
L 283.962695 94.796389 
L 283.835538 93.193326 
L 283.708148 93.925433 
L 283.580526 93.554487 
L 283.452674 92.151703 
L 283.324592 94.751009 
L 283.196283 91.46855 
L 283.067746 92.250486 
L 282.680761 89.263512 
L 282.551301 90.104879 
L 282.291659 87.987817 
L 281.90031 88.147804 
L 281.769337 89.011171 
L 281.506575 87.779603 
L 281.374775 89.218204 
L 280.977641 89.223372 
L 280.84467 87.107899 
L 280.711393 88.464478 
L 280.577807 88.439298 
L 280.443907 89.281868 
L 280.04026 85.762703 
L 279.905033 85.998286 
L 279.633507 87.99694 
L 279.497199 88.841864 
L 279.36052 86.697172 
L 279.223463 87.573018 
L 279.086022 86.850993 
L 278.809968 89.041551 
L 278.671348 88.094727 
L 278.253065 87.927447 
L 278.112817 88.75991 
L 277.689556 88.597066 
L 277.547615 87.657666 
L 277.405241 88.490145 
L 277.26243 88.437051 
L 276.975469 86.266646 
L 276.686682 86.354711 
L 276.541589 88.627478 
L 276.396026 89.08935 
L 276.249992 88.862616 
L 276.103484 89.645097 
L 275.956501 88.459431 
L 275.661108 90.590527 
L 275.512698 90.273173 
L 275.363814 90.618841 
L 275.214456 90.190084 
L 275.064624 89.199725 
L 274.76353 88.819546 
L 274.612263 86.302666 
L 274.308259 86.24803 
L 274.155512 84.95115 
L 274.002257 85.024035 
L 273.539377 87.265173 
L 273.384028 86.30694 
L 273.228143 86.241866 
L 273.071717 87.067538 
L 272.440509 86.814925 
L 272.121529 85.317647 
L 271.961174 86.759244 
L 271.800233 85.302793 
L 271.638701 86.745625 
L 271.476573 86.664362 
L 271.150504 84.306972 
L 270.986549 84.344554 
L 270.821973 85.696927 
L 270.490934 85.514495 
L 269.821123 83.063992 
L 269.652004 82.023158 
L 269.140453 82.490072 
L 268.968497 81.499258 
L 268.795799 81.298084 
L 268.622341 80.890184 
L 268.448109 81.801824 
L 268.097252 79.561811 
L 267.92059 80.496095 
L 267.743081 80.141718 
L 267.564709 80.397016 
L 267.385456 81.309703 
L 267.205307 80.843337 
L 267.024246 79.990771 
L 266.842257 80.23837 
L 266.475429 82.54562 
L 266.290563 81.465555 
L 266.104711 81.653173 
L 265.91786 81.092082 
L 265.729996 81.973995 
L 265.541107 81.35703 
L 265.351182 82.229003 
L 264.968173 81.214488 
L 264.775061 79.58206 
L 264.385551 81.772385 
L 264.189128 81.120169 
L 263.991578 81.984089 
L 263.79289 81.286673 
L 263.593052 82.142426 
L 263.392055 82.203737 
L 263.189889 81.449293 
L 262.986543 81.483357 
L 262.782007 81.057782 
L 262.57627 81.637249 
L 262.369321 80.416868 
L 262.161146 80.082991 
L 261.951728 79.140807 
L 261.74105 79.377944 
L 261.529094 78.899876 
L 261.315844 79.788546 
L 261.101284 79.24438 
L 260.885401 80.121154 
L 260.668178 79.517884 
L 260.449605 80.383976 
L 260.008348 79.385107 
L 259.785634 77.766056 
L 259.561506 79.81134 
L 259.335949 78.081805 
L 258.419097 78.697716 
L 258.186155 80.835674 
L 257.715702 77.766557 
L 257.478161 77.927286 
L 256.99838 81.442697 
L 256.756125 81.358433 
L 256.512286 82.795177 
L 256.019842 80.861686 
L 255.771227 81.325586 
L 255.521012 82.087872 
L 255.26919 79.564814 
L 255.015753 80.371189 
L 254.760691 78.981219 
L 254.503991 78.242302 
L 254.245641 79.074429 
L 253.98563 79.104233 
L 253.723946 78.312079 
L 253.46058 79.629613 
L 252.928764 78.198661 
L 252.660294 78.188049 
L 252.390102 79.50578 
L 251.569143 79.090941 
L 251.013135 82.898892 
L 250.732516 79.768478 
L 250.450149 78.14162 
L 250.166024 78.93118 
L 249.592466 78.76009 
L 249.303012 76.519888 
L 248.718707 79.144631 
L 248.423847 81.578698 
L 248.127182 80.09852 
L 247.828713 80.800017 
L 247.528441 81.091444 
L 247.22637 81.750146 
L 246.922504 83.245423 
L 246.61685 81.352242 
L 246.309416 82.725204 
L 246.00021 83.301606 
L 245.689239 81.331094 
L 245.37651 80.740446 
L 245.062027 81.38062 
L 244.745793 79.720524 
L 244.427809 79.276306 
L 244.108075 79.955302 
L 243.786592 79.556612 
L 243.463353 76.638403 
L 243.138348 75.1118 
L 242.811563 75.05801 
L 242.482985 77.295803 
L 242.152609 77.67412 
L 241.820431 78.376168 
L 241.486446 77.042818 
L 241.150653 78.369604 
L 240.813051 79.03487 
L 240.132412 78.212258 
L 239.78937 76.805751 
L 239.097813 76.176551 
L 238.749282 75.345376 
L 238.398903 75.752703 
L 238.046671 77.070876 
L 237.692582 76.652216 
L 237.336632 77.329245 
L 236.978817 76.949886 
L 236.619129 75.56793 
L 236.257558 74.699264 
L 235.894089 74.539163 
L 235.528709 74.932075 
L 235.161407 74.64086 
L 234.79217 72.942772 
L 234.420979 72.813211 
L 234.047815 73.567179 
L 233.295487 73.305268 
L 232.916284 72.289774 
L 232.535026 72.157513 
L 232.151692 72.908214 
L 231.766261 72.774669 
L 231.37871 71.757071 
L 230.989021 74.027028 
L 230.597178 73.749892 
L 230.203165 72.520855 
L 229.806965 72.27642 
L 229.408563 74.639337 
L 229.007947 74.241692 
L 228.6051 71.356742 
L 228.199996 69.833831 
L 227.792603 70.598696 
L 227.382884 69.226722 
L 226.9708 69.253076 
L 226.556304 68.051345 
L 226.139354 69.379049 
L 225.297933 69.324843 
L 224.873384 68.46661 
L 224.446225 69.230567 
L 224.016412 67.888064 
L 223.583897 67.15725 
L 223.148633 67.166597 
L 222.710573 67.944558 
L 221.37915 67.882737 
L 220.929441 67.02896 
L 220.476704 67.78637 
L 220.020893 67.723743 
L 219.561957 66.36935 
L 219.09984 65.627198 
L 218.634485 65.625632 
L 218.165837 66.392999 
L 217.69384 66.373233 
L 217.218439 65.543289 
L 216.73958 66.2972 
L 216.257213 66.73388 
L 215.771295 67.445064 
L 215.281787 67.805433 
L 214.78866 69.075425 
L 214.291884 67.0544 
L 213.791421 66.774953 
L 213.28723 67.454274 
L 212.779264 64.874425 
L 212.267467 65.594988 
L 211.751782 64.603562 
L 211.232144 63.988569 
L 210.708483 63.953291 
L 210.180736 65.26456 
L 209.648841 64.212619 
L 209.112735 62.755719 
L 208.572343 63.488867 
L 208.027592 62.602985 
L 207.478407 62.511166 
L 206.924714 63.231786 
L 205.803458 60.644452 
L 205.235702 61.136553 
L 204.663073 61.865987 
L 204.085492 62.28395 
L 203.50289 64.478765 
L 202.915202 61.781957 
L 202.32236 62.996703 
L 201.7243 63.639555 
L 201.120965 64.97636 
L 200.512303 63.453492 
L 199.89826 64.057175 
L 198.023236 62.841463 
L 197.387034 60.951619 
L 196.745094 59.852151 
L 196.097322 59.631989 
L 195.443614 58.124707 
L 194.783854 58.008989 
L 194.117932 59.188181 
L 193.445749 59.834851 
L 192.767203 59.583832 
L 192.082188 58.438505 
L 191.390599 58.187256 
L 189.987316 60.567792 
L 189.275465 61.114271 
L 188.556701 59.520583 
L 187.098091 58.57481 
L 186.358055 59.14484 
L 185.610729 58.705452 
L 184.855991 56.753582 
L 184.093691 54.308436 
L 182.545733 53.979821 
L 181.759717 52.595094 
L 180.965412 52.500482 
L 180.162615 53.159661 
L 178.530719 52.908238 
L 177.701203 51.965269 
L 175.155845 51.420369 
L 174.287714 50.762594 
L 172.520354 48.324727 
L 171.620479 47.291013 
L 170.709337 47.347437 
L 169.786571 46.719699 
L 168.851844 47.782228 
L 167.904821 46.57544 
L 166.945131 46.133391 
L 165.972383 45.481275 
L 164.986184 45.446747 
L 163.986143 46.07593 
L 162.971868 45.302413 
L 161.942966 45.19442 
L 160.899022 43.988833 
L 157.672531 43.687949 
L 156.563995 43.539442 
L 155.438192 44.105079 
L 154.294688 44.374466 
L 151.952921 43.742734 
L 150.753785 42.948055 
L 149.535166 42.707731 
L 148.296527 41.238676 
L 147.037263 39.25049 
L 145.756726 39.787255 
L 144.454284 40.806184 
L 143.129333 39.760862 
L 141.781263 40.233143 
L 140.409451 39.915488 
L 139.013288 40.058706 
L 137.592187 40.462661 
L 136.145515 38.625436 
L 134.672601 39.619718 
L 133.17283 39.646915 
L 131.645612 38.994919 
L 130.09029 36.949128 
L 128.506122 37.300336 
L 126.892363 38.269475 
L 125.248292 36.630305 
L 123.57315 35.960109 
L 121.866092 33.917478 
L 120.126206 34.742736 
L 118.352593 34.996908 
L 116.544312 33.361398 
L 114.700366 33.59687 
L 110.901185 32.176471 
L 108.94364 30.536155 
L 104.906337 29.076219 
L 102.823823 29.241773 
L 98.523525 27.7125 
L 96.302438 26.025585 
L 94.03168 25.230624 
L 91.709323 25.321057 
L 89.333226 23.102401 
L 86.900954 21.559102 
L 84.409911 20.802895 
L 81.857246 19.562025 
L 79.239757 18.091247 
L 76.553918 16.913251 
L 73.795909 16.664162 
L 73.795909 16.664162 
" clip-path="url(#p40deac9366)" style="fill: none; stroke: #1f77b4; stroke-width: 1.5; stroke-linecap: square"/>
   </g>
   <g id="line2d_48">
    <path d="M 387.514091 125.987377 
L 73.795909 17.607836 
L 73.795909 17.607836 
" clip-path="url(#p40deac9366)" style="fill: none; stroke: #ff7f0e; stroke-width: 1.5; stroke-linecap: square"/>
   </g>
   <g id="patch_3">
    <path d="M 58.11 139.811562 
L 58.11 10.8 
" style="fill: none; stroke: #000000; stroke-width: 0.8; stroke-linejoin: miter; stroke-linecap: square"/>
   </g>
   <g id="patch_4">
    <path d="M 403.2 139.811562 
L 403.2 10.8 
" style="fill: none; stroke: #000000; stroke-width: 0.8; stroke-linejoin: miter; stroke-linecap: square"/>
   </g>
   <g id="patch_5">
    <path d="M 58.11 139.811563 
L 403.2 139.811563 
" style="fill: none; stroke: #000000; stroke-width: 0.8; stroke-linejoin: miter; stroke-linecap: square"/>
   </g>
   <g id="patch_6">
    <path d="M 58.11 10.8 
L 403.2 10.8 
" style="fill: none; stroke: #000000; stroke-width: 0.8; stroke-linejoin: miter; stroke-linecap: square"/>
   </g>
   <g id="legend_1">
    <g id="patch_7">
     <path d="M 314.87625 44.420625 
L 396.9 44.420625 
Q 398.7 44.420625 398.7 42.620625 
L 398.7 17.1 
Q 398.7 15.3 396.9 15.3 
L 314.87625 15.3 
Q 313.07625 15.3 313.07625 17.1 
L 313.07625 42.620625 
Q 313.07625 44.420625 314.87625 44.420625 
z
" style="fill: #ffffff; opacity: 0.8; stroke: #cccccc; stroke-linejoin: miter"/>
    </g>
    <g id="line2d_49">
     <path d="M 316.67625 22.588594 
L 325.67625 22.588594 
L 334.67625 22.588594 
" style="fill: none; stroke: #1f77b4; stroke-width: 1.5; stroke-linecap: square"/>
    </g>
    <g id="text_15">
     <!-- Stochastic -->
     <g transform="translate(341.87625 25.738594) scale(0.09 -0.09)">
      <defs>
       <path id="DejaVuSans-53" d="M 3425 4513 
L 3425 3897 
Q 3066 4069 2747 4153 
Q 2428 4238 2131 4238 
Q 1616 4238 1336 4038 
Q 1056 3838 1056 3469 
Q 1056 3159 1242 3001 
Q 1428 2844 1947 2747 
L 2328 2669 
Q 3034 2534 3370 2195 
Q 3706 1856 3706 1288 
Q 3706 609 3251 259 
Q 2797 -91 1919 -91 
Q 1588 -91 1214 -16 
Q 841 59 441 206 
L 441 856 
Q 825 641 1194 531 
Q 1563 422 1919 422 
Q 2459 422 2753 634 
Q 3047 847 3047 1241 
Q 3047 1584 2836 1778 
Q 2625 1972 2144 2069 
L 1759 2144 
Q 1053 2284 737 2584 
Q 422 2884 422 3419 
Q 422 4038 858 4394 
Q 1294 4750 2059 4750 
Q 2388 4750 2728 4690 
Q 3069 4631 3425 4513 
z
" transform="scale(0.015625)"/>
       <path id="DejaVuSans-6f" d="M 1959 3097 
Q 1497 3097 1228 2736 
Q 959 2375 959 1747 
Q 959 1119 1226 758 
Q 1494 397 1959 397 
Q 2419 397 2687 759 
Q 2956 1122 2956 1747 
Q 2956 2369 2687 2733 
Q 2419 3097 1959 3097 
z
M 1959 3584 
Q 2709 3584 3137 3096 
Q 3566 2609 3566 1747 
Q 3566 888 3137 398 
Q 2709 -91 1959 -91 
Q 1206 -91 779 398 
Q 353 888 353 1747 
Q 353 2609 779 3096 
Q 1206 3584 1959 3584 
z
" transform="scale(0.015625)"/>
       <path id="DejaVuSans-63" d="M 3122 3366 
L 3122 2828 
Q 2878 2963 2633 3030 
Q 2388 3097 2138 3097 
Q 1578 3097 1268 2742 
Q 959 2388 959 1747 
Q 959 1106 1268 751 
Q 1578 397 2138 397 
Q 2388 397 2633 464 
Q 2878 531 3122 666 
L 3122 134 
Q 2881 22 2623 -34 
Q 2366 -91 2075 -91 
Q 1284 -91 818 406 
Q 353 903 353 1747 
Q 353 2603 823 3093 
Q 1294 3584 2113 3584 
Q 2378 3584 2631 3529 
Q 2884 3475 3122 3366 
z
" transform="scale(0.015625)"/>
       <path id="DejaVuSans-68" d="M 3513 2113 
L 3513 0 
L 2938 0 
L 2938 2094 
Q 2938 2591 2744 2837 
Q 2550 3084 2163 3084 
Q 1697 3084 1428 2787 
Q 1159 2491 1159 1978 
L 1159 0 
L 581 0 
L 581 4863 
L 1159 4863 
L 1159 2956 
Q 1366 3272 1645 3428 
Q 1925 3584 2291 3584 
Q 2894 3584 3203 3211 
Q 3513 2838 3513 2113 
z
" transform="scale(0.015625)"/>
       <path id="DejaVuSans-61" d="M 2194 1759 
Q 1497 1759 1228 1600 
Q 959 1441 959 1056 
Q 959 750 1161 570 
Q 1363 391 1709 391 
Q 2188 391 2477 730 
Q 2766 1069 2766 1631 
L 2766 1759 
L 2194 1759 
z
M 3341 1997 
L 3341 0 
L 2766 0 
L 2766 531 
Q 2569 213 2275 61 
Q 1981 -91 1556 -91 
Q 1019 -91 701 211 
Q 384 513 384 1019 
Q 384 1609 779 1909 
Q 1175 2209 1959 2209 
L 2766 2209 
L 2766 2266 
Q 2766 2663 2505 2880 
Q 2244 3097 1772 3097 
Q 1472 3097 1187 3025 
Q 903 2953 641 2809 
L 641 3341 
Q 956 3463 1253 3523 
Q 1550 3584 1831 3584 
Q 2591 3584 2966 3190 
Q 3341 2797 3341 1997 
z
" transform="scale(0.015625)"/>
       <path id="DejaVuSans-73" d="M 2834 3397 
L 2834 2853 
Q 2591 2978 2328 3040 
Q 2066 3103 1784 3103 
Q 1356 3103 1142 2972 
Q 928 2841 928 2578 
Q 928 2378 1081 2264 
Q 1234 2150 1697 2047 
L 1894 2003 
Q 2506 1872 2764 1633 
Q 3022 1394 3022 966 
Q 3022 478 2636 193 
Q 2250 -91 1575 -91 
Q 1294 -91 989 -36 
Q 684 19 347 128 
L 347 722 
Q 666 556 975 473 
Q 1284 391 1588 391 
Q 1994 391 2212 530 
Q 2431 669 2431 922 
Q 2431 1156 2273 1281 
Q 2116 1406 1581 1522 
L 1381 1569 
Q 847 1681 609 1914 
Q 372 2147 372 2553 
Q 372 3047 722 3315 
Q 1072 3584 1716 3584 
Q 2034 3584 2315 3537 
Q 2597 3491 2834 3397 
z
" transform="scale(0.015625)"/>
      </defs>
      <use xlink:href="#DejaVuSans-53"/>
      <use xlink:href="#DejaVuSans-74" transform="translate(63.476562 0)"/>
      <use xlink:href="#DejaVuSans-6f" transform="translate(102.685547 0)"/>
      <use xlink:href="#DejaVuSans-63" transform="translate(163.867188 0)"/>
      <use xlink:href="#DejaVuSans-68" transform="translate(218.847656 0)"/>
      <use xlink:href="#DejaVuSans-61" transform="translate(282.226562 0)"/>
      <use xlink:href="#DejaVuSans-73" transform="translate(343.505859 0)"/>
      <use xlink:href="#DejaVuSans-74" transform="translate(395.605469 0)"/>
      <use xlink:href="#DejaVuSans-69" transform="translate(434.814453 0)"/>
      <use xlink:href="#DejaVuSans-63" transform="translate(462.597656 0)"/>
     </g>
    </g>
    <g id="line2d_50">
     <path d="M 316.67625 35.798906 
L 325.67625 35.798906 
L 334.67625 35.798906 
" style="fill: none; stroke: #ff7f0e; stroke-width: 1.5; stroke-linecap: square"/>
    </g>
    <g id="text_16">
     <!-- Exponential -->
     <g transform="translate(341.87625 38.948906) scale(0.09 -0.09)">
      <defs>
       <path id="DejaVuSans-45" d="M 628 4666 
L 3578 4666 
L 3578 4134 
L 1259 4134 
L 1259 2753 
L 3481 2753 
L 3481 2222 
L 1259 2222 
L 1259 531 
L 3634 531 
L 3634 0 
L 628 0 
L 628 4666 
z
" transform="scale(0.015625)"/>
       <path id="DejaVuSans-78" d="M 3513 3500 
L 2247 1797 
L 3578 0 
L 2900 0 
L 1881 1375 
L 863 0 
L 184 0 
L 1544 1831 
L 300 3500 
L 978 3500 
L 1906 2253 
L 2834 3500 
L 3513 3500 
z
" transform="scale(0.015625)"/>
       <path id="DejaVuSans-70" d="M 1159 525 
L 1159 -1331 
L 581 -1331 
L 581 3500 
L 1159 3500 
L 1159 2969 
Q 1341 3281 1617 3432 
Q 1894 3584 2278 3584 
Q 2916 3584 3314 3078 
Q 3713 2572 3713 1747 
Q 3713 922 3314 415 
Q 2916 -91 2278 -91 
Q 1894 -91 1617 61 
Q 1341 213 1159 525 
z
M 3116 1747 
Q 3116 2381 2855 2742 
Q 2594 3103 2138 3103 
Q 1681 3103 1420 2742 
Q 1159 2381 1159 1747 
Q 1159 1113 1420 752 
Q 1681 391 2138 391 
Q 2594 391 2855 752 
Q 3116 1113 3116 1747 
z
" transform="scale(0.015625)"/>
       <path id="DejaVuSans-6e" d="M 3513 2113 
L 3513 0 
L 2938 0 
L 2938 2094 
Q 2938 2591 2744 2837 
Q 2550 3084 2163 3084 
Q 1697 3084 1428 2787 
Q 1159 2491 1159 1978 
L 1159 0 
L 581 0 
L 581 3500 
L 1159 3500 
L 1159 2956 
Q 1366 3272 1645 3428 
Q 1925 3584 2291 3584 
Q 2894 3584 3203 3211 
Q 3513 2838 3513 2113 
z
" transform="scale(0.015625)"/>
      </defs>
      <use xlink:href="#DejaVuSans-45"/>
      <use xlink:href="#DejaVuSans-78" transform="translate(63.183594 0)"/>
      <use xlink:href="#DejaVuSans-70" transform="translate(122.363281 0)"/>
      <use xlink:href="#DejaVuSans-6f" transform="translate(185.839844 0)"/>
      <use xlink:href="#DejaVuSans-6e" transform="translate(247.021484 0)"/>
      <use xlink:href="#DejaVuSans-65" transform="translate(310.400391 0)"/>
      <use xlink:href="#DejaVuSans-6e" transform="translate(371.923828 0)"/>
      <use xlink:href="#DejaVuSans-74" transform="translate(435.302734 0)"/>
      <use xlink:href="#DejaVuSans-69" transform="translate(474.511719 0)"/>
      <use xlink:href="#DejaVuSans-61" transform="translate(502.294922 0)"/>
      <use xlink:href="#DejaVuSans-6c" transform="translate(563.574219 0)"/>
     </g>
    </g>
   </g>
  </g>
 </g>
 <defs>
  <clipPath id="p40deac9366">
   <rect x="58.11" y="10.8" width="345.09" height="129.011562"/>
  </clipPath>
 </defs>
</svg>
