<?xml version="1.0" encoding="utf-8" standalone="no"?>
<!DOCTYPE svg PUBLIC "-//W3C//DTD SVG 1.1//EN"
  "http://www.w3.org/Graphics/SVG/1.1/DTD/svg11.dtd">
<svg xmlns:xlink="http://www.w3.org/1999/xlink" width="414pt" height="180pt" viewBox="0 0 414 180" xmlns="http://www.w3.org/2000/svg" version="1.1">
 <metadata>
  <rdf:RDF xmlns:dc="http://purl.org/dc/elements/1.1/" xmlns:cc="http://creativecommons.org/ns#" xmlns:rdf="http://www.w3.org/1999/02/22-rdf-syntax-ns#">
   <cc:Work>
    <dc:type rdf:resource="http://purl.org/dc/dcmitype/StillImage"/>
    <dc:date>2026-04-28T03:26:14.336293</dc:date>
    <dc:format>image/svg+xml</dc:format>
    <dc:creator>
     <cc:Agent>
      <dc:title>Matplotlib v3.10.7, https://matplotlib.org/</dc:title>
     </cc:Agent>
    </dc:creator>
   </cc:Work>
  </rdf:RDF>
 </metadata>
 <defs>
  <style type="text/css">*{stroke-linejoin: round; stroke-linecap: butt}</style>
 </defs>
 <g id="figure_1">
  <g id="patch_1">
   <path d="M 0 180 
L 414 180 
L 414 0 
L 0 0 
L 0 180 
z
" style="fill: none"/>
  </g>
  <g id="axes_1">
   <g id="patch_2">
    <path d="M 62.946719 139.811563 
L 403.2 139.811563 
L 403.2 10.8 
L 62.946719 10.8 
L 62.946719 139.811563 
z
" style="fill: none"/>
   </g>
   <g id="patch_3">
    <path d="M 233.077708 131.742382 
C 248.043971 131.742382 262.399269 125.796223 272.982016 115.213477 
C 283.564762 104.630731 289.510921 90.275432 289.510921 75.309169 
C 289.510921 60.342906 283.564762 45.987607 272.982016 35.404861 
C 262.399269 24.822115 248.043971 18.875955 233.077708 18.875955 
C 218.111444 18.875955 203.756146 24.822115 193.1734 35.404861 
C 182.590653 45.987607 176.644494 60.342906 176.644494 75.309169 
C 176.644494 90.275432 182.590653 104.630731 193.1734 115.213477 
C 203.756146 125.796223 218.111444 131.742382 233.077708 131.742382 
z
" clip-path="url(#p6c2e4be9e9)" style="fill: #008800; stroke: #008800; stroke-linejoin: miter"/>
   </g>
   <g id="matplotlib.axis_1">
    <g id="xtick_1">
     <g id="line2d_1">
      <defs>
       <path id="m17fecccf3b" d="M 0 0 
L 0 3.5 
" style="stroke: #000000; stroke-width: 0.8"/>
      </defs>
      <g>
       <use xlink:href="#m17fecccf3b" x="100.358975" y="139.811563" style="stroke: #000000; stroke-width: 0.8"/>
      </g>
     </g>
     <g id="text_1">
      <!-- −15000 -->
      <g transform="translate(82.272491 153.650156) scale(0.09 -0.09)">
       <defs>
        <path id="DejaVuSans-2212" d="M 678 2272 
L 4684 2272 
L 4684 1741 
L 678 1741 
L 678 2272 
z
" transform="scale(0.015625)"/>
        <path id="DejaVuSans-31" d="M 794 531 
L 1825 531 
L 1825 4091 
L 703 3866 
L 703 4441 
L 1819 4666 
L 2450 4666 
L 2450 531 
L 3481 531 
L 3481 0 
L 794 0 
L 794 531 
z
" transform="scale(0.015625)"/>
        <path id="DejaVuSans-35" d="M 691 4666 
L 3169 4666 
L 3169 4134 
L 1269 4134 
L 1269 2991 
Q 1406 3038 1543 3061 
Q 1681 3084 1819 3084 
Q 2600 3084 3056 2656 
Q 3513 2228 3513 1497 
Q 3513 744 3044 326 
Q 2575 -91 1722 -91 
Q 1428 -91 1123 -41 
Q 819 9 494 109 
L 494 744 
Q 775 591 1075 516 
Q 1375 441 1709 441 
Q 2250 441 2565 725 
Q 2881 1009 2881 1497 
Q 2881 1984 2565 2268 
Q 2250 2553 1709 2553 
Q 1456 2553 1204 2497 
Q 953 2441 691 2322 
L 691 4666 
z
" transform="scale(0.015625)"/>
        <path id="DejaVuSans-30" d="M 2034 4250 
Q 1547 4250 1301 3770 
Q 1056 3291 1056 2328 
Q 1056 1369 1301 889 
Q 1547 409 2034 409 
Q 2525 409 2770 889 
Q 3016 1369 3016 2328 
Q 3016 3291 2770 3770 
Q 2525 4250 2034 4250 
z
M 2034 4750 
Q 2819 4750 3233 4129 
Q 3647 3509 3647 2328 
Q 3647 1150 3233 529 
Q 2819 -91 2034 -91 
Q 1250 -91 836 529 
Q 422 1150 422 2328 
Q 422 3509 836 4129 
Q 1250 4750 2034 4750 
z
" transform="scale(0.015625)"/>
       </defs>
       <use xlink:href="#DejaVuSans-2212"/>
       <use xlink:href="#DejaVuSans-31" transform="translate(83.789062 0)"/>
       <use xlink:href="#DejaVuSans-35" transform="translate(147.412109 0)"/>
       <use xlink:href="#DejaVuSans-30" transform="translate(211.035156 0)"/>
       <use xlink:href="#DejaVuSans-30" transform="translate(274.658203 0)"/>
       <use xlink:href="#DejaVuSans-30" transform="translate(338.28125 0)"/>
      </g>
     </g>
    </g>
    <g id="xtick_2">
     <g id="line2d_2">
      <g>
       <use xlink:href="#m17fecccf3b" x="144.598553" y="139.811563" style="stroke: #000000; stroke-width: 0.8"/>
      </g>
     </g>
     <g id="text_2">
      <!-- −10000 -->
      <g transform="translate(126.512068 153.650156) scale(0.09 -0.09)">
       <use xlink:href="#DejaVuSans-2212"/>
       <use xlink:href="#DejaVuSans-31" transform="translate(83.789062 0)"/>
       <use xlink:href="#DejaVuSans-30" transform="translate(147.412109 0)"/>
       <use xlink:href="#DejaVuSans-30" transform="translate(211.035156 0)"/>
       <use xlink:href="#DejaVuSans-30" transform="translate(274.658203 0)"/>
       <use xlink:href="#DejaVuSans-30" transform="translate(338.28125 0)"/>
      </g>
     </g>
    </g>
    <g id="xtick_3">
     <g id="line2d_3">
      <g>
       <use xlink:href="#m17fecccf3b" x="188.83813" y="139.811563" style="stroke: #000000; stroke-width: 0.8"/>
      </g>
     </g>
     <g id="text_3">
      <!-- −5000 -->
      <g transform="translate(173.614771 153.650156) scale(0.09 -0.09)">
       <use xlink:href="#DejaVuSans-2212"/>
       <use xlink:href="#DejaVuSans-35" transform="translate(83.789062 0)"/>
       <use xlink:href="#DejaVuSans-30" transform="translate(147.412109 0)"/>
       <use xlink:href="#DejaVuSans-30" transform="translate(211.035156 0)"/>
       <use xlink:href="#DejaVuSans-30" transform="translate(274.658203 0)"/>
      </g>
     </g>
    </g>
    <g id="xtick_4">
     <g id="line2d_4">
      <g>
       <use xlink:href="#m17fecccf3b" x="233.077708" y="139.811563" style="stroke: #000000; stroke-width: 0.8"/>
      </g>
     </g>
     <g id="text_4">
      <!-- 0 -->
      <g transform="translate(230.214583 153.650156) scale(0.09 -0.09)">
       <use xlink:href="#DejaVuSans-30"/>
      </g>
     </g>
    </g>
    <g id="xtick_5">
     <g id="line2d_5">
      <g>
       <use xlink:href="#m17fecccf3b" x="277.317285" y="139.811563" style="stroke: #000000; stroke-width: 0.8"/>
      </g>
     </g>
     <g id="text_5">
      <!-- 5000 -->
      <g transform="translate(265.864785 153.650156) scale(0.09 -0.09)">
       <use xlink:href="#DejaVuSans-35"/>
       <use xlink:href="#DejaVuSans-30" transform="translate(63.623047 0)"/>
       <use xlink:href="#DejaVuSans-30" transform="translate(127.246094 0)"/>
       <use xlink:href="#DejaVuSans-30" transform="translate(190.869141 0)"/>
      </g>
     </g>
    </g>
    <g id="xtick_6">
     <g id="line2d_6">
      <g>
       <use xlink:href="#m17fecccf3b" x="321.556863" y="139.811563" style="stroke: #000000; stroke-width: 0.8"/>
      </g>
     </g>
     <g id="text_6">
      <!-- 10000 -->
      <g transform="translate(307.241238 153.650156) scale(0.09 -0.09)">
       <use xlink:href="#DejaVuSans-31"/>
       <use xlink:href="#DejaVuSans-30" transform="translate(63.623047 0)"/>
       <use xlink:href="#DejaVuSans-30" transform="translate(127.246094 0)"/>
       <use xlink:href="#DejaVuSans-30" transform="translate(190.869141 0)"/>
       <use xlink:href="#DejaVuSans-30" transform="translate(254.492188 0)"/>
      </g>
     </g>
    </g>
    <g id="xtick_7">
     <g id="line2d_7">
      <g>
       <use xlink:href="#m17fecccf3b" x="365.79644" y="139.811563" style="stroke: #000000; stroke-width: 0.8"/>
      </g>
     </g>
     <g id="text_7">
      <!-- 15000 -->
      <g transform="translate(351.480815 153.650156) scale(0.09 -0.09)">
       <use xlink:href="#DejaVuSans-31"/>
       <use xlink:href="#DejaVuSans-35" transform="translate(63.623047 0)"/>
       <use xlink:href="#DejaVuSans-30" transform="translate(127.246094 0)"/>
       <use xlink:href="#DejaVuSans-30" transform="translate(190.869141 0)"/>
       <use xlink:href="#DejaVuSans-30" transform="translate(254.492188 0)"/>
      </g>
     </g>
    </g>
    <g id="text_8">
     <!-- $i_e$ Cord. [km] -->
     <g transform="translate(201.173359 167.120313) scale(0.1 -0.1)">
      <defs>
       <path id="DejaVuSans-Oblique-69" d="M 1172 4863 
L 1747 4863 
L 1606 4134 
L 1031 4134 
L 1172 4863 
z
M 909 3500 
L 1484 3500 
L 800 0 
L 225 0 
L 909 3500 
z
" transform="scale(0.015625)"/>
       <path id="DejaVuSans-Oblique-65" d="M 3078 2063 
Q 3088 2113 3092 2166 
Q 3097 2219 3097 2272 
Q 3097 2653 2873 2875 
Q 2650 3097 2266 3097 
Q 1838 3097 1509 2826 
Q 1181 2556 1013 2059 
L 3078 2063 
z
M 3578 1613 
L 903 1613 
Q 884 1494 878 1425 
Q 872 1356 872 1306 
Q 872 872 1139 634 
Q 1406 397 1894 397 
Q 2269 397 2603 481 
Q 2938 566 3225 728 
L 3116 159 
Q 2806 34 2476 -28 
Q 2147 -91 1806 -91 
Q 1078 -91 686 257 
Q 294 606 294 1247 
Q 294 1794 489 2264 
Q 684 2734 1063 3103 
Q 1306 3334 1642 3459 
Q 1978 3584 2356 3584 
Q 2950 3584 3301 3228 
Q 3653 2872 3653 2272 
Q 3653 2128 3634 1964 
Q 3616 1800 3578 1613 
z
" transform="scale(0.015625)"/>
       <path id="DejaVuSans-20" transform="scale(0.015625)"/>
       <path id="DejaVuSans-43" d="M 4122 4306 
L 4122 3641 
Q 3803 3938 3442 4084 
Q 3081 4231 2675 4231 
Q 1875 4231 1450 3742 
Q 1025 3253 1025 2328 
Q 1025 1406 1450 917 
Q 1875 428 2675 428 
Q 3081 428 3442 575 
Q 3803 722 4122 1019 
L 4122 359 
Q 3791 134 3420 21 
Q 3050 -91 2638 -91 
Q 1578 -91 968 557 
Q 359 1206 359 2328 
Q 359 3453 968 4101 
Q 1578 4750 2638 4750 
Q 3056 4750 3426 4639 
Q 3797 4528 4122 4306 
z
" transform="scale(0.015625)"/>
       <path id="DejaVuSans-6f" d="M 1959 3097 
Q 1497 3097 1228 2736 
Q 959 2375 959 1747 
Q 959 1119 1226 758 
Q 1494 397 1959 397 
Q 2419 397 2687 759 
Q 2956 1122 2956 1747 
Q 2956 2369 2687 2733 
Q 2419 3097 1959 3097 
z
M 1959 3584 
Q 2709 3584 3137 3096 
Q 3566 2609 3566 1747 
Q 3566 888 3137 398 
Q 2709 -91 1959 -91 
Q 1206 -91 779 398 
Q 353 888 353 1747 
Q 353 2609 779 3096 
Q 1206 3584 1959 3584 
z
" transform="scale(0.015625)"/>
       <path id="DejaVuSans-72" d="M 2631 2963 
Q 2534 3019 2420 3045 
Q 2306 3072 2169 3072 
Q 1681 3072 1420 2755 
Q 1159 2438 1159 1844 
L 1159 0 
L 581 0 
L 581 3500 
L 1159 3500 
L 1159 2956 
Q 1341 3275 1631 3429 
Q 1922 3584 2338 3584 
Q 2397 3584 2469 3576 
Q 2541 3569 2628 3553 
L 2631 2963 
z
" transform="scale(0.015625)"/>
       <path id="DejaVuSans-64" d="M 2906 2969 
L 2906 4863 
L 3481 4863 
L 3481 0 
L 2906 0 
L 2906 525 
Q 2725 213 2448 61 
Q 2172 -91 1784 -91 
Q 1150 -91 751 415 
Q 353 922 353 1747 
Q 353 2572 751 3078 
Q 1150 3584 1784 3584 
Q 2172 3584 2448 3432 
Q 2725 3281 2906 2969 
z
M 947 1747 
Q 947 1113 1208 752 
Q 1469 391 1925 391 
Q 2381 391 2643 752 
Q 2906 1113 2906 1747 
Q 2906 2381 2643 2742 
Q 2381 3103 1925 3103 
Q 1469 3103 1208 2742 
Q 947 2381 947 1747 
z
" transform="scale(0.015625)"/>
       <path id="DejaVuSans-2e" d="M 684 794 
L 1344 794 
L 1344 0 
L 684 0 
L 684 794 
z
" transform="scale(0.015625)"/>
       <path id="DejaVuSans-5b" d="M 550 4863 
L 1875 4863 
L 1875 4416 
L 1125 4416 
L 1125 -397 
L 1875 -397 
L 1875 -844 
L 550 -844 
L 550 4863 
z
" transform="scale(0.015625)"/>
       <path id="DejaVuSans-6b" d="M 581 4863 
L 1159 4863 
L 1159 1991 
L 2875 3500 
L 3609 3500 
L 1753 1863 
L 3688 0 
L 2938 0 
L 1159 1709 
L 1159 0 
L 581 0 
L 581 4863 
z
" transform="scale(0.015625)"/>
       <path id="DejaVuSans-6d" d="M 3328 2828 
Q 3544 3216 3844 3400 
Q 4144 3584 4550 3584 
Q 5097 3584 5394 3201 
Q 5691 2819 5691 2113 
L 5691 0 
L 5113 0 
L 5113 2094 
Q 5113 2597 4934 2840 
Q 4756 3084 4391 3084 
Q 3944 3084 3684 2787 
Q 3425 2491 3425 1978 
L 3425 0 
L 2847 0 
L 2847 2094 
Q 2847 2600 2669 2842 
Q 2491 3084 2119 3084 
Q 1678 3084 1418 2786 
Q 1159 2488 1159 1978 
L 1159 0 
L 581 0 
L 581 3500 
L 1159 3500 
L 1159 2956 
Q 1356 3278 1631 3431 
Q 1906 3584 2284 3584 
Q 2666 3584 2933 3390 
Q 3200 3197 3328 2828 
z
" transform="scale(0.015625)"/>
       <path id="DejaVuSans-5d" d="M 1947 4863 
L 1947 -844 
L 622 -844 
L 622 -397 
L 1369 -397 
L 1369 4416 
L 622 4416 
L 622 4863 
L 1947 4863 
z
" transform="scale(0.015625)"/>
      </defs>
      <use xlink:href="#DejaVuSans-Oblique-69" transform="translate(0 0.015625)"/>
      <use xlink:href="#DejaVuSans-Oblique-65" transform="translate(27.783203 -16.390625) scale(0.7)"/>
      <use xlink:href="#DejaVuSans-20" transform="translate(73.583984 0.015625)"/>
      <use xlink:href="#DejaVuSans-43" transform="translate(105.371094 0.015625)"/>
      <use xlink:href="#DejaVuSans-6f" transform="translate(175.195312 0.015625)"/>
      <use xlink:href="#DejaVuSans-72" transform="translate(236.376953 0.015625)"/>
      <use xlink:href="#DejaVuSans-64" transform="translate(277.490234 0.015625)"/>
      <use xlink:href="#DejaVuSans-2e" transform="translate(340.966797 0.015625)"/>
      <use xlink:href="#DejaVuSans-20" transform="translate(372.753906 0.015625)"/>
      <use xlink:href="#DejaVuSans-5b" transform="translate(404.541016 0.015625)"/>
      <use xlink:href="#DejaVuSans-6b" transform="translate(443.554688 0.015625)"/>
      <use xlink:href="#DejaVuSans-6d" transform="translate(501.464844 0.015625)"/>
      <use xlink:href="#DejaVuSans-5d" transform="translate(598.876953 0.015625)"/>
     </g>
    </g>
   </g>
   <g id="matplotlib.axis_2">
    <g id="ytick_1">
     <g id="line2d_8">
      <defs>
       <path id="mbbac3d1f97" d="M 0 0 
L -3.5 0 
" style="stroke: #000000; stroke-width: 0.8"/>
      </defs>
      <g>
       <use xlink:href="#mbbac3d1f97" x="62.946719" y="119.548746" style="stroke: #000000; stroke-width: 0.8"/>
      </g>
     </g>
     <g id="text_9">
      <!-- −5000 -->
      <g transform="translate(25.5 122.968043) scale(0.09 -0.09)">
       <use xlink:href="#DejaVuSans-2212"/>
       <use xlink:href="#DejaVuSans-35" transform="translate(83.789062 0)"/>
       <use xlink:href="#DejaVuSans-30" transform="translate(147.412109 0)"/>
       <use xlink:href="#DejaVuSans-30" transform="translate(211.035156 0)"/>
       <use xlink:href="#DejaVuSans-30" transform="translate(274.658203 0)"/>
      </g>
     </g>
    </g>
    <g id="ytick_2">
     <g id="line2d_9">
      <g>
       <use xlink:href="#mbbac3d1f97" x="62.946719" y="97.428957" style="stroke: #000000; stroke-width: 0.8"/>
      </g>
     </g>
     <g id="text_10">
      <!-- −2500 -->
      <g transform="translate(25.5 100.848254) scale(0.09 -0.09)">
       <defs>
        <path id="DejaVuSans-32" d="M 1228 531 
L 3431 531 
L 3431 0 
L 469 0 
L 469 531 
Q 828 903 1448 1529 
Q 2069 2156 2228 2338 
Q 2531 2678 2651 2914 
Q 2772 3150 2772 3378 
Q 2772 3750 2511 3984 
Q 2250 4219 1831 4219 
Q 1534 4219 1204 4116 
Q 875 4013 500 3803 
L 500 4441 
Q 881 4594 1212 4672 
Q 1544 4750 1819 4750 
Q 2544 4750 2975 4387 
Q 3406 4025 3406 3419 
Q 3406 3131 3298 2873 
Q 3191 2616 2906 2266 
Q 2828 2175 2409 1742 
Q 1991 1309 1228 531 
z
" transform="scale(0.015625)"/>
       </defs>
       <use xlink:href="#DejaVuSans-2212"/>
       <use xlink:href="#DejaVuSans-32" transform="translate(83.789062 0)"/>
       <use xlink:href="#DejaVuSans-35" transform="translate(147.412109 0)"/>
       <use xlink:href="#DejaVuSans-30" transform="translate(211.035156 0)"/>
       <use xlink:href="#DejaVuSans-30" transform="translate(274.658203 0)"/>
      </g>
     </g>
    </g>
    <g id="ytick_3">
     <g id="line2d_10">
      <g>
       <use xlink:href="#mbbac3d1f97" x="62.946719" y="75.309169" style="stroke: #000000; stroke-width: 0.8"/>
      </g>
     </g>
     <g id="text_11">
      <!-- 0 -->
      <g transform="translate(50.220469 78.728466) scale(0.09 -0.09)">
       <use xlink:href="#DejaVuSans-30"/>
      </g>
     </g>
    </g>
    <g id="ytick_4">
     <g id="line2d_11">
      <g>
       <use xlink:href="#mbbac3d1f97" x="62.946719" y="53.18938" style="stroke: #000000; stroke-width: 0.8"/>
      </g>
     </g>
     <g id="text_12">
      <!-- 2500 -->
      <g transform="translate(33.041719 56.608677) scale(0.09 -0.09)">
       <use xlink:href="#DejaVuSans-32"/>
       <use xlink:href="#DejaVuSans-35" transform="translate(63.623047 0)"/>
       <use xlink:href="#DejaVuSans-30" transform="translate(127.246094 0)"/>
       <use xlink:href="#DejaVuSans-30" transform="translate(190.869141 0)"/>
      </g>
     </g>
    </g>
    <g id="ytick_5">
     <g id="line2d_12">
      <g>
       <use xlink:href="#mbbac3d1f97" x="62.946719" y="31.069591" style="stroke: #000000; stroke-width: 0.8"/>
      </g>
     </g>
     <g id="text_13">
      <!-- 5000 -->
      <g transform="translate(33.041719 34.488888) scale(0.09 -0.09)">
       <use xlink:href="#DejaVuSans-35"/>
       <use xlink:href="#DejaVuSans-30" transform="translate(63.623047 0)"/>
       <use xlink:href="#DejaVuSans-30" transform="translate(127.246094 0)"/>
       <use xlink:href="#DejaVuSans-30" transform="translate(190.869141 0)"/>
      </g>
     </g>
    </g>
    <g id="text_14">
     <!-- $i_p$ Cord. [km] -->
     <g transform="translate(18.4 107.305781) rotate(-90) scale(0.1 -0.1)">
      <defs>
       <path id="DejaVuSans-Oblique-70" d="M 3175 2156 
Q 3175 2616 2975 2859 
Q 2775 3103 2400 3103 
Q 2144 3103 1911 2972 
Q 1678 2841 1497 2591 
Q 1319 2344 1212 1994 
Q 1106 1644 1106 1300 
Q 1106 863 1306 627 
Q 1506 391 1875 391 
Q 2147 391 2380 519 
Q 2613 647 2778 891 
Q 2956 1147 3065 1494 
Q 3175 1841 3175 2156 
z
M 1394 2969 
Q 1625 3272 1939 3428 
Q 2253 3584 2638 3584 
Q 3175 3584 3472 3232 
Q 3769 2881 3769 2247 
Q 3769 1728 3584 1258 
Q 3400 788 3053 416 
Q 2822 169 2531 39 
Q 2241 -91 1919 -91 
Q 1547 -91 1294 64 
Q 1041 219 916 525 
L 556 -1331 
L -19 -1331 
L 922 3500 
L 1497 3500 
L 1394 2969 
z
" transform="scale(0.015625)"/>
      </defs>
      <use xlink:href="#DejaVuSans-Oblique-69" transform="translate(0 0.015625)"/>
      <use xlink:href="#DejaVuSans-Oblique-70" transform="translate(27.783203 -16.390625) scale(0.7)"/>
      <use xlink:href="#DejaVuSans-20" transform="translate(74.951172 0.015625)"/>
      <use xlink:href="#DejaVuSans-43" transform="translate(106.738281 0.015625)"/>
      <use xlink:href="#DejaVuSans-6f" transform="translate(176.5625 0.015625)"/>
      <use xlink:href="#DejaVuSans-72" transform="translate(237.744141 0.015625)"/>
      <use xlink:href="#DejaVuSans-64" transform="translate(278.857422 0.015625)"/>
      <use xlink:href="#DejaVuSans-2e" transform="translate(342.333984 0.015625)"/>
      <use xlink:href="#DejaVuSans-20" transform="translate(374.121094 0.015625)"/>
      <use xlink:href="#DejaVuSans-5b" transform="translate(405.908203 0.015625)"/>
      <use xlink:href="#DejaVuSans-6b" transform="translate(444.921875 0.015625)"/>
      <use xlink:href="#DejaVuSans-6d" transform="translate(502.832031 0.015625)"/>
      <use xlink:href="#DejaVuSans-5d" transform="translate(600.244141 0.015625)"/>
     </g>
    </g>
   </g>
   <g id="line2d_13">
    <path d="M 250.125994 19.196652 
L 246.816153 18.295892 
L 243.459314 17.590188 
L 240.06696 17.081952 
L 236.650698 16.772925 
L 233.222214 16.664162 
L 229.793239 16.756036 
L 226.375503 17.048233 
L 222.9807 17.539752 
L 219.620443 18.228913 
L 216.306229 19.113357 
L 213.049397 20.190058 
L 209.861088 21.455333 
L 206.752211 22.904853 
L 203.733402 24.533659 
L 200.814989 26.33618 
L 198.006956 28.306247 
L 195.318911 30.437121 
L 192.760051 32.721512 
L 190.33913 35.151605 
L 188.064431 37.719086 
L 185.943737 40.415172 
L 183.984304 43.230637 
L 182.192836 46.155849 
L 180.575464 49.180801 
L 179.137721 52.295143 
L 177.884527 55.48822 
L 176.820169 58.749109 
L 175.948291 62.066652 
L 175.271877 65.4295 
L 174.79324 68.826145 
L 174.51402 72.244968 
L 174.435174 75.674271 
L 174.556971 79.102321 
L 174.878997 82.51739 
L 175.40015 85.907792 
L 176.11865 89.261928 
L 177.032038 92.56832 
L 178.137192 95.815656 
L 179.43033 98.992824 
L 180.907031 102.088952 
L 182.562242 105.093445 
L 184.390301 107.996021 
L 186.384954 110.786748 
L 188.539378 113.456075 
L 190.846202 115.994868 
L 193.297534 118.394439 
L 195.884987 120.646575 
L 198.599708 122.743567 
L 201.43241 124.67824 
L 204.373399 126.443969 
L 207.412612 128.034713 
L 210.539651 129.445024 
L 213.743813 130.670075 
L 217.014136 131.705671 
L 220.339428 132.548268 
L 223.708311 133.194979 
L 227.109255 133.643588 
L 230.530621 133.89256 
L 233.9607 133.941039 
L 237.387754 133.788858 
L 240.800053 133.436535 
L 244.185919 132.885275 
L 247.533765 132.136962 
L 250.832131 131.194155 
L 254.069729 130.060079 
L 257.235477 128.738613 
L 260.31854 127.234279 
L 263.308364 125.552224 
L 266.194715 123.698203 
L 268.967714 121.67856 
L 271.617866 119.500208 
L 274.136101 117.170601 
L 276.513798 114.697712 
L 278.742817 112.090003 
L 280.815528 109.356399 
L 282.724834 106.506258 
L 284.464199 103.549333 
L 286.027668 100.495746 
L 287.409888 97.355949 
L 288.606126 94.140689 
L 289.612288 90.860971 
L 290.424927 87.528022 
L 291.041261 84.15325 
L 291.45918 80.748207 
L 291.677252 77.324548 
L 291.694729 73.893994 
L 291.511552 70.468287 
L 291.128346 67.059154 
L 290.546423 63.678265 
L 289.767775 60.337194 
L 288.795066 57.047378 
L 287.631625 53.820079 
L 286.281436 50.666345 
L 284.749119 47.596972 
L 283.039921 44.622468 
L 281.159692 41.753015 
L 279.114869 38.998436 
L 276.91245 36.368158 
L 274.559974 33.871188 
L 272.065497 31.516072 
L 269.437556 29.310874 
L 266.685149 27.263143 
L 263.817698 25.379888 
L 260.845019 23.667556 
L 257.777288 22.132009 
L 254.625008 20.778504 
L 251.39897 19.611673 
L 248.110217 18.63551 
L 244.770007 17.853358 
L 241.389774 17.267892 
L 237.981092 16.881118 
L 234.555628 16.69436 
L 231.125109 16.708255 
L 227.701278 16.922757 
L 224.295856 17.337131 
L 220.9205 17.949958 
L 217.586765 18.75914 
L 214.306063 19.761908 
L 211.089624 20.954829 
L 207.948459 22.333818 
L 204.893322 23.894157 
L 201.93467 25.630502 
L 199.082633 27.536911 
L 196.346974 29.606857 
L 193.737058 31.833254 
L 191.26182 34.208482 
L 188.929733 36.724409 
L 186.748782 39.372423 
L 184.726434 42.143458 
L 182.869612 45.02803 
L 181.184673 48.016262 
L 179.677387 51.097926 
L 178.352914 54.262471 
L 177.215789 57.499064 
L 176.269907 60.796625 
L 175.518505 64.143865 
L 174.964158 67.529327 
L 174.608764 70.941419 
L 174.453542 74.368462 
L 174.499023 77.798721 
L 174.745054 81.220454 
L 175.190794 84.621946 
L 175.834717 87.99155 
L 176.674621 91.317731 
L 177.707633 94.589099 
L 178.930215 97.794453 
L 180.338185 100.922818 
L 181.926723 103.963483 
L 183.690391 106.906037 
L 185.623155 109.740404 
L 187.718396 112.456878 
L 189.968944 115.046158 
L 192.367094 117.499376 
L 194.904636 119.808131 
L 197.572882 121.964517 
L 200.362699 123.961148 
L 203.264533 125.791185 
L 206.268451 127.448359 
L 209.364166 128.926995 
L 212.54108 130.222028 
L 215.788315 131.32902 
L 219.094752 132.244179 
L 222.449069 132.964369 
L 225.83978 133.487121 
L 229.255273 133.810643 
L 232.683854 133.933825 
L 236.113779 133.856242 
L 239.533303 133.578158 
L 242.930715 133.100524 
L 246.294381 132.424972 
L 249.61278 131.553814 
L 252.874546 130.490032 
L 256.068509 129.237267 
L 259.183728 127.799807 
L 262.209533 126.182575 
L 265.13556 124.391106 
L 267.951786 122.431537 
L 270.648565 120.310575 
L 273.216659 118.035485 
L 275.647272 115.614057 
L 277.932078 113.054583 
L 280.063248 110.36583 
L 282.033483 107.557005 
L 283.836032 104.637729 
L 285.46472 101.618 
L 286.913969 98.508161 
L 288.178812 95.318862 
L 289.254915 92.061027 
L 290.138593 88.745815 
L 290.826817 85.384582 
L 291.317228 81.988841 
L 291.608146 78.570223 
L 291.698572 75.14044 
L 291.588198 71.711238 
L 291.277399 68.294366 
L 290.76724 64.901525 
L 290.059467 61.54434 
L 289.156505 58.23431 
L 288.061446 54.982772 
L 286.77804 51.800866 
L 285.310684 48.699491 
L 283.664403 45.689273 
L 281.844837 42.780522 
L 279.858218 39.983203 
L 277.711352 37.306899 
L 275.411593 34.760777 
L 272.966818 32.35356 
L 270.385403 30.093494 
L 267.67619 27.988322 
L 264.848459 26.045253 
L 261.911897 24.270946 
L 258.876565 22.671478 
L 255.752858 21.252328 
L 252.551479 20.018358 
L 249.283394 18.973794 
L 245.959799 18.122216 
L 242.592079 17.466541 
L 239.191772 17.009014 
L 235.770526 16.751204 
L 232.340061 16.693992 
L 228.912127 16.837576 
L 225.498468 17.181463 
L 222.110778 17.724475 
L 218.760661 18.464753 
L 215.459594 19.399761 
L 212.218883 20.526296 
L 209.049631 21.840499 
L 205.962697 23.337868 
L 202.968654 25.013274 
L 200.07776 26.860979 
L 197.299919 28.874652 
L 194.644647 31.047396 
L 192.121041 33.371768 
L 189.737747 35.839805 
L 187.502929 38.443054 
L 185.424245 41.172597 
L 183.508816 44.019083 
L 181.763205 46.97276 
L 180.193394 50.023512 
L 178.804761 53.160885 
L 177.602064 56.374134 
L 176.589426 59.652251 
L 175.770316 62.984003 
L 175.147542 66.357978 
L 174.72324 69.762616 
L 174.498864 73.186253 
L 174.475185 76.61716 
L 174.652286 80.043582 
L 175.02956 83.453779 
L 175.605719 86.836067 
L 176.378789 90.178858 
L 177.346123 93.470697 
L 178.504408 96.700305 
L 179.849679 99.856616 
L 181.377327 102.928815 
L 183.08212 105.906374 
L 184.958218 108.779088 
L 186.999194 111.537114 
L 189.198055 114.170998 
L 191.54727 116.671715 
L 194.03879 119.030694 
L 196.664079 121.239852 
L 199.414142 123.291615 
L 202.279557 125.17895 
L 205.250506 126.89539 
L 208.316809 128.435049 
L 211.467961 129.792651 
L 214.693164 130.96354 
L 217.981365 131.943701 
L 221.321298 132.729773 
L 224.701515 133.319061 
L 228.110433 133.709541 
L 231.53637 133.899874 
L 234.967584 133.889405 
L 238.392317 133.678166 
L 241.798831 133.26688 
L 245.175451 132.656954 
L 248.510602 131.850476 
L 251.792855 130.850208 
L 255.010958 129.659575 
L 258.15388 128.282657 
L 261.210848 126.724171 
L 264.171382 124.989457 
L 267.025334 123.084459 
L 269.762919 121.015705 
L 272.374754 118.790284 
L 274.851883 116.415823 
L 277.185816 113.90046 
L 279.36855 111.252813 
L 281.392602 108.481959 
L 283.251032 105.597395 
L 284.937466 102.609008 
L 286.446123 99.527043 
L 287.77183 96.362063 
L 288.910039 93.124917 
L 289.856848 89.826703 
L 290.60901 86.478727 
L 291.163944 83.092464 
L 291.519747 79.679525 
L 291.675199 76.251608 
L 291.629764 72.820466 
L 291.383597 69.39786 
L 290.937542 65.995526 
L 290.293125 62.625126 
L 289.452556 59.298216 
L 288.418716 56.026203 
L 287.195147 52.820304 
L 285.786043 49.69151 
L 284.196236 46.650548 
L 282.431174 43.707845 
L 280.496909 40.87349 
L 278.400071 38.157201 
L 276.147848 35.568291 
L 273.747964 33.115636 
L 271.208644 30.807648 
L 268.538596 28.652238 
L 265.746973 26.656798 
L 262.843345 24.828168 
L 259.837668 23.17262 
L 256.740247 21.695829 
L 253.561701 20.402859 
L 250.312927 19.298145 
L 247.005066 18.385473 
L 243.649458 17.667974 
L 240.257607 17.148108 
L 236.841143 16.827659 
L 233.411781 16.707725 
L 229.981278 16.788718 
L 226.561398 17.070361 
L 223.163864 17.55169 
L 219.800328 18.231053 
L 216.482322 19.106123 
L 213.221225 20.173899 
L 210.028217 21.430722 
L 206.914246 22.872281 
L 203.889991 24.493636 
L 200.965821 26.289227 
L 198.151764 28.252897 
L 195.457468 30.377916 
L 192.892174 32.656998 
L 190.464677 35.082327 
L 188.183302 37.645589 
L 186.055873 40.337995 
L 184.089685 43.150313 
L 182.291483 46.072901 
L 180.667433 49.095737 
L 179.223105 52.208456 
L 177.963454 55.400386 
L 176.8928 58.66058 
L 176.014816 61.97786 
L 175.332515 65.340851 
L 174.848238 68.73802 
L 174.563647 72.157719 
L 174.47972 75.58822 
L 174.596747 79.01776 
L 174.914329 82.434577 
L 175.431378 85.826952 
L 176.146123 89.183252 
L 177.056115 92.491965 
L 178.158235 95.741743 
L 179.448706 98.92144 
L 180.923103 102.02015 
L 182.576372 105.027244 
L 184.402844 107.932407 
L 186.396258 110.725674 
L 188.549776 113.397462 
L 190.856016 115.938607 
L 193.307069 118.34039 
L 195.894528 120.594572 
L 198.609522 122.693419 
L 201.44274 124.629731 
L 204.384464 126.396863 
L 207.424606 127.988752 
L 210.552737 129.399934 
L 213.758131 130.625567 
L 217.029792 131.661445 
L 220.356499 132.50401 
L 223.726839 133.15037 
L 227.129253 133.598305 
L 230.552067 133.846275 
L 233.983541 133.893427 
L 237.411901 133.739597 
L 240.825388 133.385308 
L 244.212287 132.831775 
L 247.560981 132.080893 
L 250.859979 131.135235 
L 254.097961 129.998045 
L 257.263816 128.67322 
L 260.346684 127.165304 
L 263.335985 125.479467 
L 266.221461 123.621493 
L 268.99321 121.597753 
L 271.641719 119.415191 
L 274.1579 117.081293 
L 276.533116 114.604066 
L 278.759215 111.992009 
L 280.828557 109.254084 
L 282.734041 106.399683 
L 284.469124 103.4386 
L 286.027853 100.380996 
L 287.404875 97.237361 
L 288.595463 94.018483 
L 289.595531 90.735407 
L 290.401643 87.3994 
L 291.011032 84.021909 
L 291.421605 80.614525 
L 291.631952 77.188939 
L 291.641347 73.756908 
L 291.449759 70.330211 
L 291.057842 66.920609 
L 290.46694 63.539805 
L 289.679079 60.1994 
L 288.696963 56.910859 
L 287.523959 53.685468 
L 286.164092 50.534296 
L 284.622029 47.46816 
L 282.903061 44.497585 
L 281.013086 41.632766 
L 278.958591 38.883538 
L 276.746626 36.259337 
L 274.38478 33.769168 
L 271.881161 31.421582 
L 269.24436 29.224635 
L 266.483427 27.185872 
L 263.60784 25.312288 
L 260.627466 23.610318 
L 257.552537 22.085804 
L 254.393606 20.74398 
L 251.161516 19.589452 
L 247.86736 18.626183 
L 244.522445 17.857483 
L 241.138253 17.285989 
L 237.726399 16.913665 
L 234.298596 16.74179 
L 230.866609 16.770955 
L 227.44222 17.001061 
L 224.037183 17.431318 
L 220.663186 18.060252 
L 217.33181 18.885705 
L 214.054492 19.904843 
L 210.842484 21.114171 
L 207.706811 22.509537 
L 204.658239 24.086152 
L 201.707232 25.838607 
L 198.863922 27.760886 
L 196.13807 29.846392 
L 193.539036 32.087965 
L 191.075742 34.477913 
L 188.756647 37.008031 
L 186.589713 39.669634 
L 184.582382 42.453585 
L 182.741546 45.350329 
L 181.073525 48.34992 
L 179.58405 51.442062 
L 178.278234 54.616139 
L 177.160564 57.861255 
L 176.234877 61.166269 
L 175.504355 64.519833 
L 174.971507 67.910434 
L 174.638166 71.32643 
L 174.505477 74.756091 
L 174.573899 78.187642 
L 174.843199 81.609301 
L 175.312454 85.009319 
L 175.980057 88.376022 
L 176.843715 91.697849 
L 177.900468 94.963394 
L 179.146688 98.161444 
L 180.578099 101.281015 
L 182.189788 104.311396 
L 183.976224 107.242177 
L 185.931273 110.063293 
L 188.048224 112.765054 
L 190.319809 115.338179 
L 192.738228 117.773828 
L 195.295176 120.063635 
L 197.981875 122.199733 
L 200.7891 124.174784 
L 203.707211 125.982003 
L 206.726188 127.61518 
L 209.835665 129.068705 
L 213.024963 130.337582 
L 216.283128 131.41745 
L 219.598972 132.304596 
L 222.961103 132.99597 
L 226.357974 133.489194 
L 229.777919 133.782571 
L 233.20919 133.87509 
L 236.64 133.76643 
L 240.058565 133.456961 
L 243.453141 132.947742 
L 246.812064 132.24052 
L 250.123796 131.337721 
L 253.376958 130.242444 
L 256.560374 128.958448 
L 259.663104 127.490141 
L 262.674489 125.842566 
L 265.584179 124.021379 
L 268.382177 122.032835 
L 271.058868 119.883764 
L 273.605053 117.581546 
L 276.011982 115.13409 
L 278.271381 112.549802 
L 280.375487 109.83756 
L 282.317067 107.00668 
L 284.089445 104.066888 
L 285.68653 101.028285 
L 287.102829 97.901311 
L 288.333473 94.696711 
L 289.37423 91.425496 
L 290.22152 88.098906 
L 290.872429 84.728372 
L 291.324717 81.325477 
L 291.576826 77.901917 
L 291.627886 74.469457 
L 291.47772 71.039894 
L 291.126841 67.625014 
L 290.576451 64.236552 
L 289.828438 60.886156 
L 288.885373 57.585343 
L 287.750492 54.345458 
L 286.427694 51.177637 
L 284.921524 48.092772 
L 283.237155 45.101466 
L 281.380377 42.214006 
L 279.357569 39.440317 
L 277.175683 36.789935 
L 274.842216 34.271973 
L 272.365188 31.895087 
L 269.753111 29.66745 
L 267.014963 27.596721 
L 264.160154 25.690021 
L 261.198498 23.953907 
L 258.140175 22.394349 
L 254.995697 21.016712 
L 251.775875 19.825734 
L 248.491777 18.825512 
L 245.154691 18.019487 
L 241.776092 17.410434 
L 238.367595 17.000449 
L 234.940922 16.790943 
L 231.507853 16.782641 
L 228.080193 16.975573 
L 224.669728 17.369078 
L 221.288185 17.961806 
L 217.947193 18.75172 
L 214.65824 19.736107 
L 211.432635 20.911584 
L 208.281471 22.274112 
L 205.215585 23.819008 
L 202.245521 25.540961 
L 199.381495 27.434051 
L 196.633356 29.491772 
L 194.010555 31.707048 
L 191.522115 34.072265 
L 189.176595 36.579289 
L 186.982063 39.2195 
L 184.946068 41.983821 
L 183.075617 44.862745 
L 181.377143 47.846373 
L 179.85649 50.924443 
L 178.518893 54.086372 
L 177.368953 57.321285 
L 176.410629 60.618056 
L 175.64722 63.965346 
L 175.081355 67.351642 
L 174.714983 70.765297 
L 174.549369 74.194571 
L 174.585084 77.627667 
L 174.822009 81.052776 
L 175.259333 84.458117 
L 175.895555 87.831973 
L 176.72849 91.162737 
L 177.755276 94.438951 
L 178.972383 97.64934 
L 180.375628 100.782859 
L 181.960187 103.828727 
L 183.720613 106.776463 
L 185.650849 109.615921 
L 187.744258 112.337328 
L 189.993638 114.931317 
L 192.391256 117.388961 
L 194.928862 119.701803 
L 197.597729 121.861878 
L 200.388676 123.861753 
L 203.2921 125.694541 
L 206.298013 127.353932 
L 209.396071 128.83421 
L 212.575614 130.130278 
L 215.825702 131.237671 
L 219.135151 132.152574 
L 222.492571 132.871833 
L 225.886407 133.392968 
L 229.304979 133.714182 
L 232.736522 133.834363 
L 236.169225 133.753094 
L 239.591272 133.470649 
L 242.990883 132.987996 
L 246.356351 132.306792 
L 249.676088 131.429377 
L 252.938665 130.358768 
L 256.132848 129.098645 
L 259.247639 127.653342 
L 262.272314 126.027829 
L 265.196457 124.227699 
L 268.009995 122.259146 
L 270.703236 120.128945 
L 273.266906 117.844425 
L 275.692171 115.41345 
L 277.970676 112.844387 
L 280.094571 110.14608 
L 282.056538 107.327818 
L 283.849814 104.399302 
L 285.468221 101.370615 
L 286.906181 98.252182 
L 288.158735 95.054739 
L 289.221563 91.789301 
L 290.090998 88.467116 
L 290.764039 85.099626 
L 291.238361 81.698432 
L 291.512324 78.27525 
L 291.584979 74.841871 
L 291.45607 71.410122 
L 291.126033 67.991824 
L 290.596 64.598752 
L 289.86779 61.242597 
L 288.943907 57.934925 
L 287.827526 54.687138 
L 286.52249 51.510428 
L 285.03329 48.415747 
L 283.365052 45.413762 
L 281.523521 42.514822 
L 279.515036 39.728923 
L 277.346516 37.065669 
L 275.02543 34.534243 
L 272.559772 32.143375 
L 269.958039 29.901313 
L 267.229195 27.815789 
L 264.382641 25.893997 
L 261.428191 24.142569 
L 258.376027 22.567549 
L 255.236668 21.174371 
L 252.020932 19.967844 
L 248.739903 18.952134 
L 245.404888 18.130747 
L 242.027388 17.506522 
L 238.61905 17.08162 
L 235.191622 16.857511 
L 231.756927 16.834975 
L 228.32681 17.014096 
L 224.913101 17.394264 
L 221.527577 17.974172 
L 218.181913 18.751828 
L 214.887652 19.724556 
L 211.656162 20.889006 
L 208.498593 22.241165 
L 205.425841 23.776375 
L 202.44851 25.489345 
L 199.576874 27.374171 
L 196.820842 29.424358 
L 194.189924 31.632838 
L 191.693199 33.991999 
L 189.33929 36.493704 
L 187.136325 39.129324 
L 185.091909 41.889769 
L 183.213106 44.765517 
L 181.506404 47.746645 
L 179.977699 50.822873 
L 178.632274 53.983585 
L 177.474779 57.217876 
L 176.509216 60.514587 
L 175.738927 63.862337 
L 175.166577 67.249571 
L 174.79415 70.664603 
L 174.622941 74.095637 
L 174.653548 77.530826 
L 174.885874 80.958306 
L 175.319124 84.366244 
L 175.951811 87.74287 
L 176.781759 91.076524 
L 177.806109 94.35569 
L 179.021332 97.569041 
L 180.423238 100.705472 
L 182.006994 103.754149 
L 183.767141 106.704543 
L 185.69761 109.54646 
L 187.791738 112.270077 
L 190.0423 114.865976 
L 192.441525 117.32518 
L 194.981129 119.639182 
L 197.652346 121.79998 
L 200.445951 123.8001 
L 203.352293 125.632616 
L 206.361331 127.291185 
L 209.462674 128.770067 
L 212.645608 130.06414 
L 215.899132 131.168919 
L 219.212003 132.080573 
L 222.572763 132.795938 
L 225.96979 133.312526 
L 229.391341 133.628541 
L 232.825583 133.742878 
L 236.260635 133.655128 
L 239.684617 133.365582 
L 243.085687 132.875231 
L 246.452077 132.185756 
L 249.772133 131.299531 
L 253.034365 130.21961 
L 256.227489 128.949713 
L 259.340451 127.49422 
L 262.36247 125.858156 
L 265.283078 124.04717 
L 268.092152 122.067522 
L 270.779956 119.926053 
L 273.337175 117.630163 
L 275.754951 115.187785 
L 278.024905 112.607356 
L 280.139162 109.897801 
L 282.09038 107.0685 
L 283.871775 104.129254 
L 285.477164 101.090232 
L 286.900964 97.961959 
L 288.138222 94.755273 
L 289.184629 91.481289 
L 290.036535 88.151359 
L 290.690973 84.777006 
L 291.145652 81.369922 
L 291.398973 77.941941 
L 291.450036 74.50495 
L 291.298641 71.070862 
L 290.945291 67.651593 
L 290.391187 64.259009 
L 289.638228 60.904879 
L 288.689003 57.600857 
L 287.546784 54.358427 
L 286.215509 51.18885 
L 284.699773 48.103138 
L 283.004815 45.112021 
L 281.136499 42.225909 
L 279.101292 39.45485 
L 276.906254 36.808508 
L 274.558992 34.296105 
L 272.067658 31.92641 
L 269.440901 29.707698 
L 266.687857 27.647725 
L 263.818093 25.753693 
L 260.841573 24.032217 
L 257.768623 22.489311 
L 254.60993 21.130384 
L 251.376493 19.960212 
L 248.079611 18.982923 
L 244.730834 18.201981 
L 241.341866 17.620154 
L 237.924537 17.239511 
L 234.490753 17.061418 
L 231.052554 17.08654 
L 227.622007 17.31483 
L 224.211087 17.745537 
L 220.831777 18.377191 
L 217.496025 19.207607 
L 214.215561 20.23391 
L 211.001983 21.452518 
L 209.737857 21.992867 
L 209.737857 21.992867 
" clip-path="url(#p6c2e4be9e9)" style="fill: none; stroke: #aa0000; stroke-linecap: square"/>
   </g>
   <g id="patch_4">
    <path d="M 62.946719 139.811562 
L 62.946719 10.8 
" style="fill: none; stroke: #000000; stroke-width: 0.8; stroke-linejoin: miter; stroke-linecap: square"/>
   </g>
   <g id="patch_5">
    <path d="M 403.2 139.811562 
L 403.2 10.8 
" style="fill: none; stroke: #000000; stroke-width: 0.8; stroke-linejoin: miter; stroke-linecap: square"/>
   </g>
   <g id="patch_6">
    <path d="M 62.946719 139.811563 
L 403.2 139.811563 
" style="fill: none; stroke: #000000; stroke-width: 0.8; stroke-linejoin: miter; stroke-linecap: square"/>
   </g>
   <g id="patch_7">
    <path d="M 62.946719 10.8 
L 403.2 10.8 
" style="fill: none; stroke: #000000; stroke-width: 0.8; stroke-linejoin: miter; stroke-linecap: square"/>
   </g>
  </g>
 </g>
 <defs>
  <clipPath id="p6c2e4be9e9">
   <rect x="62.946719" y="10.8" width="340.253281" height="129.011562"/>
  </clipPath>
 </defs>
</svg>
