<?xml version="1.0" encoding="utf-8" standalone="no"?>
<!DOCTYPE svg PUBLIC "-//W3C//DTD SVG 1.1//EN"
  "http://www.w3.org/Graphics/SVG/1.1/DTD/svg11.dtd">
<svg xmlns:xlink="http://www.w3.org/1999/xlink" width="414pt" height="180pt" viewBox="0 0 414 180" xmlns="http://www.w3.org/2000/svg" version="1.1">
 <metadata>
  <rdf:RDF xmlns:dc="http://purl.org/dc/elements/1.1/" xmlns:cc="http://creativecommons.org/ns#" xmlns:rdf="http://www.w3.org/1999/02/22-rdf-syntax-ns#">
   <cc:Work>
    <dc:type rdf:resource="http://purl.org/dc/dcmitype/StillImage"/>
    <dc:date>2026-04-28T13:52:19.464537</dc:date>
    <dc:format>image/svg+xml</dc:format>
    <dc:creator>
     <cc:Agent>
      <dc:title>Matplotlib v3.10.7, https://matplotlib.org/</dc:title>
     </cc:Agent>
    </dc:creator>
   </cc:Work>
  </rdf:RDF>
 </metadata>
 <defs>
  <style type="text/css">*{stroke-linejoin: round; stroke-linecap: butt}</style>
 </defs>
 <g id="figure_1">
  <g id="patch_1">
   <path d="M 0 180 
L 414 180 
L 414 0 
L 0 0 
L 0 180 
z
" style="fill: none"/>
  </g>
  <g id="axes_1">
   <g id="patch_2">
    <path d="M 60.080781 139.811563 
L 403.2 139.811563 
L 403.2 10.8 
L 60.080781 10.8 
L 60.080781 139.811563 
z
" style="fill: none"/>
   </g>
   <g id="matplotlib.axis_1">
    <g id="xtick_1">
     <g id="line2d_1">
      <defs>
       <path id="m53e38c54e4" d="M 0 0 
L 0 3.5 
" style="stroke: #000000; stroke-width: 0.8"/>
      </defs>
      <g>
       <use xlink:href="#m53e38c54e4" x="75.677109" y="139.811563" style="stroke: #000000; stroke-width: 0.8"/>
      </g>
     </g>
     <g id="text_1">
      <!-- 0 -->
      <g transform="translate(72.813984 153.650156) scale(0.09 -0.09)">
       <defs>
        <path id="DejaVuSans-30" d="M 2034 4250 
Q 1547 4250 1301 3770 
Q 1056 3291 1056 2328 
Q 1056 1369 1301 889 
Q 1547 409 2034 409 
Q 2525 409 2770 889 
Q 3016 1369 3016 2328 
Q 3016 3291 2770 3770 
Q 2525 4250 2034 4250 
z
M 2034 4750 
Q 2819 4750 3233 4129 
Q 3647 3509 3647 2328 
Q 3647 1150 3233 529 
Q 2819 -91 2034 -91 
Q 1250 -91 836 529 
Q 422 1150 422 2328 
Q 422 3509 836 4129 
Q 1250 4750 2034 4750 
z
" transform="scale(0.015625)"/>
       </defs>
       <use xlink:href="#DejaVuSans-30"/>
      </g>
     </g>
    </g>
    <g id="xtick_2">
     <g id="line2d_2">
      <g>
       <use xlink:href="#m53e38c54e4" x="134.592934" y="139.811563" style="stroke: #000000; stroke-width: 0.8"/>
      </g>
     </g>
     <g id="text_2">
      <!-- 2 -->
      <g transform="translate(131.729809 153.650156) scale(0.09 -0.09)">
       <defs>
        <path id="DejaVuSans-32" d="M 1228 531 
L 3431 531 
L 3431 0 
L 469 0 
L 469 531 
Q 828 903 1448 1529 
Q 2069 2156 2228 2338 
Q 2531 2678 2651 2914 
Q 2772 3150 2772 3378 
Q 2772 3750 2511 3984 
Q 2250 4219 1831 4219 
Q 1534 4219 1204 4116 
Q 875 4013 500 3803 
L 500 4441 
Q 881 4594 1212 4672 
Q 1544 4750 1819 4750 
Q 2544 4750 2975 4387 
Q 3406 4025 3406 3419 
Q 3406 3131 3298 2873 
Q 3191 2616 2906 2266 
Q 2828 2175 2409 1742 
Q 1991 1309 1228 531 
z
" transform="scale(0.015625)"/>
       </defs>
       <use xlink:href="#DejaVuSans-32"/>
      </g>
     </g>
    </g>
    <g id="xtick_3">
     <g id="line2d_3">
      <g>
       <use xlink:href="#m53e38c54e4" x="193.508759" y="139.811563" style="stroke: #000000; stroke-width: 0.8"/>
      </g>
     </g>
     <g id="text_3">
      <!-- 4 -->
      <g transform="translate(190.645634 153.650156) scale(0.09 -0.09)">
       <defs>
        <path id="DejaVuSans-34" d="M 2419 4116 
L 825 1625 
L 2419 1625 
L 2419 4116 
z
M 2253 4666 
L 3047 4666 
L 3047 1625 
L 3713 1625 
L 3713 1100 
L 3047 1100 
L 3047 0 
L 2419 0 
L 2419 1100 
L 313 1100 
L 313 1709 
L 2253 4666 
z
" transform="scale(0.015625)"/>
       </defs>
       <use xlink:href="#DejaVuSans-34"/>
      </g>
     </g>
    </g>
    <g id="xtick_4">
     <g id="line2d_4">
      <g>
       <use xlink:href="#m53e38c54e4" x="252.424584" y="139.811563" style="stroke: #000000; stroke-width: 0.8"/>
      </g>
     </g>
     <g id="text_4">
      <!-- 6 -->
      <g transform="translate(249.561459 153.650156) scale(0.09 -0.09)">
       <defs>
        <path id="DejaVuSans-36" d="M 2113 2584 
Q 1688 2584 1439 2293 
Q 1191 2003 1191 1497 
Q 1191 994 1439 701 
Q 1688 409 2113 409 
Q 2538 409 2786 701 
Q 3034 994 3034 1497 
Q 3034 2003 2786 2293 
Q 2538 2584 2113 2584 
z
M 3366 4563 
L 3366 3988 
Q 3128 4100 2886 4159 
Q 2644 4219 2406 4219 
Q 1781 4219 1451 3797 
Q 1122 3375 1075 2522 
Q 1259 2794 1537 2939 
Q 1816 3084 2150 3084 
Q 2853 3084 3261 2657 
Q 3669 2231 3669 1497 
Q 3669 778 3244 343 
Q 2819 -91 2113 -91 
Q 1303 -91 875 529 
Q 447 1150 447 2328 
Q 447 3434 972 4092 
Q 1497 4750 2381 4750 
Q 2619 4750 2861 4703 
Q 3103 4656 3366 4563 
z
" transform="scale(0.015625)"/>
       </defs>
       <use xlink:href="#DejaVuSans-36"/>
      </g>
     </g>
    </g>
    <g id="xtick_5">
     <g id="line2d_5">
      <g>
       <use xlink:href="#m53e38c54e4" x="311.340409" y="139.811563" style="stroke: #000000; stroke-width: 0.8"/>
      </g>
     </g>
     <g id="text_5">
      <!-- 8 -->
      <g transform="translate(308.477284 153.650156) scale(0.09 -0.09)">
       <defs>
        <path id="DejaVuSans-38" d="M 2034 2216 
Q 1584 2216 1326 1975 
Q 1069 1734 1069 1313 
Q 1069 891 1326 650 
Q 1584 409 2034 409 
Q 2484 409 2743 651 
Q 3003 894 3003 1313 
Q 3003 1734 2745 1975 
Q 2488 2216 2034 2216 
z
M 1403 2484 
Q 997 2584 770 2862 
Q 544 3141 544 3541 
Q 544 4100 942 4425 
Q 1341 4750 2034 4750 
Q 2731 4750 3128 4425 
Q 3525 4100 3525 3541 
Q 3525 3141 3298 2862 
Q 3072 2584 2669 2484 
Q 3125 2378 3379 2068 
Q 3634 1759 3634 1313 
Q 3634 634 3220 271 
Q 2806 -91 2034 -91 
Q 1263 -91 848 271 
Q 434 634 434 1313 
Q 434 1759 690 2068 
Q 947 2378 1403 2484 
z
M 1172 3481 
Q 1172 3119 1398 2916 
Q 1625 2713 2034 2713 
Q 2441 2713 2670 2916 
Q 2900 3119 2900 3481 
Q 2900 3844 2670 4047 
Q 2441 4250 2034 4250 
Q 1625 4250 1398 4047 
Q 1172 3844 1172 3481 
z
" transform="scale(0.015625)"/>
       </defs>
       <use xlink:href="#DejaVuSans-38"/>
      </g>
     </g>
    </g>
    <g id="xtick_6">
     <g id="line2d_6">
      <g>
       <use xlink:href="#m53e38c54e4" x="370.256235" y="139.811563" style="stroke: #000000; stroke-width: 0.8"/>
      </g>
     </g>
     <g id="text_6">
      <!-- 10 -->
      <g transform="translate(364.529985 153.650156) scale(0.09 -0.09)">
       <defs>
        <path id="DejaVuSans-31" d="M 794 531 
L 1825 531 
L 1825 4091 
L 703 3866 
L 703 4441 
L 1819 4666 
L 2450 4666 
L 2450 531 
L 3481 531 
L 3481 0 
L 794 0 
L 794 531 
z
" transform="scale(0.015625)"/>
       </defs>
       <use xlink:href="#DejaVuSans-31"/>
       <use xlink:href="#DejaVuSans-30" transform="translate(63.623047 0)"/>
      </g>
     </g>
    </g>
    <g id="text_7">
     <!-- Time [hr] -->
     <g transform="translate(208.691953 167.120313) scale(0.1 -0.1)">
      <defs>
       <path id="DejaVuSans-54" d="M -19 4666 
L 3928 4666 
L 3928 4134 
L 2272 4134 
L 2272 0 
L 1638 0 
L 1638 4134 
L -19 4134 
L -19 4666 
z
" transform="scale(0.015625)"/>
       <path id="DejaVuSans-69" d="M 603 3500 
L 1178 3500 
L 1178 0 
L 603 0 
L 603 3500 
z
M 603 4863 
L 1178 4863 
L 1178 4134 
L 603 4134 
L 603 4863 
z
" transform="scale(0.015625)"/>
       <path id="DejaVuSans-6d" d="M 3328 2828 
Q 3544 3216 3844 3400 
Q 4144 3584 4550 3584 
Q 5097 3584 5394 3201 
Q 5691 2819 5691 2113 
L 5691 0 
L 5113 0 
L 5113 2094 
Q 5113 2597 4934 2840 
Q 4756 3084 4391 3084 
Q 3944 3084 3684 2787 
Q 3425 2491 3425 1978 
L 3425 0 
L 2847 0 
L 2847 2094 
Q 2847 2600 2669 2842 
Q 2491 3084 2119 3084 
Q 1678 3084 1418 2786 
Q 1159 2488 1159 1978 
L 1159 0 
L 581 0 
L 581 3500 
L 1159 3500 
L 1159 2956 
Q 1356 3278 1631 3431 
Q 1906 3584 2284 3584 
Q 2666 3584 2933 3390 
Q 3200 3197 3328 2828 
z
" transform="scale(0.015625)"/>
       <path id="DejaVuSans-65" d="M 3597 1894 
L 3597 1613 
L 953 1613 
Q 991 1019 1311 708 
Q 1631 397 2203 397 
Q 2534 397 2845 478 
Q 3156 559 3463 722 
L 3463 178 
Q 3153 47 2828 -22 
Q 2503 -91 2169 -91 
Q 1331 -91 842 396 
Q 353 884 353 1716 
Q 353 2575 817 3079 
Q 1281 3584 2069 3584 
Q 2775 3584 3186 3129 
Q 3597 2675 3597 1894 
z
M 3022 2063 
Q 3016 2534 2758 2815 
Q 2500 3097 2075 3097 
Q 1594 3097 1305 2825 
Q 1016 2553 972 2059 
L 3022 2063 
z
" transform="scale(0.015625)"/>
       <path id="DejaVuSans-20" transform="scale(0.015625)"/>
       <path id="DejaVuSans-5b" d="M 550 4863 
L 1875 4863 
L 1875 4416 
L 1125 4416 
L 1125 -397 
L 1875 -397 
L 1875 -844 
L 550 -844 
L 550 4863 
z
" transform="scale(0.015625)"/>
       <path id="DejaVuSans-68" d="M 3513 2113 
L 3513 0 
L 2938 0 
L 2938 2094 
Q 2938 2591 2744 2837 
Q 2550 3084 2163 3084 
Q 1697 3084 1428 2787 
Q 1159 2491 1159 1978 
L 1159 0 
L 581 0 
L 581 4863 
L 1159 4863 
L 1159 2956 
Q 1366 3272 1645 3428 
Q 1925 3584 2291 3584 
Q 2894 3584 3203 3211 
Q 3513 2838 3513 2113 
z
" transform="scale(0.015625)"/>
       <path id="DejaVuSans-72" d="M 2631 2963 
Q 2534 3019 2420 3045 
Q 2306 3072 2169 3072 
Q 1681 3072 1420 2755 
Q 1159 2438 1159 1844 
L 1159 0 
L 581 0 
L 581 3500 
L 1159 3500 
L 1159 2956 
Q 1341 3275 1631 3429 
Q 1922 3584 2338 3584 
Q 2397 3584 2469 3576 
Q 2541 3569 2628 3553 
L 2631 2963 
z
" transform="scale(0.015625)"/>
       <path id="DejaVuSans-5d" d="M 1947 4863 
L 1947 -844 
L 622 -844 
L 622 -397 
L 1369 -397 
L 1369 4416 
L 622 4416 
L 622 4863 
L 1947 4863 
z
" transform="scale(0.015625)"/>
      </defs>
      <use xlink:href="#DejaVuSans-54"/>
      <use xlink:href="#DejaVuSans-69" transform="translate(57.958984 0)"/>
      <use xlink:href="#DejaVuSans-6d" transform="translate(85.742188 0)"/>
      <use xlink:href="#DejaVuSans-65" transform="translate(183.154297 0)"/>
      <use xlink:href="#DejaVuSans-20" transform="translate(244.677734 0)"/>
      <use xlink:href="#DejaVuSans-5b" transform="translate(276.464844 0)"/>
      <use xlink:href="#DejaVuSans-68" transform="translate(315.478516 0)"/>
      <use xlink:href="#DejaVuSans-72" transform="translate(378.857422 0)"/>
      <use xlink:href="#DejaVuSans-5d" transform="translate(419.970703 0)"/>
     </g>
    </g>
   </g>
   <g id="matplotlib.axis_2">
    <g id="ytick_1">
     <g id="line2d_7">
      <defs>
       <path id="me2e4f55474" d="M 0 0 
L -3.5 0 
" style="stroke: #000000; stroke-width: 0.8"/>
      </defs>
      <g>
       <use xlink:href="#me2e4f55474" x="60.080781" y="133.947401" style="stroke: #000000; stroke-width: 0.8"/>
      </g>
     </g>
     <g id="text_8">
      <!-- −1.00 -->
      <g transform="translate(25.5 137.366697) scale(0.09 -0.09)">
       <defs>
        <path id="DejaVuSans-2212" d="M 678 2272 
L 4684 2272 
L 4684 1741 
L 678 1741 
L 678 2272 
z
" transform="scale(0.015625)"/>
        <path id="DejaVuSans-2e" d="M 684 794 
L 1344 794 
L 1344 0 
L 684 0 
L 684 794 
z
" transform="scale(0.015625)"/>
       </defs>
       <use xlink:href="#DejaVuSans-2212"/>
       <use xlink:href="#DejaVuSans-31" transform="translate(83.789062 0)"/>
       <use xlink:href="#DejaVuSans-2e" transform="translate(147.412109 0)"/>
       <use xlink:href="#DejaVuSans-30" transform="translate(179.199219 0)"/>
       <use xlink:href="#DejaVuSans-30" transform="translate(242.822266 0)"/>
      </g>
     </g>
    </g>
    <g id="ytick_2">
     <g id="line2d_8">
      <g>
       <use xlink:href="#me2e4f55474" x="60.080781" y="115.097168" style="stroke: #000000; stroke-width: 0.8"/>
      </g>
     </g>
     <g id="text_9">
      <!-- −0.75 -->
      <g transform="translate(25.5 118.516465) scale(0.09 -0.09)">
       <defs>
        <path id="DejaVuSans-37" d="M 525 4666 
L 3525 4666 
L 3525 4397 
L 1831 0 
L 1172 0 
L 2766 4134 
L 525 4134 
L 525 4666 
z
" transform="scale(0.015625)"/>
        <path id="DejaVuSans-35" d="M 691 4666 
L 3169 4666 
L 3169 4134 
L 1269 4134 
L 1269 2991 
Q 1406 3038 1543 3061 
Q 1681 3084 1819 3084 
Q 2600 3084 3056 2656 
Q 3513 2228 3513 1497 
Q 3513 744 3044 326 
Q 2575 -91 1722 -91 
Q 1428 -91 1123 -41 
Q 819 9 494 109 
L 494 744 
Q 775 591 1075 516 
Q 1375 441 1709 441 
Q 2250 441 2565 725 
Q 2881 1009 2881 1497 
Q 2881 1984 2565 2268 
Q 2250 2553 1709 2553 
Q 1456 2553 1204 2497 
Q 953 2441 691 2322 
L 691 4666 
z
" transform="scale(0.015625)"/>
       </defs>
       <use xlink:href="#DejaVuSans-2212"/>
       <use xlink:href="#DejaVuSans-30" transform="translate(83.789062 0)"/>
       <use xlink:href="#DejaVuSans-2e" transform="translate(147.412109 0)"/>
       <use xlink:href="#DejaVuSans-37" transform="translate(179.199219 0)"/>
       <use xlink:href="#DejaVuSans-35" transform="translate(242.822266 0)"/>
      </g>
     </g>
    </g>
    <g id="ytick_3">
     <g id="line2d_9">
      <g>
       <use xlink:href="#me2e4f55474" x="60.080781" y="96.246936" style="stroke: #000000; stroke-width: 0.8"/>
      </g>
     </g>
     <g id="text_10">
      <!-- −0.50 -->
      <g transform="translate(25.5 99.666233) scale(0.09 -0.09)">
       <use xlink:href="#DejaVuSans-2212"/>
       <use xlink:href="#DejaVuSans-30" transform="translate(83.789062 0)"/>
       <use xlink:href="#DejaVuSans-2e" transform="translate(147.412109 0)"/>
       <use xlink:href="#DejaVuSans-35" transform="translate(179.199219 0)"/>
       <use xlink:href="#DejaVuSans-30" transform="translate(242.822266 0)"/>
      </g>
     </g>
    </g>
    <g id="ytick_4">
     <g id="line2d_10">
      <g>
       <use xlink:href="#me2e4f55474" x="60.080781" y="77.396704" style="stroke: #000000; stroke-width: 0.8"/>
      </g>
     </g>
     <g id="text_11">
      <!-- −0.25 -->
      <g transform="translate(25.5 80.816001) scale(0.09 -0.09)">
       <use xlink:href="#DejaVuSans-2212"/>
       <use xlink:href="#DejaVuSans-30" transform="translate(83.789062 0)"/>
       <use xlink:href="#DejaVuSans-2e" transform="translate(147.412109 0)"/>
       <use xlink:href="#DejaVuSans-32" transform="translate(179.199219 0)"/>
       <use xlink:href="#DejaVuSans-35" transform="translate(242.822266 0)"/>
      </g>
     </g>
    </g>
    <g id="ytick_5">
     <g id="line2d_11">
      <g>
       <use xlink:href="#me2e4f55474" x="60.080781" y="58.546472" style="stroke: #000000; stroke-width: 0.8"/>
      </g>
     </g>
     <g id="text_12">
      <!-- 0.00 -->
      <g transform="translate(33.041719 61.965769) scale(0.09 -0.09)">
       <use xlink:href="#DejaVuSans-30"/>
       <use xlink:href="#DejaVuSans-2e" transform="translate(63.623047 0)"/>
       <use xlink:href="#DejaVuSans-30" transform="translate(95.410156 0)"/>
       <use xlink:href="#DejaVuSans-30" transform="translate(159.033203 0)"/>
      </g>
     </g>
    </g>
    <g id="ytick_6">
     <g id="line2d_12">
      <g>
       <use xlink:href="#me2e4f55474" x="60.080781" y="39.69624" style="stroke: #000000; stroke-width: 0.8"/>
      </g>
     </g>
     <g id="text_13">
      <!-- 0.25 -->
      <g transform="translate(33.041719 43.115537) scale(0.09 -0.09)">
       <use xlink:href="#DejaVuSans-30"/>
       <use xlink:href="#DejaVuSans-2e" transform="translate(63.623047 0)"/>
       <use xlink:href="#DejaVuSans-32" transform="translate(95.410156 0)"/>
       <use xlink:href="#DejaVuSans-35" transform="translate(159.033203 0)"/>
      </g>
     </g>
    </g>
    <g id="ytick_7">
     <g id="line2d_13">
      <g>
       <use xlink:href="#me2e4f55474" x="60.080781" y="20.846008" style="stroke: #000000; stroke-width: 0.8"/>
      </g>
     </g>
     <g id="text_14">
      <!-- 0.50 -->
      <g transform="translate(33.041719 24.265305) scale(0.09 -0.09)">
       <use xlink:href="#DejaVuSans-30"/>
       <use xlink:href="#DejaVuSans-2e" transform="translate(63.623047 0)"/>
       <use xlink:href="#DejaVuSans-35" transform="translate(95.410156 0)"/>
       <use xlink:href="#DejaVuSans-30" transform="translate(159.033203 0)"/>
      </g>
     </g>
    </g>
    <g id="text_15">
     <!-- $(\rho_{stoch} / \rho_{exp}) - 1$ [-] -->
     <g transform="translate(18.4 120.055781) rotate(-90) scale(0.1 -0.1)">
      <defs>
       <path id="DejaVuSans-28" d="M 1984 4856 
Q 1566 4138 1362 3434 
Q 1159 2731 1159 2009 
Q 1159 1288 1364 580 
Q 1569 -128 1984 -844 
L 1484 -844 
Q 1016 -109 783 600 
Q 550 1309 550 2009 
Q 550 2706 781 3412 
Q 1013 4119 1484 4856 
L 1984 4856 
z
" transform="scale(0.015625)"/>
       <path id="DejaVuSans-Oblique-3c1" d="M 1203 2875 
Q 1453 3194 1981 3475 
Q 2188 3584 2756 3584 
Q 3394 3584 3694 3078 
Q 3994 2572 3834 1747 
Q 3672 922 3175 415 
Q 2678 -91 2041 -91 
Q 1656 -91 1409 63 
Q 1163 213 1044 525 
L 681 -1331 
L 103 -1331 
L 697 1716 
Q 838 2438 1203 2875 
z
M 3238 1747 
Q 3359 2381 3169 2744 
Q 2978 3103 2522 3103 
Q 2066 3103 1734 2744 
Q 1403 2381 1281 1747 
Q 1156 1113 1347 750 
Q 1538 391 1994 391 
Q 2450 391 2781 750 
Q 3113 1113 3238 1747 
z
" transform="scale(0.015625)"/>
       <path id="DejaVuSans-Oblique-73" d="M 3200 3397 
L 3091 2853 
Q 2863 2978 2609 3040 
Q 2356 3103 2088 3103 
Q 1634 3103 1373 2948 
Q 1113 2794 1113 2528 
Q 1113 2219 1719 2053 
Q 1766 2041 1788 2034 
L 1972 1978 
Q 2547 1819 2739 1644 
Q 2931 1469 2931 1166 
Q 2931 609 2489 259 
Q 2047 -91 1331 -91 
Q 1053 -91 747 -37 
Q 441 16 72 128 
L 184 722 
Q 500 559 806 475 
Q 1113 391 1394 391 
Q 1816 391 2080 572 
Q 2344 753 2344 1031 
Q 2344 1331 1650 1516 
L 1591 1531 
L 1394 1581 
Q 956 1697 753 1886 
Q 550 2075 550 2369 
Q 550 2928 970 3256 
Q 1391 3584 2113 3584 
Q 2397 3584 2667 3537 
Q 2938 3491 3200 3397 
z
" transform="scale(0.015625)"/>
       <path id="DejaVuSans-Oblique-74" d="M 2706 3500 
L 2619 3053 
L 1472 3053 
L 1100 1153 
Q 1081 1047 1072 975 
Q 1063 903 1063 863 
Q 1063 663 1183 572 
Q 1303 481 1569 481 
L 2150 481 
L 2053 0 
L 1503 0 
Q 991 0 739 200 
Q 488 400 488 806 
Q 488 878 497 964 
Q 506 1050 525 1153 
L 897 3053 
L 409 3053 
L 500 3500 
L 978 3500 
L 1172 4494 
L 1747 4494 
L 1556 3500 
L 2706 3500 
z
" transform="scale(0.015625)"/>
       <path id="DejaVuSans-Oblique-6f" d="M 1625 -91 
Q 1009 -91 651 289 
Q 294 669 294 1325 
Q 294 1706 417 2101 
Q 541 2497 738 2766 
Q 1047 3184 1428 3384 
Q 1809 3584 2291 3584 
Q 2888 3584 3255 3212 
Q 3622 2841 3622 2241 
Q 3622 1825 3500 1412 
Q 3378 1000 3181 728 
Q 2875 309 2494 109 
Q 2113 -91 1625 -91 
z
M 891 1344 
Q 891 869 1089 633 
Q 1288 397 1691 397 
Q 2269 397 2648 901 
Q 3028 1406 3028 2181 
Q 3028 2634 2825 2865 
Q 2622 3097 2228 3097 
Q 1903 3097 1650 2945 
Q 1397 2794 1197 2484 
Q 1050 2253 970 1956 
Q 891 1659 891 1344 
z
" transform="scale(0.015625)"/>
       <path id="DejaVuSans-Oblique-63" d="M 3431 3366 
L 3316 2797 
Q 3109 2947 2876 3022 
Q 2644 3097 2394 3097 
Q 2119 3097 1870 3000 
Q 1622 2903 1453 2725 
Q 1184 2453 1037 2087 
Q 891 1722 891 1331 
Q 891 859 1127 628 
Q 1363 397 1844 397 
Q 2081 397 2348 469 
Q 2616 541 2906 684 
L 2797 116 
Q 2547 13 2283 -39 
Q 2019 -91 1741 -91 
Q 1044 -91 669 257 
Q 294 606 294 1253 
Q 294 1797 489 2255 
Q 684 2713 1069 3078 
Q 1331 3328 1684 3456 
Q 2038 3584 2456 3584 
Q 2700 3584 2940 3529 
Q 3181 3475 3431 3366 
z
" transform="scale(0.015625)"/>
       <path id="DejaVuSans-Oblique-68" d="M 3566 2113 
L 3156 0 
L 2578 0 
L 2988 2091 
Q 3016 2238 3031 2350 
Q 3047 2463 3047 2528 
Q 3047 2791 2881 2937 
Q 2716 3084 2419 3084 
Q 1956 3084 1617 2771 
Q 1278 2459 1178 1941 
L 800 0 
L 225 0 
L 1172 4863 
L 1747 4863 
L 1375 2950 
Q 1594 3244 1934 3414 
Q 2275 3584 2650 3584 
Q 3113 3584 3367 3334 
Q 3622 3084 3622 2631 
Q 3622 2519 3608 2391 
Q 3594 2263 3566 2113 
z
" transform="scale(0.015625)"/>
       <path id="DejaVuSans-2f" d="M 1625 4666 
L 2156 4666 
L 531 -594 
L 0 -594 
L 1625 4666 
z
" transform="scale(0.015625)"/>
       <path id="DejaVuSans-Oblique-65" d="M 3078 2063 
Q 3088 2113 3092 2166 
Q 3097 2219 3097 2272 
Q 3097 2653 2873 2875 
Q 2650 3097 2266 3097 
Q 1838 3097 1509 2826 
Q 1181 2556 1013 2059 
L 3078 2063 
z
M 3578 1613 
L 903 1613 
Q 884 1494 878 1425 
Q 872 1356 872 1306 
Q 872 872 1139 634 
Q 1406 397 1894 397 
Q 2269 397 2603 481 
Q 2938 566 3225 728 
L 3116 159 
Q 2806 34 2476 -28 
Q 2147 -91 1806 -91 
Q 1078 -91 686 257 
Q 294 606 294 1247 
Q 294 1794 489 2264 
Q 684 2734 1063 3103 
Q 1306 3334 1642 3459 
Q 1978 3584 2356 3584 
Q 2950 3584 3301 3228 
Q 3653 2872 3653 2272 
Q 3653 2128 3634 1964 
Q 3616 1800 3578 1613 
z
" transform="scale(0.015625)"/>
       <path id="DejaVuSans-Oblique-78" d="M 3841 3500 
L 2234 1784 
L 3219 0 
L 2559 0 
L 1819 1388 
L 531 0 
L -166 0 
L 1556 1844 
L 641 3500 
L 1300 3500 
L 1972 2234 
L 3144 3500 
L 3841 3500 
z
" transform="scale(0.015625)"/>
       <path id="DejaVuSans-Oblique-70" d="M 3175 2156 
Q 3175 2616 2975 2859 
Q 2775 3103 2400 3103 
Q 2144 3103 1911 2972 
Q 1678 2841 1497 2591 
Q 1319 2344 1212 1994 
Q 1106 1644 1106 1300 
Q 1106 863 1306 627 
Q 1506 391 1875 391 
Q 2147 391 2380 519 
Q 2613 647 2778 891 
Q 2956 1147 3065 1494 
Q 3175 1841 3175 2156 
z
M 1394 2969 
Q 1625 3272 1939 3428 
Q 2253 3584 2638 3584 
Q 3175 3584 3472 3232 
Q 3769 2881 3769 2247 
Q 3769 1728 3584 1258 
Q 3400 788 3053 416 
Q 2822 169 2531 39 
Q 2241 -91 1919 -91 
Q 1547 -91 1294 64 
Q 1041 219 916 525 
L 556 -1331 
L -19 -1331 
L 922 3500 
L 1497 3500 
L 1394 2969 
z
" transform="scale(0.015625)"/>
       <path id="DejaVuSans-29" d="M 513 4856 
L 1013 4856 
Q 1481 4119 1714 3412 
Q 1947 2706 1947 2009 
Q 1947 1309 1714 600 
Q 1481 -109 1013 -844 
L 513 -844 
Q 928 -128 1133 580 
Q 1338 1288 1338 2009 
Q 1338 2731 1133 3434 
Q 928 4138 513 4856 
z
" transform="scale(0.015625)"/>
       <path id="DejaVuSans-2d" d="M 313 2009 
L 1997 2009 
L 1997 1497 
L 313 1497 
L 313 2009 
z
" transform="scale(0.015625)"/>
      </defs>
      <use xlink:href="#DejaVuSans-28" transform="translate(0 0.015625)"/>
      <use xlink:href="#DejaVuSans-Oblique-3c1" transform="translate(39.013672 0.015625)"/>
      <use xlink:href="#DejaVuSans-Oblique-73" transform="translate(102.490234 -16.390625) scale(0.7)"/>
      <use xlink:href="#DejaVuSans-Oblique-74" transform="translate(138.959961 -16.390625) scale(0.7)"/>
      <use xlink:href="#DejaVuSans-Oblique-6f" transform="translate(166.40625 -16.390625) scale(0.7)"/>
      <use xlink:href="#DejaVuSans-Oblique-63" transform="translate(209.233398 -16.390625) scale(0.7)"/>
      <use xlink:href="#DejaVuSans-Oblique-68" transform="translate(247.719727 -16.390625) scale(0.7)"/>
      <use xlink:href="#DejaVuSans-2f" transform="translate(294.819336 0.015625)"/>
      <use xlink:href="#DejaVuSans-Oblique-3c1" transform="translate(328.510742 0.015625)"/>
      <use xlink:href="#DejaVuSans-Oblique-65" transform="translate(391.987305 -16.390625) scale(0.7)"/>
      <use xlink:href="#DejaVuSans-Oblique-78" transform="translate(435.053711 -16.390625) scale(0.7)"/>
      <use xlink:href="#DejaVuSans-Oblique-70" transform="translate(476.479492 -16.390625) scale(0.7)"/>
      <use xlink:href="#DejaVuSans-29" transform="translate(523.647461 0.015625)"/>
      <use xlink:href="#DejaVuSans-2212" transform="translate(582.143555 0.015625)"/>
      <use xlink:href="#DejaVuSans-31" transform="translate(685.415039 0.015625)"/>
      <use xlink:href="#DejaVuSans-20" transform="translate(749.038086 0.015625)"/>
      <use xlink:href="#DejaVuSans-5b" transform="translate(780.825195 0.015625)"/>
      <use xlink:href="#DejaVuSans-2d" transform="translate(819.838867 0.015625)"/>
      <use xlink:href="#DejaVuSans-5d" transform="translate(855.922852 0.015625)"/>
     </g>
    </g>
   </g>
   <g id="line2d_14">
    <path d="M 75.677109 133.947401 
L 75.758937 60.980027 
L 75.840764 63.791994 
L 75.922592 60.300935 
L 76.086247 40.869607 
L 76.249902 43.446526 
L 76.33173 49.433815 
L 76.413557 45.587838 
L 76.495385 51.385768 
L 76.577212 39.688128 
L 76.740867 57.143848 
L 76.822695 57.052741 
L 76.904522 61.836785 
L 76.98635 61.761089 
L 77.068177 61.692094 
L 77.231833 42.025868 
L 77.31366 43.271775 
L 77.477315 38.442905 
L 77.559143 44.872763 
L 77.64097 41.430306 
L 77.722798 55.274962 
L 77.804625 50.912604 
L 77.886453 63.918677 
L 77.96828 58.791932 
L 78.131935 70.885383 
L 78.213763 65.142574 
L 78.29559 69.211261 
L 78.459246 60.141291 
L 78.786556 60.401812 
L 78.868383 55.586269 
L 79.032038 60.542874 
L 79.113866 60.581858 
L 79.195693 68.296206 
L 79.277521 67.649537 
L 79.441176 54.656144 
L 79.523004 59.652292 
L 79.604831 54.903219 
L 79.686659 55.010643 
L 79.768486 59.975458 
L 79.850314 55.197873 
L 80.095796 81.346839 
L 80.177624 79.546159 
L 80.259451 73.037917 
L 80.341279 76.408494 
L 80.504934 61.935004 
L 80.586761 61.420724 
L 80.750417 68.203158 
L 80.914072 59.161092 
L 81.077727 71.192303 
L 81.241382 64.600499 
L 81.323209 71.529046 
L 81.405037 70.16646 
L 81.486864 73.79106 
L 81.814174 44.468202 
L 81.97783 39.439252 
L 82.141485 47.126346 
L 82.30514 49.4701 
L 82.550622 58.644488 
L 82.63245 53.985535 
L 82.796105 66.891789 
L 82.877932 53.825518 
L 83.123415 72.628896 
L 83.28707 70.661772 
L 83.368898 64.940328 
L 83.61438 83.859446 
L 83.696208 81.406924 
L 83.859863 96.676315 
L 84.105345 88.022086 
L 84.187173 77.954195 
L 84.269001 79.265853 
L 84.350828 77.219734 
L 84.432656 80.220783 
L 84.596311 72.104612 
L 84.678138 83.235616 
L 84.759966 76.402715 
L 84.841793 79.476048 
L 84.923621 77.841812 
L 85.087276 89.670154 
L 85.332758 84.848355 
L 85.414586 87.174814 
L 85.578241 70.885231 
L 85.823724 86.229933 
L 86.069206 72.433369 
L 86.151034 74.233509 
L 86.232861 80.310038 
L 86.478344 61.069138 
L 86.560171 65.498651 
L 86.641999 65.100915 
L 86.723827 59.872557 
L 86.805654 64.407909 
L 86.969309 51.289383 
L 87.051137 51.718067 
L 87.296619 72.330451 
L 87.378447 66.462978 
L 87.542102 64.717472 
L 87.623929 56.281937 
L 87.705757 61.134894 
L 87.787585 61.123324 
L 87.95124 61.103214 
L 88.033067 68.771194 
L 88.27855 52.832051 
L 88.360377 48.689335 
L 88.442205 61.890403 
L 88.524032 61.812172 
L 88.687687 61.675903 
L 88.769515 49.074697 
L 88.93317 62.132399 
L 89.096825 61.942153 
L 89.58779 31.508729 
L 89.751445 40.538636 
L 89.833273 37.48365 
L 89.996928 40.638244 
L 90.078755 46.874836 
L 90.160583 43.259608 
L 90.242411 44.399127 
L 90.406066 53.38207 
L 90.487893 50.815562 
L 90.651548 59.536283 
L 90.733376 54.801505 
L 90.815203 59.785572 
L 90.978858 48.130482 
L 91.060686 61.380486 
L 91.142513 61.347867 
L 91.224341 61.318148 
L 91.306169 56.425974 
L 91.387996 61.266404 
L 91.551651 56.358397 
L 91.633479 56.339762 
L 91.715306 61.18783 
L 91.797134 61.172361 
L 92.042616 42.214868 
L 92.206271 49.435408 
L 92.288099 45.594406 
L 92.369926 46.527835 
L 92.451754 59.919329 
L 92.533582 55.151228 
L 92.697237 67.181742 
L 92.942719 65.686014 
L 93.270029 37.376183 
L 93.351857 39.466776 
L 93.433684 49.047966 
L 93.515512 45.241548 
L 93.597339 51.071173 
L 93.679167 39.41044 
L 93.760995 40.890964 
L 93.842822 42.240566 
L 94.006477 49.457057 
L 94.088305 50.479349 
L 94.25196 62.067889 
L 94.415615 61.067855 
L 94.497442 60.633158 
L 94.742925 53.168718 
L 94.824753 58.297313 
L 94.90658 50.862649 
L 94.988408 51.760725 
L 95.397545 55.191343 
L 95.479373 43.166854 
L 95.643028 64.898457 
L 95.724855 64.555317 
L 95.88851 63.957408 
L 95.970338 58.832912 
L 96.133993 66.055147 
L 96.215821 65.179544 
L 96.297648 72.056456 
L 96.379476 70.65013 
L 96.543131 68.199599 
L 96.624958 79.673975 
L 96.706786 70.349156 
L 96.788613 72.334517 
L 97.034096 62.032705 
L 97.115923 66.377401 
L 97.197751 65.90353 
L 97.279579 65.471567 
L 97.443234 52.858078 
L 97.525061 53.149605 
L 97.688716 65.518371 
L 97.770544 65.120473 
L 97.934199 71.423377 
L 98.097854 62.668279 
L 98.261509 62.38947 
L 98.425164 57.293272 
L 98.670647 57.017052 
L 98.752474 49.265775 
L 98.834302 49.874961 
L 99.079784 70.314934 
L 99.243439 56.882629 
L 99.325267 61.682718 
L 99.407094 61.623979 
L 99.488922 56.705903 
L 99.57075 61.521611 
L 99.652577 61.477105 
L 99.734405 56.571997 
L 99.816232 61.399537 
L 99.89806 61.36581 
L 100.061715 61.307024 
L 100.143542 56.416913 
L 100.22537 61.258151 
L 100.389025 53.542468 
L 100.55268 61.802442 
L 100.634507 56.868457 
L 100.716335 61.66974 
L 100.798163 61.612044 
L 100.961818 56.646897 
L 101.043645 61.467758 
L 101.125473 53.752783 
L 101.2073 57.20569 
L 101.289128 69.652247 
L 101.370955 68.888565 
L 101.452783 63.327792 
L 101.53461 67.557808 
L 101.698265 61.58734 
L 101.780093 65.971258 
L 101.86192 57.857853 
L 101.943748 65.812326 
L 102.025576 65.388145 
L 102.107403 60.136798 
L 102.189231 64.648969 
L 102.271058 51.787712 
L 102.352886 52.173528 
L 102.434713 57.389907 
L 102.516541 50.035209 
L 102.598368 58.681468 
L 102.680196 46.347789 
L 102.762023 47.214616 
L 102.843851 48.004774 
L 103.007506 54.24635 
L 103.171161 55.390396 
L 103.252989 48.212304 
L 103.334816 49.344371 
L 103.416644 45.511524 
L 103.498471 51.316985 
L 103.580299 47.30965 
L 103.743954 53.668581 
L 103.825781 49.453221 
L 103.907609 50.045236 
L 103.989436 55.449734 
L 104.071264 51.076793 
L 104.234919 56.798793 
L 104.480402 38.283237 
L 104.562229 39.862935 
L 104.644057 41.302921 
L 104.725884 47.480485 
L 104.807712 36.136422 
L 104.889539 37.905912 
L 105.135022 60.569585 
L 105.216849 60.608545 
L 105.298677 68.319801 
L 105.380504 67.673355 
L 105.462332 67.084061 
L 105.625987 46.519283 
L 106.035125 50.085823 
L 106.19878 55.97488 
L 106.280607 51.554836 
L 106.362435 56.825683 
L 106.444262 44.654354 
L 106.52609 45.670254 
L 106.607918 51.461477 
L 106.689745 47.440434 
L 106.771573 53.075105 
L 106.8534 41.235231 
L 107.017055 63.293636 
L 107.098883 63.091351 
L 107.262538 69.736147 
L 107.344365 76.640272 
L 107.426193 75.25764 
L 107.50802 69.131959 
L 107.671675 79.47724 
L 107.835331 71.489175 
L 107.917158 74.997064 
L 107.998986 68.894253 
L 108.162641 86.277214 
L 108.244468 84.042191 
L 108.489951 78.45455 
L 108.653606 82.50201 
L 108.817261 71.869911 
L 108.899088 70.908823 
L 109.062744 64.368514 
L 109.308226 76.427333 
L 109.390054 79.498418 
L 109.471881 72.996987 
L 109.553709 76.371415 
L 109.799191 72.643369 
L 110.044674 55.763393 
L 110.126502 51.360662 
L 110.208329 51.782672 
L 110.290157 52.167345 
L 110.371984 57.383737 
L 110.453812 45.160632 
L 110.617467 51.881056 
L 110.699294 40.144416 
L 110.781122 41.558184 
L 110.944777 48.887504 
L 111.026604 49.958358 
L 111.353915 34.452301 
L 111.435742 36.369306 
L 111.599397 51.573936 
L 111.681225 47.54114 
L 111.763052 48.300599 
L 111.84488 61.536163 
L 111.926707 61.488294 
L 112.008535 61.444644 
L 112.17219 56.502506 
L 112.254017 61.335433 
L 112.4995 35.330997 
L 112.581328 37.170082 
L 112.663155 43.712618 
L 112.744983 40.374688 
L 112.82681 41.767703 
L 112.908638 47.903651 
L 113.072293 42.438743 
L 113.235948 30.898947 
L 113.317775 41.237817 
L 113.399603 38.118564 
L 113.645086 54.35074 
L 113.726913 54.93802 
L 113.808741 50.60711 
L 113.972396 63.404907 
L 114.136051 58.130583 
L 114.217878 57.953182 
L 114.299706 54.979962 
L 114.463361 36.453078 
L 114.708843 41.223877 
L 115.036154 57.700879 
L 115.117981 53.125354 
L 115.199809 58.256857 
L 115.281636 50.820583 
L 115.363464 51.719864 
L 115.445291 52.539612 
L 115.527119 48.420445 
L 115.608946 49.101597 
L 115.690774 57.400503 
L 115.936256 36.03346 
L 116.018084 50.3545 
L 116.099912 46.428486 
L 116.181739 47.285752 
L 116.263567 52.933669 
L 116.345394 48.779538 
L 116.427222 61.973433 
L 116.509049 57.019858 
L 116.590877 61.806947 
L 116.672704 61.734569 
L 116.754532 56.802089 
L 116.836359 61.608437 
L 116.918187 61.553601 
L 117.081842 41.914264 
L 117.327325 56.606718 
L 117.409152 64.672349 
L 117.572807 56.371362 
L 117.81829 57.491061 
L 117.900117 52.933763 
L 117.981945 53.215662 
L 118.1456 53.706872 
L 118.227427 58.786956 
L 118.309255 54.11504 
L 118.391083 59.159031 
L 118.47291 46.775994 
L 118.554738 47.60245 
L 118.636565 48.35582 
L 118.80022 54.535151 
L 118.963875 55.625998 
L 119.045703 48.421963 
L 119.12753 49.533244 
L 119.291185 58.468876 
L 119.373013 51.013438 
L 119.45484 51.895552 
L 119.536668 47.833088 
L 119.782151 61.709125 
L 119.863978 49.100592 
L 120.027633 62.153286 
L 120.109461 49.505494 
L 120.191288 50.090622 
L 120.354943 58.788434 
L 120.436771 58.552635 
L 120.600426 65.819961 
L 120.845909 63.467936 
L 121.091391 45.495448 
L 121.255046 48.11468 
L 121.336874 41.575108 
L 121.418701 43.29203 
L 121.500529 39.990605 
L 121.664184 55.262468 
L 121.746011 50.902464 
L 121.827839 56.230685 
L 121.991494 42.358075 
L 122.073322 51.683914 
L 122.155149 47.640453 
L 122.318804 53.941081 
L 122.400632 49.69805 
L 122.482459 57.944409 
L 122.564287 50.105421 
L 122.646114 50.63773 
L 122.727942 51.122974 
L 123.055252 39.177456 
L 123.13708 53.220634 
L 123.218907 49.04149 
L 123.300735 62.212316 
L 123.628045 35.911583 
L 123.709872 42.56566 
L 123.7917 51.873158 
L 123.955355 33.871869 
L 124.037182 40.706357 
L 124.11901 29.956353 
L 124.200837 32.270831 
L 124.364493 36.30388 
L 124.609975 52.358078 
L 124.691803 53.121859 
L 124.855458 64.262952 
L 125.019113 62.887883 
L 125.182768 61.745333 
L 125.346423 72.660767 
L 125.510078 70.688817 
L 125.673733 64.184169 
L 125.755561 63.471941 
L 125.837388 67.688815 
L 125.919216 62.230924 
L 126.001043 66.557561 
L 126.082871 58.388406 
L 126.164698 58.619151 
L 126.246526 58.829505 
L 126.328353 54.15524 
L 126.410181 66.873452 
L 126.492008 66.353866 
L 126.573836 65.880247 
L 126.901146 50.312676 
L 127.146629 52.904675 
L 127.228456 48.754693 
L 127.310284 49.40733 
L 127.719421 83.635934 
L 127.883077 67.945561 
L 127.964904 66.901148 
L 128.046732 70.8149 
L 128.128559 65.081298 
L 128.292214 75.432928 
L 128.455869 58.318563 
L 128.537697 58.555957 
L 128.783179 73.205385 
L 128.865007 67.260631 
L 128.946835 71.142647 
L 129.028662 70.24601 
L 129.192317 61.006944 
L 129.355972 61.006552 
L 129.4378 68.683061 
L 129.519627 55.46184 
L 129.601455 60.387352 
L 129.683282 55.576475 
L 129.76511 55.626332 
L 129.846937 55.671797 
L 130.010592 68.293081 
L 130.09242 59.972162 
L 130.174248 67.740121 
L 130.337903 61.736389 
L 130.41973 61.241615 
L 130.501558 53.11421 
L 130.583385 53.381993 
L 130.665213 53.626112 
L 130.910695 40.860411 
L 131.07435 43.444029 
L 131.238005 35.782636 
L 131.319833 38.013601 
L 131.401661 35.181998 
L 131.483488 41.901126 
L 131.728971 25.483912 
L 131.974453 34.100549 
L 132.138108 26.787503 
L 132.219936 34.249076 
L 132.301763 31.750731 
L 132.383591 33.908247 
L 132.465418 48.416029 
L 132.547246 44.664884 
L 132.629074 50.545451 
L 132.710901 46.606044 
L 132.792729 47.449882 
L 132.956384 48.920328 
L 133.038211 62.100371 
L 133.201866 57.051616 
L 133.365521 68.760903 
L 133.447349 68.075789 
L 133.692832 47.444471 
L 133.774659 53.079278 
L 134.020142 40.950455 
L 134.101969 42.724947 
L 134.265624 52.81378 
L 134.347452 53.539155 
L 134.429279 41.660102 
L 134.511107 47.8065 
L 134.592934 36.434517 
L 134.674762 43.04306 
L 134.756589 39.767827 
L 134.838417 46.081589 
L 134.920245 42.537688 
L 135.002072 43.741755 
L 135.0839 42.028761 
L 135.247555 45.238896 
L 135.41121 62.578143 
L 135.574865 57.449773 
L 135.656692 57.335171 
L 135.73852 49.555532 
L 135.820347 55.003736 
L 135.902175 50.671075 
L 135.984002 56.020629 
L 136.229485 43.180301 
L 136.311313 39.893381 
L 136.474968 42.642512 
L 136.556795 48.702108 
L 136.638623 44.926942 
L 136.802278 51.689743 
L 136.884105 47.650421 
L 136.965933 60.942096 
L 137.129588 48.416 
L 137.211416 61.639932 
L 137.293243 56.720743 
L 137.375071 61.535324 
L 137.456898 48.950554 
L 137.538726 49.587873 
L 137.702381 50.698438 
L 137.866036 56.485698 
L 137.947863 52.02247 
L 138.029691 52.388175 
L 138.193346 57.889818 
L 138.357001 58.419373 
L 138.438829 53.785228 
L 138.520656 53.995089 
L 138.602484 59.050736 
L 138.684311 54.360795 
L 138.766139 54.519776 
L 138.847966 62.339376 
L 138.929794 61.792773 
L 139.175276 79.961172 
L 139.257104 73.422071 
L 139.420759 55.833199 
L 139.502586 63.536616 
L 139.829897 48.383985 
L 139.911724 56.746165 
L 139.993552 56.694261 
L 140.157207 56.603826 
L 140.239034 64.239065 
L 140.320862 60.714225 
L 140.402689 68.416121 
L 140.484517 67.762359 
L 140.566344 59.491883 
L 140.648172 59.627344 
L 140.73 54.886601 
L 140.811827 54.999165 
L 140.893655 59.965995 
L 141.05731 52.470281 
L 141.220965 53.916229 
L 141.302792 49.680564 
L 141.38462 50.253525 
L 141.466447 55.640027 
L 141.548275 51.251917 
L 141.793757 78.353781 
L 141.875585 64.282473 
L 141.957413 68.428307 
L 142.121068 59.502022 
L 142.202895 62.446854 
L 142.284723 74.42951 
L 142.448378 67.298986 
L 142.612033 65.415773 
L 142.69386 69.461357 
L 142.939343 52.744417 
L 143.02117 53.476518 
L 143.102998 61.818401 
L 143.266653 56.819653 
L 143.348481 56.761168 
L 143.430308 64.382398 
L 143.512136 63.655091 
L 143.593963 67.856344 
L 143.675791 67.251977 
L 143.757618 59.026476 
L 143.839446 59.202958 
L 143.921273 54.499561 
L 144.003101 54.646189 
L 144.084928 67.318715 
L 144.166756 61.897568 
L 144.248584 66.254216 
L 144.412239 52.830709 
L 144.494066 57.989164 
L 144.575894 53.392997 
L 144.657721 53.637408 
L 144.739549 53.860194 
L 144.903204 73.783358 
L 145.066859 64.629857 
L 145.148686 59.446314 
L 145.394169 84.560725 
L 145.475997 85.289305 
L 145.557824 82.712874 
L 145.721479 90.76255 
L 145.803307 88.132245 
L 145.966962 78.684425 
L 146.048789 81.556437 
L 146.130617 79.740208 
L 146.212444 73.220129 
L 146.294272 76.57535 
L 146.376099 75.199572 
L 146.457927 69.080965 
L 146.539754 80.477148 
L 146.70341 72.323063 
L 146.785237 75.757578 
L 146.948892 68.401195 
L 147.03072 72.182514 
L 147.112547 71.195068 
L 147.194375 70.294929 
L 147.35803 75.722729 
L 147.439857 82.097273 
L 147.603512 66.672437 
L 147.68534 73.417123 
L 147.767167 71.890153 
L 147.930823 81.769244 
L 148.176305 65.492996 
L 148.258133 77.206719 
L 148.33996 75.774702 
L 148.421788 74.469304 
L 148.503615 60.739167 
L 148.585443 65.197931 
L 148.66727 67.638437 
L 148.749098 79.162518 
L 148.994581 67.763741 
L 149.076408 62.301748 
L 149.240063 80.798434 
L 149.403718 62.780947 
L 149.485546 62.624363 
L 149.567373 54.80593 
L 149.649201 55.354556 
L 149.731028 50.989661 
L 149.812856 63.986237 
L 150.058338 50.723294 
L 150.140166 51.202595 
L 150.221994 43.963626 
L 150.303821 57.581632 
L 150.385649 53.019513 
L 150.549304 66.088471 
L 150.631131 65.639115 
L 150.712959 60.364314 
L 150.794786 64.856043 
L 150.958441 59.340059 
L 151.203924 58.564036 
L 151.285751 66.02583 
L 151.367579 57.475375 
L 151.449407 62.222527 
L 151.531234 54.438581 
L 151.613062 62.695474 
L 151.776717 50.546728 
L 151.940372 56.357298 
L 152.104027 45.279689 
L 152.185854 58.781714 
L 152.267682 54.112664 
L 152.349509 54.29166 
L 152.431337 51.643785 
L 152.67682 27.994715 
L 152.758647 27.672232 
L 152.922302 40.304049 
L 153.249612 58.903698 
L 153.33144 54.223443 
L 153.413267 59.258047 
L 153.65875 45.624467 
L 153.740578 46.98408 
L 153.822405 43.357726 
L 153.904233 49.35319 
L 153.98606 45.517271 
L 154.067888 54.132936 
L 154.149715 46.632778 
L 154.31337 53.104359 
L 154.395198 41.259553 
L 154.477025 47.440539 
L 154.558853 36.096508 
L 154.804335 52.200613 
L 154.886163 48.112589 
L 154.967991 48.821631 
L 155.049818 62.011031 
L 155.131646 61.921281 
L 155.213473 61.839453 
L 155.377128 56.830877 
L 155.868093 38.321572 
L 155.949921 44.762324 
L 156.031749 41.331757 
L 156.113576 42.640261 
L 156.195404 56.376504 
L 156.277231 51.918794 
L 156.359059 44.613575 
L 156.440886 45.631811 
L 156.604541 59.270706 
L 156.686369 54.556953 
L 156.850024 59.688523 
L 156.931851 52.12636 
L 157.013679 52.910479 
L 157.095506 48.759091 
L 157.177334 54.276796 
L 157.259162 42.326951 
L 157.340989 56.09108 
L 157.422817 51.658354 
L 157.504644 52.053468 
L 157.586472 44.735988 
L 157.668299 45.743256 
L 157.831954 40.499719 
L 157.913782 41.881597 
L 157.995609 43.141264 
L 158.077437 49.155772 
L 158.241092 39.291634 
L 158.404747 47.003619 
L 158.486575 40.562888 
L 158.568402 42.36949 
L 158.732057 45.517516 
L 158.813885 39.208164 
L 158.895712 41.134559 
L 159.059367 51.490148 
L 159.141195 47.464077 
L 159.223022 48.230004 
L 159.30485 48.928194 
L 159.386677 54.430958 
L 159.468505 42.466962 
L 159.63216 49.642152 
L 159.713988 45.779476 
L 159.795815 46.694371 
L 159.877643 52.394695 
L 159.95947 48.288591 
L 160.123125 64.290045 
L 160.204953 55.890094 
L 160.28678 55.910858 
L 160.368608 68.474004 
L 160.450435 67.812268 
L 160.532263 67.209052 
L 160.695918 61.29159 
L 160.777746 60.834676 
L 160.859573 65.284522 
L 160.941401 64.904852 
L 161.023228 64.558759 
L 161.186883 52.090455 
L 161.350538 52.772507 
L 161.432366 57.935348 
L 161.514193 50.527744 
L 161.596021 51.453114 
L 161.677848 47.430305 
L 161.759676 60.74347 
L 161.841503 53.087553 
L 161.923331 53.786563 
L 162.005159 54.423762 
L 162.086986 62.682476 
L 162.332469 41.215849 
L 162.414296 45.776291 
L 162.496124 43.880052 
L 162.741606 54.410298 
L 162.823434 50.126086 
L 162.987089 63.005563 
L 163.150744 50.12121 
L 163.232572 50.65231 
L 163.314399 51.13645 
L 163.396227 56.444069 
L 163.478054 44.302333 
L 163.559882 45.348069 
L 163.805364 55.640175 
L 163.887192 55.683277 
L 164.214502 69.878348 
L 164.29633 68.662331 
L 164.378157 72.420079 
L 164.459985 71.409644 
L 164.62364 64.782784 
L 164.787295 63.319815 
L 164.95095 73.968995 
L 165.114605 66.909632 
L 165.196432 65.956277 
L 165.27826 77.630926 
L 165.523743 61.052691 
L 165.60557 65.483471 
L 165.687398 60.220546 
L 165.769225 64.724928 
L 165.93288 51.551144 
L 166.014708 51.956166 
L 166.096535 64.86886 
L 166.178363 64.526465 
L 166.342018 52.065414 
L 166.423845 52.425026 
L 166.505673 57.618866 
L 166.5875 53.051698 
L 166.669328 53.324131 
L 166.751156 58.438473 
L 166.832983 53.798892 
L 166.996638 59.05941 
L 167.078466 59.230937 
L 167.160293 54.52137 
L 167.323948 59.659831 
L 167.405776 59.778318 
L 167.569431 52.307679 
L 167.651258 60.753545 
L 167.733086 53.098255 
L 167.814914 53.797107 
L 167.896741 49.568325 
L 167.978569 55.014909 
L 168.060396 50.678483 
L 168.142224 51.161089 
L 168.305879 56.867874 
L 168.387706 57.233466 
L 168.551361 50.193627 
L 168.633189 51.149522 
L 168.715016 47.155169 
L 168.796844 52.81523 
L 168.878671 48.673625 
L 169.042327 54.801134 
L 169.287809 56.305521 
L 169.533292 37.905066 
L 169.696947 52.851009 
L 169.778774 53.572146 
L 169.860602 46.552907 
L 169.942429 47.83107 
L 170.024257 56.672791 
L 170.26974 45.18184 
L 170.351567 51.016546 
L 170.433395 47.034612 
L 170.59705 61.116099 
L 170.678877 61.106499 
L 170.760705 61.097767 
L 170.842532 56.224438 
L 171.006187 68.073502 
L 171.25167 48.118729 
L 171.415325 54.340764 
L 171.497153 42.389092 
L 171.660808 57.255962 
L 171.742635 45.046646 
L 171.824463 46.028206 
L 171.988118 47.738644 
L 172.151773 56.836004 
L 172.2336 53.964213 
L 172.397255 40.482639 
L 172.479083 42.298245 
L 172.642738 30.789108 
L 173.297358 53.601196 
L 173.379186 41.716271 
L 173.461013 42.992799 
L 173.542841 44.156455 
L 173.624668 42.406539 
L 173.706496 44.052313 
L 173.788324 40.687699 
L 173.870151 42.055302 
L 174.115634 53.149813 
L 174.197461 53.415377 
L 174.279289 45.982097 
L 174.361116 46.881603 
L 174.442944 52.566316 
L 174.524771 40.773753 
L 174.606599 42.133938 
L 174.688426 48.238544 
L 174.770254 44.504133 
L 174.933909 58.334792 
L 175.343047 35.277817 
L 175.424874 44.799306 
L 175.506702 42.993228 
L 175.588529 44.587573 
L 175.752184 54.362002 
L 175.997667 55.977312 
L 176.161322 44.969681 
L 176.24315 50.823604 
L 176.324977 44.050824 
L 176.406805 45.551822 
L 176.57046 40.492654 
L 176.652287 29.769348 
L 176.734115 44.642264 
L 176.815942 38.416394 
L 176.89777 40.415799 
L 176.979597 42.238399 
L 177.22508 53.172101 
L 177.306908 53.866631 
L 177.388735 49.635545 
L 177.634218 70.752817 
L 177.716045 69.89263 
L 177.797873 69.108532 
L 177.8797 76.068166 
L 177.961528 69.87383 
L 178.043355 73.525385 
L 178.125183 72.420073 
L 178.20701 71.412525 
L 178.288838 78.168373 
L 178.534321 62.151498 
L 178.616148 66.486013 
L 178.861631 45.628672 
L 178.943458 46.56045 
L 179.107113 48.184119 
L 179.270768 54.397289 
L 179.352596 50.119872 
L 179.434423 50.654536 
L 179.516251 56.005836 
L 179.598079 51.586226 
L 179.679906 59.665238 
L 179.843561 52.078391 
L 179.925389 52.439915 
L 180.007216 57.63333 
L 180.089044 53.069903 
L 180.252699 66.131152 
L 180.334526 53.142373 
L 180.416354 58.27367 
L 180.661836 46.404779 
L 180.743664 47.268147 
L 180.825492 52.918945 
L 180.907319 48.7726 
L 180.989147 54.29035 
L 181.070974 50.022751 
L 181.152802 63.10371 
L 181.234629 58.056715 
L 181.480112 69.457454 
L 181.561939 63.848602 
L 181.643767 75.706795 
L 181.889249 60.907439 
L 182.052905 67.779965 
L 182.21656 65.817021 
L 182.298387 57.290086 
L 182.380215 62.054566 
L 182.462042 61.964146 
L 182.54387 61.881724 
L 182.625697 69.480227 
L 182.789352 61.05707 
L 182.87118 56.191215 
L 182.953007 61.052863 
L 183.034835 61.051034 
L 183.116663 56.185718 
L 183.19849 63.857811 
L 183.362145 55.562946 
L 183.5258 60.528957 
L 183.607628 60.573453 
L 183.771283 52.977379 
L 183.85311 53.689694 
L 183.934938 62.012615 
L 184.098593 49.988207 
L 184.18042 58.208344 
L 184.262248 55.217964 
L 184.425903 41.532191 
L 184.507731 38.392988 
L 184.589558 44.828573 
L 184.671386 41.397845 
L 184.835041 43.894718 
L 184.916868 52.653715 
L 184.998696 50.154515 
L 185.080523 51.116414 
L 185.326006 38.852457 
L 185.407833 48.487473 
L 185.489661 44.7331 
L 185.735144 67.038662 
L 185.898799 46.490642 
L 185.980626 47.346365 
L 186.144281 60.69622 
L 186.307936 60.752717 
L 186.389764 63.587265 
L 186.471591 75.468441 
L 186.553419 74.191596 
L 186.717074 52.434056 
L 186.962557 53.339133 
L 187.044384 45.915311 
L 187.126212 59.359323 
L 187.208039 54.643232 
L 187.371694 47.905329 
L 187.453522 40.961935 
L 187.535349 47.170181 
L 187.617177 43.531938 
L 187.699004 44.649095 
L 187.780832 45.667445 
L 188.026315 60.75098 
L 188.108142 55.911624 
L 188.18997 55.933924 
L 188.353625 48.977438 
L 188.435452 49.612914 
L 188.51728 55.056061 
L 188.599107 50.720205 
L 188.680935 51.201522 
L 188.762762 56.504166 
L 188.926417 42.599215 
L 189.1719 53.445098 
L 189.253728 54.115491 
L 189.417383 65.089247 
L 189.49921 69.163704 
L 189.581038 60.769827 
L 189.662865 60.792396 
L 189.744693 63.623132 
L 189.82652 62.963193 
L 189.908348 62.361598 
L 190.153831 54.480582 
L 190.235658 67.167435 
L 190.317486 61.760031 
L 190.399313 66.128836 
L 190.808451 34.208942 
L 190.890278 36.149974 
L 190.972106 30.24489 
L 191.135761 46.485323 
L 191.217588 47.770821 
L 191.381244 37.472009 
L 191.463071 31.449809 
L 191.544899 46.173541 
L 191.626726 34.947673 
L 191.708554 41.687495 
L 191.790381 38.532881 
L 191.872209 40.09134 
L 192.117691 55.229013 
L 192.281346 36.672761 
L 192.526829 49.072471 
L 192.608657 49.698733 
L 192.690484 55.134014 
L 192.772312 50.789959 
L 192.854139 51.264288 
L 192.935967 56.561105 
L 193.181449 39.403773 
L 193.345104 35.238858 
L 193.426932 29.413311 
L 193.672414 33.766492 
L 193.754242 31.311716 
L 193.917897 40.375357 
L 193.999725 29.660949 
L 194.081552 44.543295 
L 194.16338 41.13537 
L 194.327035 43.673635 
L 194.49069 38.7863 
L 194.572517 40.321831 
L 194.654345 46.586243 
L 194.818 37.164043 
L 194.899828 43.707698 
L 195.063483 38.957925 
L 195.14531 43.718999 
L 195.227138 42.007598 
L 195.47262 46.617067 
L 195.554448 43.025354 
L 195.636275 44.185837 
L 195.718103 42.433038 
L 195.881758 45.573844 
L 195.963585 42.074279 
L 196.045413 43.318806 
L 196.127241 49.318131 
L 196.290896 31.757694 
L 196.454551 35.880571 
L 196.536378 34.862063 
L 196.618206 32.309619 
L 196.700033 39.282511 
L 196.781861 36.339115 
L 196.863688 38.090713 
L 197.109171 54.331507 
L 197.190998 50.057184 
L 197.272826 55.460581 
L 197.354654 51.086373 
L 197.436481 56.398751 
L 197.600136 44.637483 
L 197.681964 58.195947 
L 197.763791 53.579752 
L 197.927446 73.551227 
L 198.009274 67.577054 
L 198.172929 78.185307 
L 198.336584 70.416625 
L 198.418412 76.830325 
L 198.500239 67.325001 
L 198.745722 84.151317 
L 198.827549 69.563581 
L 198.909377 73.241893 
L 198.991204 67.294849 
L 199.154859 77.27196 
L 199.236687 75.833649 
L 199.318514 61.981284 
L 199.400342 66.330106 
L 199.645825 57.363034 
L 199.973135 71.302558 
L 200.054962 78.0682 
L 200.13679 76.559362 
L 200.218617 70.318669 
L 200.382272 80.463436 
L 200.545927 57.635271 
L 200.79141 57.272673 
L 201.036893 75.918222 
L 201.11872 69.734038 
L 201.200548 73.397194 
L 201.282375 72.301296 
L 201.44603 50.852395 
L 201.691513 70.376215 
L 201.936996 56.24022 
L 202.018823 61.096667 
L 202.264306 49.211111 
L 202.427961 55.247584 
L 202.755271 32.972504 
L 202.837098 35.021114 
L 202.918926 34.077518 
L 203.246236 48.226276 
L 203.328064 44.490671 
L 203.409891 58.062764 
L 203.491719 53.457262 
L 203.573546 53.694288 
L 203.655374 66.452482 
L 203.737201 65.97056 
L 203.819029 68.342315 
L 203.982684 64.1469 
L 204.064511 71.545479 
L 204.146339 70.613144 
L 204.228166 72.574327 
L 204.309994 83.66291 
L 204.391822 81.658965 
L 204.555477 65.624828 
L 204.637304 69.651351 
L 204.719132 64.020924 
L 204.964614 73.972155 
L 205.046442 67.959599 
L 205.128269 71.779646 
L 205.210097 70.826566 
L 205.373752 61.489119 
L 205.45558 61.446075 
L 205.537407 64.217929 
L 205.619235 60.692178 
L 205.701062 48.17731 
L 205.78289 61.423505 
L 205.864717 56.520657 
L 205.946545 61.352312 
L 206.192027 35.348348 
L 206.273855 34.375679 
L 206.355682 44.40713 
L 206.43751 41.009134 
L 206.601165 48.432094 
L 206.682993 44.678161 
L 206.76482 45.69153 
L 206.928475 52.322959 
L 207.010303 48.224956 
L 207.09213 48.92468 
L 207.173958 46.751435 
L 207.337613 49.160655 
L 207.41944 45.342346 
L 207.583095 61.841749 
L 207.664923 61.337302 
L 207.74675 65.743058 
L 207.828578 65.323895 
L 207.910406 64.941806 
L 208.074061 59.410451 
L 208.155888 63.986622 
L 208.237716 58.857249 
L 208.319543 63.482349 
L 208.483198 58.197788 
L 208.565026 62.881217 
L 208.728681 57.698326 
L 208.810508 70.102538 
L 208.974163 61.566751 
L 209.219646 61.430372 
L 209.383301 56.492893 
L 209.465129 64.138172 
L 209.546956 63.430794 
L 209.628784 62.785983 
L 209.710611 67.063696 
L 209.792439 66.527902 
L 209.874266 61.174017 
L 209.956094 65.594297 
L 210.119749 59.953086 
L 210.201577 64.481351 
L 210.283404 64.17398 
L 210.447059 63.638409 
L 210.610714 48.51943 
L 210.856197 57.926695 
L 210.938024 53.33367 
L 211.019852 58.447374 
L 211.183507 47.0172 
L 211.265334 47.824151 
L 211.347162 40.883423 
L 211.42899 42.23285 
L 211.592645 44.584282 
L 211.838127 59.929227 
L 211.919955 55.159341 
L 212.08361 60.190972 
L 212.165437 55.398002 
L 212.329092 60.389338 
L 212.41092 60.444151 
L 212.574575 48.677173 
L 212.656403 49.337557 
L 212.820058 55.35354 
L 212.983713 56.309808 
L 213.06554 51.86033 
L 213.229195 57.449929 
L 213.474678 43.640559 
L 213.556505 47.987605 
L 213.638333 41.033239 
L 213.720161 47.23494 
L 213.801988 43.58825 
L 213.883816 44.698927 
L 214.047471 58.496422 
L 214.129298 53.853907 
L 214.211126 58.921821 
L 214.292953 54.24174 
L 214.374781 59.275366 
L 214.456608 54.564073 
L 214.538436 54.704215 
L 214.620263 59.696959 
L 214.702091 54.948465 
L 214.865746 60.016432 
L 214.947574 55.239769 
L 215.029401 55.320259 
L 215.111229 55.393648 
L 215.193056 68.001039 
L 215.274884 67.383235 
L 215.356711 54.27967 
L 215.438539 54.445156 
L 215.684021 74.395937 
L 215.765849 73.212681 
L 215.847676 59.593859 
L 215.929504 71.82967 
L 216.093159 58.140386 
L 216.174987 57.964594 
L 216.256814 62.669104 
L 216.338642 57.658325 
L 216.420469 62.389931 
L 216.502297 62.268601 
L 216.747779 50.104246 
L 216.829607 55.503943 
L 216.911434 51.127034 
L 216.993262 56.436289 
L 217.156917 45.35011 
L 217.238745 46.305689 
L 217.320572 59.716436 
L 217.4024 54.967162 
L 217.484227 52.261799 
L 217.566055 60.711415 
L 217.72971 53.088729 
L 217.975192 55.012687 
L 218.05702 50.679637 
L 218.220675 56.470147 
L 218.302502 49.197878 
L 218.466158 61.003355 
L 218.547985 52.900107 
L 218.793468 68.36123 
L 218.875295 67.282121 
L 219.03895 65.401812 
L 219.284433 89.072306 
L 219.36626 86.59183 
L 219.529915 77.405378 
L 219.693571 73.813927 
L 219.775398 77.116971 
L 219.939053 67.400877 
L 220.020881 66.837072 
L 220.102708 73.997571 
L 220.266363 57.13459 
L 220.430018 72.462545 
L 220.593673 65.665166 
L 220.675501 69.6889 
L 220.757329 68.922864 
L 220.839156 63.360514 
L 221.084639 73.474542 
L 221.248294 59.510806 
L 221.330121 71.753025 
L 221.411949 70.804537 
L 221.493776 65.075944 
L 221.657431 83.103006 
L 221.739259 81.150802 
L 221.902914 72.88514 
L 221.984742 71.406455 
L 222.066569 74.922487 
L 222.393879 50.758575 
L 222.475707 51.666888 
L 222.557534 47.630993 
L 222.639362 48.38578 
L 222.803017 42.705724 
L 222.884844 43.896116 
L 222.966672 44.981244 
L 223.048499 50.834262 
L 223.212155 40.020193 
L 223.293982 46.311957 
L 223.37581 35.07593 
L 223.539465 43.505221 
L 223.621292 40.19134 
L 223.70312 41.604199 
L 223.948602 56.37667 
L 224.194085 38.591636 
L 224.275912 52.683517 
L 224.35774 48.558085 
L 224.439568 49.231104 
L 224.521395 62.38204 
L 224.603223 57.39895 
L 224.68505 62.153838 
L 224.848705 57.100557 
L 224.930533 57.018158 
L 225.01236 61.806726 
L 225.094188 56.874598 
L 225.176015 69.349497 
L 225.257843 63.750339 
L 225.33967 70.753507 
L 225.421498 69.463732 
L 225.503326 68.288025 
L 225.666981 59.244392 
L 225.748808 71.509656 
L 225.830636 65.719535 
L 225.912463 77.412148 
L 226.239773 46.434128 
L 226.321601 52.158706 
L 226.567083 54.311168 
L 226.648911 50.042095 
L 226.730739 55.447602 
L 226.812566 51.078042 
L 226.894394 56.391935 
L 226.976221 51.938876 
L 227.058049 52.313083 
L 227.139876 52.654199 
L 227.303531 58.112156 
L 227.385359 50.697094 
L 227.467186 51.611242 
L 227.549014 55.254451 
L 227.712669 70.077577 
L 227.794496 68.847699 
L 227.876324 75.400012 
L 227.958152 73.699443 
L 228.039979 77.01279 
L 228.121807 70.736177 
L 228.203634 77.121471 
L 228.285462 75.268663 
L 228.367289 78.443229 
L 228.530944 70.636676 
L 228.612772 74.220867 
L 228.694599 73.054675 
L 228.858254 71.022562 
L 229.02191 56.797039 
L 229.103737 61.605128 
L 229.185565 61.554597 
L 229.267392 61.508532 
L 229.431047 53.754841 
L 229.594702 54.985311 
L 229.840185 44.593861 
L 230.00384 53.545611 
L 230.085667 58.641219 
L 230.167495 53.989235 
L 230.33115 59.221388 
L 230.412978 62.191522 
L 230.494805 61.658979 
L 230.576633 61.173525 
L 230.740288 50.522842 
L 230.822115 43.778847 
L 230.903943 45.304711 
L 230.98577 46.695632 
L 231.231253 37.63585 
L 231.394908 45.632451 
L 231.476736 42.130798 
L 231.558563 48.23584 
L 231.640391 44.503945 
L 231.804046 51.339479 
L 231.967701 52.978065 
L 232.049528 48.826759 
L 232.131356 49.476044 
L 232.213183 50.067904 
L 232.376838 55.962815 
L 232.458666 51.547517 
L 232.540494 51.956167 
L 232.622321 60.002223 
L 232.704149 59.663173 
L 232.785976 64.217715 
L 233.195114 37.692361 
L 233.276941 51.863463 
L 233.358769 47.810591 
L 233.440596 48.54965 
L 233.522424 54.086993 
L 233.604251 49.837457 
L 233.686079 58.070877 
L 233.931562 44.237778 
L 234.013389 52.966404 
L 234.095217 45.575809 
L 234.177044 51.376124 
L 234.258872 47.366245 
L 234.422527 60.712735 
L 234.504354 55.877148 
L 234.586182 55.902759 
L 234.668009 55.926098 
L 234.831664 68.504172 
L 234.913492 67.843215 
L 234.99532 62.376981 
L 235.077147 66.691465 
L 235.158975 66.190791 
L 235.32263 72.313464 
L 235.404457 66.451843 
L 235.486285 78.079727 
L 235.568112 76.5719 
L 235.64994 75.197407 
L 235.731767 69.08069 
L 235.813595 72.802302 
L 235.895422 71.761143 
L 236.059078 65.083085 
L 236.222733 83.108352 
L 236.386388 79.375793 
L 236.63187 84.112607 
L 236.713698 81.640994 
L 236.795525 84.251797 
L 236.877353 69.660172 
L 236.95918 73.330474 
L 237.122835 66.386751 
L 237.286491 76.517706 
L 237.531973 53.227231 
L 237.613801 53.486784 
L 237.777456 66.477073 
L 237.941111 60.691579 
L 238.104766 59.925774 
L 238.186593 67.267026 
L 238.268421 66.284886 
L 238.350248 70.253603 
L 238.513904 56.155249 
L 238.595731 68.693989 
L 238.677559 63.151692 
L 238.759386 67.397466 
L 238.841214 61.969782 
L 238.923041 66.320068 
L 239.004869 60.987617 
L 239.086696 65.424751 
L 239.250351 59.816619 
L 239.495834 78.463767 
L 239.577661 72.057252 
L 239.659489 62.976837 
L 239.741317 67.238022 
L 239.823144 66.688353 
L 240.150454 64.934529 
L 240.232282 72.263036 
L 240.314109 71.26891 
L 240.395937 70.362685 
L 240.559592 63.919259 
L 240.723247 75.145903 
L 240.96873 52.185096 
L 241.050557 65.075253 
L 241.214212 59.525369 
L 241.29604 64.091701 
L 241.377867 51.280904 
L 241.541522 64.644008 
L 241.62335 64.323454 
L 241.705177 64.031235 
L 241.868832 70.518117 
L 242.032488 61.916111 
L 242.196143 56.899877 
L 242.27797 61.69835 
L 242.441625 49.722627 
L 242.60528 55.674184 
L 242.687108 51.282197 
L 242.850763 56.970079 
L 243.014418 57.654219 
L 243.259901 46.608857 
L 243.423556 60.761781 
L 243.587211 46.133328 
L 243.669038 47.449485 
L 243.750866 43.784623 
L 243.832693 44.878268 
L 243.996348 53.780369 
L 244.078176 53.990029 
L 244.160003 59.045795 
L 244.241831 54.355344 
L 244.323659 67.054023 
L 244.487314 61.168551 
L 244.569141 65.589484 
L 244.650969 65.184973 
L 244.814624 64.480085 
L 244.896451 59.308953 
L 244.978279 63.894332 
L 245.060106 63.639697 
L 245.305589 63.003079 
L 245.387416 50.287155 
L 245.551072 70.814917 
L 245.632899 69.948225 
L 245.878382 53.10948 
L 245.960209 53.808537 
L 246.042037 54.44577 
L 246.205692 62.552786 
L 246.369347 57.427877 
L 246.696657 57.032085 
L 246.778485 61.81881 
L 246.860312 49.207349 
L 246.94214 62.361517 
L 247.105795 57.268864 
L 247.187622 54.359176 
L 247.26945 47.272193 
L 247.351277 48.487427 
L 247.433105 49.595192 
L 247.514932 38.064665 
L 247.59676 44.528786 
L 247.678587 33.446302 
L 247.760415 35.454013 
L 247.842243 29.608678 
L 247.92407 36.820622 
L 248.005898 34.095318 
L 248.169553 49.685069 
L 248.25138 50.686951 
L 248.415035 37.76055 
L 248.496863 39.816996 
L 248.57869 36.826747 
L 248.824173 52.756002 
L 249.069656 54.759002 
L 249.151483 42.771938 
L 249.233311 43.955036 
L 249.315138 45.033513 
L 249.642448 39.849919 
L 249.724276 49.397131 
L 249.806103 37.884391 
L 249.969758 52.833772 
L 250.051586 53.557354 
L 250.133413 41.676791 
L 250.215241 47.821625 
L 250.378896 38.190833 
L 250.460724 44.643972 
L 250.542551 41.227152 
L 250.624379 47.411784 
L 250.706206 36.074906 
L 250.788034 37.850474 
L 250.869861 39.469033 
L 250.951689 38.133888 
L 251.033516 40.157623 
L 251.278999 59.269962 
L 251.360827 54.559881 
L 251.442654 54.700818 
L 251.524482 59.693955 
L 251.606309 47.271264 
L 251.769964 61.312708 
L 251.851792 61.286723 
L 252.015447 61.241485 
L 252.097274 56.357257 
L 252.179102 61.203949 
L 252.260929 61.187654 
L 252.424584 56.294757 
L 252.58824 56.271275 
L 252.670067 48.586112 
L 252.751895 49.2556 
L 252.833722 49.865897 
L 252.91555 47.611792 
L 253.161032 50.864178 
L 253.24286 39.223202 
L 253.324687 45.585275 
L 253.406515 34.411249 
L 253.488342 36.334495 
L 253.57017 35.277283 
L 253.651997 29.879404 
L 253.733825 35.444062 
L 253.89748 24.275376 
L 254.142963 43.250244 
L 254.22479 39.95789 
L 254.388445 47.561329 
L 254.470273 41.077516 
L 254.5521 42.841684 
L 254.715755 52.911603 
L 254.797583 53.629255 
L 254.961238 61.875543 
L 255.043066 69.47488 
L 255.206721 56.187052 
L 255.370376 68.042821 
L 255.452203 54.884161 
L 255.534031 54.997402 
L 255.615858 59.964672 
L 255.779513 40.61099 
L 255.861341 41.986619 
L 255.943168 43.240614 
L 256.024996 49.247675 
L 256.188651 39.380329 
L 256.679616 71.263122 
L 256.761444 70.358331 
L 256.843271 77.207392 
L 257.088754 62.044221 
L 257.252409 61.051182 
L 257.334237 57.809568 
L 257.416064 45.55747 
L 257.497892 46.496122 
L 257.579719 55.025362 
L 257.661547 52.316795 
L 257.825202 53.790734 
L 257.907029 49.567922 
L 258.070684 55.548051 
L 258.152512 56.033452 
L 258.316167 66.683939 
L 258.397994 70.617921 
L 258.479822 64.907213 
L 258.643477 75.288994 
L 258.725305 74.028686 
L 258.88896 66.96929 
L 258.970787 70.878074 
L 259.052615 70.007939 
L 259.134442 64.351465 
L 259.21627 68.49178 
L 259.298097 67.832744 
L 259.379925 70.041754 
L 259.461752 81.351831 
L 259.54358 74.692298 
L 259.625408 77.918113 
L 259.789063 55.534531 
L 259.87089 55.591459 
L 259.952718 68.179377 
L 260.1982 53.912342 
L 260.280028 66.648686 
L 260.361855 53.617062 
L 260.443683 53.843699 
L 260.52551 54.050312 
L 260.770993 66.424056 
L 260.934648 60.651498 
L 261.098303 79.425306 
L 261.180131 72.936785 
L 261.261958 76.317947 
L 261.671096 52.989587 
L 261.834751 58.392278 
L 261.916578 53.764111 
L 261.998406 58.840889 
L 262.080234 54.173102 
L 262.162061 59.213718 
L 262.407544 40.748046 
L 262.489371 46.975955 
L 262.571199 43.357631 
L 262.653026 49.354765 
L 262.734854 45.526119 
L 262.980336 55.105018 
L 263.062164 55.200584 
L 263.307647 67.295776 
L 263.389474 66.743308 
L 263.553129 53.246068 
L 263.716784 58.605795 
L 263.880439 46.484426 
L 263.962267 47.342518 
L 264.044094 52.987288 
L 264.125922 41.16592 
L 264.289577 48.567939 
L 264.453232 31.150499 
L 264.616887 40.245723 
L 264.698715 42.085686 
L 264.780542 46.572222 
L 264.944197 38.39545 
L 265.026025 35.536665 
L 265.271507 51.782991 
L 265.435162 55.480785 
L 265.51699 55.543522 
L 265.598818 68.134677 
L 265.8443 53.883161 
L 266.007955 59.135599 
L 266.089783 54.442875 
L 266.253438 59.600725 
L 266.335265 59.729206 
L 266.417093 47.312597 
L 266.580748 63.478049 
L 266.744403 55.253303 
L 266.989886 34.442118 
L 267.235368 58.625429 
L 267.317196 53.97806 
L 267.562678 69.179378 
L 267.808161 59.655218 
L 267.889989 64.211191 
L 267.971816 59.06993 
L 268.053644 63.677664 
L 268.217299 58.372208 
L 268.299126 63.041644 
L 268.380954 55.194772 
L 268.462781 55.713066 
L 268.544609 56.185528 
L 268.626436 44.0829 
L 268.708264 45.153914 
L 268.790091 53.801399 
L 268.871919 46.34178 
L 269.035574 59.862111 
L 269.199229 47.530662 
L 269.281057 48.296793 
L 269.444712 49.631796 
L 269.608367 62.595929 
L 269.690194 57.597671 
L 269.772022 62.3356 
L 269.853849 57.360372 
L 269.935677 62.119284 
L 270.017504 62.025252 
L 270.099332 57.077478 
L 270.181159 61.861403 
L 270.262987 56.928122 
L 270.344815 61.725252 
L 270.426642 56.804013 
L 270.50847 61.612116 
L 270.590297 56.700883 
L 270.672125 61.518102 
L 270.753952 61.477233 
L 270.83578 61.439977 
L 270.999435 56.513003 
L 271.081262 56.484778 
L 271.16309 61.321096 
L 271.244917 56.435589 
L 271.326745 68.947344 
L 271.408573 68.249452 
L 271.572228 62.171302 
L 271.654055 74.175812 
L 271.735883 73.015525 
L 271.81771 71.957843 
L 271.899538 66.131633 
L 271.981365 70.1148 
L 272.063193 64.451564 
L 272.14502 68.5833 
L 272.308675 62.448604 
L 272.390503 61.895386 
L 272.554158 80.457336 
L 272.635986 81.550542 
L 272.717813 91.841263 
L 272.799641 89.118658 
L 272.881468 74.103549 
L 272.963296 77.38167 
L 273.045123 71.075652 
L 273.126951 74.621532 
L 273.290606 60.473017 
L 273.372433 60.094385 
L 273.454261 72.282596 
L 273.617916 58.529332 
L 273.781571 58.134029 
L 273.945226 65.476801 
L 274.108881 63.906955 
L 274.190709 68.08673 
L 274.272536 67.464647 
L 274.354364 62.035347 
L 274.436191 66.380619 
L 274.518019 61.047143 
L 274.681674 72.081174 
L 274.763501 71.105771 
L 274.927157 64.543793 
L 275.008984 68.667194 
L 275.090812 67.993644 
L 275.172639 54.845844 
L 275.418122 67.026757 
L 275.499949 66.498206 
L 275.581777 61.154027 
L 275.663604 73.24874 
L 275.745432 72.169914 
L 275.909087 80.092426 
L 276.072742 73.920371 
L 276.15457 72.782067 
L 276.318225 65.936046 
L 276.400052 69.93622 
L 276.48188 69.150178 
L 276.645535 62.917933 
L 276.727362 62.32247 
L 277.054672 51.801962 
L 277.300155 63.228268 
L 277.381983 62.605219 
L 277.46381 54.365254 
L 277.545638 54.525951 
L 277.709293 74.334204 
L 278.036603 58.364413 
L 278.11843 58.17132 
L 278.200258 55.185845 
L 278.445741 30.702425 
L 278.691223 34.750457 
L 278.773051 32.212716 
L 278.854878 46.867325 
L 278.936706 43.258005 
L 279.100361 50.30511 
L 279.182188 46.391705 
L 279.264016 47.257191 
L 279.427671 53.628189 
L 279.509498 54.283742 
L 279.591326 50.018377 
L 279.673154 50.563077 
L 279.754981 55.922548 
L 279.836809 51.51219 
L 280.000464 64.15783 
L 280.164119 58.767782 
L 280.655084 40.027956 
L 280.982394 69.749317 
L 281.064222 56.443132 
L 281.146049 61.282563 
L 281.309704 49.383885 
L 281.391532 54.847584 
L 281.637014 30.442858 
L 281.718842 45.25445 
L 281.800669 38.977349 
L 281.882497 40.928229 
L 281.964325 42.70658 
L 282.12798 38.132457 
L 282.291635 44.135644 
L 282.373462 45.200249 
L 282.537117 40.060925 
L 282.700772 54.642453 
L 282.7826 50.344706 
L 282.864427 55.72345 
L 283.028082 44.763982 
L 283.10991 58.309275 
L 283.191738 53.687217 
L 283.273565 53.907095 
L 283.355393 46.434489 
L 283.43722 59.832078 
L 283.519048 55.075326 
L 283.600875 55.172436 
L 283.682703 60.124249 
L 283.76453 55.341642 
L 284.09184 70.266638 
L 284.173668 69.020289 
L 284.255495 72.747472 
L 284.337323 66.848494 
L 284.419151 78.440832 
L 284.582806 63.640772 
L 284.746461 62.378344 
L 284.828288 74.366016 
L 284.910116 73.187199 
L 284.991943 67.249289 
L 285.237426 84.093894 
L 285.319253 82.054778 
L 285.401081 80.195987 
L 285.482908 81.311367 
L 285.728391 87.072277 
L 285.810219 87.579543 
L 285.892046 84.802049 
L 286.055701 92.498759 
L 286.137529 89.716312 
L 286.301184 65.336628 
L 286.383011 69.389531 
L 286.628494 55.505273 
L 286.873977 75.198183 
L 286.955804 69.082253 
L 287.037632 67.940495 
L 287.201287 77.809043 
L 287.446769 62.501186 
L 287.692252 75.633936 
L 287.774079 66.239466 
L 287.855907 70.212519 
L 287.937735 64.537425 
L 288.019562 68.660998 
L 288.10139 67.986553 
L 288.183217 67.371751 
L 288.265045 59.138011 
L 288.346872 66.979037 
L 288.4287 61.589874 
L 288.510527 65.974117 
L 288.674182 57.465755 
L 288.75601 65.454678 
L 288.837837 52.526991 
L 288.919665 52.849252 
L 289.001492 58.006482 
L 289.165148 46.660178 
L 289.328803 48.268011 
L 289.41063 46.157078 
L 289.656113 49.765465 
L 289.819768 32.139092 
L 289.983423 41.065285 
L 290.06525 37.967905 
L 290.228906 45.908787 
L 290.310733 42.383111 
L 290.392561 48.466017 
L 290.474388 44.714221 
L 290.556216 45.727561 
L 290.638043 59.187968 
L 290.719871 54.488011 
L 290.883526 59.636279 
L 290.965353 59.76012 
L 291.129008 66.970559 
L 291.210836 61.582435 
L 291.456319 72.807172 
L 291.538146 71.766297 
L 291.619974 65.954138 
L 291.701801 69.952588 
L 291.783629 69.164192 
L 291.865456 71.255306 
L 292.029111 61.711411 
L 292.110939 66.085092 
L 292.192766 65.638777 
L 292.274594 60.368658 
L 292.438249 74.327267 
L 292.520076 77.585266 
L 292.683732 69.924842 
L 292.765559 68.708945 
L 292.847387 59.927633 
L 292.929214 64.459106 
L 293.092869 51.344918 
L 293.174697 56.635435 
L 293.256524 44.488883 
L 293.338352 58.058619 
L 293.420179 50.649456 
L 293.502007 51.568417 
L 293.665662 55.300889 
L 293.74749 55.378466 
L 293.829317 67.985112 
L 293.911145 67.371035 
L 293.992972 74.484037 
L 294.0748 68.432147 
L 294.238455 85.890675 
L 294.483937 72.191315 
L 294.565765 71.205359 
L 294.647592 73.116217 
L 294.811247 70.253118 
L 294.893075 81.544142 
L 294.974903 79.731115 
L 295.138558 71.708968 
L 295.302213 69.083925 
L 295.547695 59.579133 
L 295.793178 71.290486 
L 295.875005 65.521538 
L 295.956833 72.367998 
L 296.120488 67.500835 
L 296.284143 66.409596 
L 296.447798 53.646312 
L 296.529626 61.542978 
L 296.611453 61.069042 
L 296.775108 60.243251 
L 296.856936 52.212119 
L 296.938763 57.426183 
L 297.020591 52.883724 
L 297.102418 58.038407 
L 297.184246 53.441864 
L 297.266074 53.684513 
L 297.347901 53.905722 
L 297.838866 37.244434 
L 297.920694 38.919723 
L 298.084349 41.839 
L 298.166176 35.436165 
L 298.248004 37.271477 
L 298.411659 47.462933 
L 298.575314 48.938234 
L 298.820797 70.224496 
L 299.148107 42.047829 
L 299.229934 43.298722 
L 299.311762 49.301331 
L 299.475417 39.433039 
L 299.557244 40.915295 
L 299.639072 34.595093 
L 299.7209 41.367498 
L 299.802727 38.246548 
L 299.884555 52.367359 
L 300.04821 34.310181 
L 300.130037 41.107845 
L 300.37552 34.091932 
L 300.457347 40.908952 
L 300.539175 30.157953 
L 300.621002 37.32292 
L 300.70283 26.889245 
L 300.866485 43.698752 
L 300.948313 40.372362 
L 301.275623 57.125956 
L 301.521105 64.454894 
L 301.68476 59.019975 
L 301.766588 58.770874 
L 301.930243 77.86112 
L 302.012071 71.514127 
L 302.093898 70.160173 
L 302.175726 66.117224 
L 302.257553 73.340873 
L 302.339381 72.255385 
L 302.421208 71.265924 
L 302.584863 64.680399 
L 302.748518 63.247955 
L 302.912173 81.580937 
L 303.157656 65.371419 
L 303.239484 77.09233 
L 303.321311 75.675389 
L 303.566794 72.133235 
L 303.730449 65.402074 
L 303.812276 69.450415 
L 303.975931 55.503382 
L 304.057759 55.566075 
L 304.139586 60.484329 
L 304.221414 48.005872 
L 304.303241 48.731719 
L 304.385069 54.254421 
L 304.466897 49.996594 
L 304.630552 55.908701 
L 304.712379 43.835368 
L 304.794207 49.791141 
L 304.876034 45.928274 
L 304.957862 51.698972 
L 305.121517 33.763393 
L 305.203344 48.279124 
L 305.285172 44.55022 
L 305.530655 59.231685 
L 305.612482 54.534337 
L 305.69431 54.683306 
L 305.857965 66.794319 
L 305.939792 61.428321 
L 306.02162 65.828318 
L 306.185275 60.16514 
L 306.267102 59.81631 
L 306.430757 66.877227 
L 306.512585 65.934863 
L 306.594412 77.604971 
L 306.758068 69.951316 
L 307.00355 79.150467 
L 307.167205 76.096181 
L 307.33086 61.707762 
L 307.412688 61.222814 
L 307.494515 65.64107 
L 307.576343 65.238128 
L 307.65817 67.67885 
L 307.739998 66.665909 
L 307.903653 76.751189 
L 308.149136 51.921763 
L 308.230963 52.732267 
L 308.312791 56.279053 
L 308.476446 49.280333 
L 308.558273 54.754813 
L 308.640101 47.646863 
L 308.721928 51.643442 
L 308.885583 71.936288 
L 309.049239 70.102397 
L 309.131066 72.113096 
L 309.376549 94.149602 
L 309.540204 80.892839 
L 309.622031 81.949285 
L 309.703859 84.534628 
L 310.031169 59.056828 
L 310.112996 63.666715 
L 310.194824 63.438834 
L 310.358479 63.041778 
L 310.522134 57.852047 
L 310.603962 54.900908 
L 310.685789 47.780735 
L 310.767617 48.957828 
L 310.849444 45.171033 
L 311.094927 54.84303 
L 311.176754 59.825602 
L 311.258582 47.410309 
L 311.340409 48.190459 
L 311.422237 48.901626 
L 311.504065 62.077088 
L 311.585892 61.989959 
L 311.66772 49.383406 
L 311.749547 49.989112 
L 311.831375 55.400967 
L 311.99503 48.695739 
L 312.32234 52.53292 
L 312.404167 40.762982 
L 312.485995 46.990792 
L 312.64965 37.526012 
L 312.731478 44.040104 
L 312.813305 40.688652 
L 312.895133 42.063457 
L 313.058788 49.318694 
L 313.140615 50.360082 
L 313.222443 58.976564 
L 313.30427 54.304299 
L 313.386098 54.47505 
L 313.467925 54.630711 
L 313.549753 62.439745 
L 313.63158 61.891053 
L 313.713408 66.250417 
L 313.795236 60.934975 
L 313.877063 65.378892 
L 314.040718 59.795234 
L 314.122546 64.339949 
L 314.204373 59.193532 
L 314.286201 63.79146 
L 314.449856 58.476258 
L 314.531683 63.137621 
L 314.695338 55.12547 
L 314.777166 55.653475 
L 314.858993 51.275361 
L 314.940821 51.714125 
L 315.104476 52.4787 
L 315.186304 57.670477 
L 315.268131 50.306537 
L 315.431786 59.119478 
L 315.595441 59.453726 
L 315.759096 47.883281 
L 316.086406 69.366135 
L 316.250062 60.301449 
L 316.331889 68.038639 
L 316.413717 62.565448 
L 316.495544 69.672676 
L 316.577372 68.484578 
L 316.741027 66.414307 
L 316.822854 70.373684 
L 316.904682 64.694025 
L 317.068337 75.112611 
L 317.231992 60.895308 
L 317.31382 65.342751 
L 317.395647 64.96732 
L 317.559302 59.453837 
L 317.722957 70.758251 
L 317.804785 69.903897 
L 317.96844 55.889158 
L 318.050267 55.920025 
L 318.213922 55.973812 
L 318.29575 60.856475 
L 318.377577 56.018507 
L 318.459405 63.704658 
L 318.541233 60.236917 
L 318.62306 60.313019 
L 318.704888 47.856392 
L 318.868543 61.799333 
L 319.032198 49.832702 
L 319.114025 50.399179 
L 319.195853 63.441552 
L 319.27768 63.234258 
L 319.359508 63.045296 
L 319.523163 69.704729 
L 319.60499 68.943544 
L 319.686818 55.723685 
L 319.768646 55.769183 
L 320.014128 55.882926 
L 320.095956 68.440331 
L 320.341438 45.633331 
L 320.505093 55.236243 
L 320.586921 50.895306 
L 320.750576 56.657801 
L 320.832404 57.050429 
L 320.914231 52.54906 
L 321.077886 58.031998 
L 321.159714 53.44383 
L 321.241541 53.690963 
L 321.323369 53.916241 
L 321.405196 58.980871 
L 321.487024 46.642092 
L 321.568851 47.490747 
L 321.650679 48.264356 
L 321.814334 42.623701 
L 321.896161 43.827746 
L 321.977989 49.784578 
L 322.059817 45.925828 
L 322.141644 46.837865 
L 322.305299 53.286374 
L 322.387127 49.117973 
L 322.468954 54.606983 
L 322.550782 42.655146 
L 322.632609 43.856469 
L 322.714437 49.810798 
L 322.878092 39.87116 
L 322.959919 41.318727 
L 323.041747 39.830882 
L 323.123574 41.711762 
L 323.28723 30.334054 
L 323.369057 28.195648 
L 323.532712 44.784483 
L 323.61454 41.3682 
L 323.778195 56.408213 
L 323.860022 51.96403 
L 323.94185 49.53496 
L 324.023677 50.557807 
L 324.26916 41.2674 
L 324.350988 42.591752 
L 324.514643 56.747011 
L 324.59647 59.939476 
L 324.678298 56.805273 
L 324.760125 44.659877 
L 324.841953 50.54335 
L 324.92378 38.951828 
L 325.005608 40.481102 
L 325.087435 54.400458 
L 325.169263 50.134243 
L 325.25109 47.86736 
L 325.332918 49.037952 
L 325.414745 45.246076 
L 325.578401 58.952728 
L 325.823883 47.62762 
L 325.905711 48.389851 
L 325.987538 53.943569 
L 326.069366 46.910906 
L 326.151193 48.166282 
L 326.233021 49.310657 
L 326.314848 42.687852 
L 326.396676 44.316777 
L 326.478503 40.942875 
L 326.642158 48.389175 
L 326.723986 49.513986 
L 326.969469 26.443853 
L 327.051296 29.079913 
L 327.133124 36.341541 
L 327.214951 33.673365 
L 327.542261 40.662271 
L 327.624089 54.565224 
L 327.705916 50.285673 
L 327.787744 63.337499 
L 327.869572 58.282234 
L 327.951399 62.96137 
L 328.033227 62.797909 
L 328.196882 57.654755 
L 328.278709 62.38942 
L 328.442364 57.315543 
L 328.524192 57.221913 
L 328.606019 61.994893 
L 328.687847 57.058848 
L 328.769674 69.511378 
L 328.851502 56.245599 
L 328.933329 61.104958 
L 329.015157 48.582798 
L 329.178812 57.545526 
L 329.342467 57.328213 
L 329.424295 69.756732 
L 329.506122 68.992797 
L 329.58795 63.438399 
L 329.669777 67.661714 
L 329.751605 67.08314 
L 329.91526 54.230258 
L 330.160742 69.374629 
L 330.24257 68.215121 
L 330.406225 78.717051 
L 330.488053 77.16099 
L 330.56988 70.884762 
L 330.733535 80.935361 
L 330.815363 79.183206 
L 330.89719 77.586031 
L 331.060845 62.958886 
L 331.142673 67.22472 
L 331.2245 61.827571 
L 331.306328 68.999963 
L 331.388155 67.87393 
L 331.469983 71.705108 
L 331.633638 58.072768 
L 331.797293 65.431762 
L 331.960948 63.8828 
L 332.124603 70.259642 
L 332.206431 69.022436 
L 332.288258 72.7521 
L 332.533741 58.089425 
L 332.615569 57.928642 
L 332.697396 65.445777 
L 332.779224 64.634455 
L 333.024706 48.574679 
L 333.106534 54.112772 
L 333.188361 42.212618 
L 333.270189 43.456147 
L 333.597499 47.423811 
L 333.679326 45.400408 
L 333.761154 46.791735 
L 334.252119 26.084382 
L 334.333947 16.664162 
L 334.661257 34.401214 
L 334.824912 45.906461 
L 334.906739 42.396769 
L 335.070395 56.586141 
L 335.23405 37.851639 
L 335.315877 39.481832 
L 335.479532 61.826607 
L 335.56136 61.766063 
L 335.725015 56.804141 
L 335.88867 68.557934 
L 335.970497 63.045801 
L 336.052325 67.304596 
L 336.21598 46.760268 
L 336.379635 60.889712 
L 336.461463 56.056159 
L 336.54329 60.9332 
L 336.788773 49.144906 
L 336.8706 57.438864 
L 336.952428 57.337572 
L 337.034255 62.101363 
L 337.116083 57.161192 
L 337.19791 64.746165 
L 337.279738 63.998773 
L 337.443393 55.712652 
L 337.525221 55.764311 
L 337.607048 60.667323 
L 337.770703 41.248689 
L 337.852531 42.579727 
L 338.016186 52.560323 
L 338.098013 45.230014 
L 338.179841 46.209128 
L 338.343496 60.431913 
L 338.588979 48.769249 
L 338.670806 49.435629 
L 338.752634 54.898575 
L 338.834461 50.596933 
L 339.079944 64.497512 
L 339.243599 59.078407 
L 339.325426 66.493733 
L 339.407254 65.59295 
L 339.489081 64.771876 
L 339.898219 49.364499 
L 339.980047 49.978961 
L 340.143702 63.564542 
L 340.225529 63.352616 
L 340.307357 63.159475 
L 340.389184 70.643137 
L 340.471012 69.805295 
L 340.716494 53.06937 
L 340.798322 53.78594 
L 340.88015 54.439181 
L 341.043805 62.559508 
L 341.125632 62.436933 
L 341.20746 62.325241 
L 341.289287 65.028128 
L 341.371115 56.598971 
L 341.452942 61.428822 
L 341.616597 49.550169 
L 341.780252 55.549508 
L 341.86208 56.047298 
L 341.943907 51.646901 
L 342.107563 64.950619 
L 342.18939 56.958578 
L 342.271218 57.331973 
L 342.353045 52.818347 
L 342.434873 53.128737 
L 342.5167 58.2657 
L 342.598528 53.669731 
L 342.762183 58.973327 
L 342.84401 54.315013 
L 342.925838 54.493328 
L 343.007665 62.313955 
L 343.089493 61.784925 
L 343.253148 60.863225 
L 343.334976 68.120459 
L 343.416803 67.078074 
L 343.580458 72.919512 
L 343.744113 67.988996 
L 343.907768 66.839559 
L 344.153251 46.596078 
L 344.398734 48.959439 
L 344.480561 54.465461 
L 344.644216 43.770133 
L 344.726044 44.882078 
L 344.889699 51.672815 
L 344.971526 52.515171 
L 345.053354 60.939806 
L 345.135181 48.453086 
L 345.217009 54.004062 
L 345.298836 49.787599 
L 345.380664 50.367782 
L 345.462491 50.896706 
L 345.707974 70.413111 
L 345.871629 61.876952 
L 346.035284 68.742184 
L 346.117112 68.075568 
L 346.198939 67.467955 
L 346.362594 61.556951 
L 346.444422 61.096875 
L 346.526249 65.529841 
L 346.608077 65.147605 
L 346.689904 52.291386 
L 346.771732 65.158717 
L 346.85356 64.809445 
L 347.017215 51.693503 
L 347.18087 57.334415 
L 347.262697 52.825397 
L 347.426352 72.908358 
L 347.590007 70.93131 
L 347.753662 57.458991 
L 347.83549 62.213935 
L 347.917318 57.274017 
L 347.999145 62.045352 
L 348.080973 57.12051 
L 348.1628 64.708453 
L 348.244628 63.970756 
L 348.326455 68.149874 
L 348.571938 54.640245 
L 348.653765 59.644633 
L 348.735593 54.932775 
L 348.899248 67.004525 
L 348.981075 58.839197 
L 349.062903 61.852888 
L 349.390213 84.819274 
L 349.553868 75.979655 
L 349.635696 79.096889 
L 349.799351 56.594861 
L 349.881178 61.42655 
L 349.963006 56.558245 
L 350.044833 69.046549 
L 350.208488 62.874384 
L 350.290316 62.300066 
L 350.535799 47.529051 
L 350.699454 53.8765 
L 350.781281 49.676741 
L 350.863109 55.120488 
L 350.944936 50.810886 
L 351.108591 59.406153 
L 351.272246 58.895848 
L 351.517729 70.790399 
L 351.681384 64.325759 
L 351.763212 63.624041 
L 351.845039 55.332315 
L 351.926867 55.426107 
L 352.090522 68.091566 
L 352.254177 62.08414 
L 352.336004 66.430863 
L 352.417832 61.12253 
L 352.499659 68.356254 
L 352.581487 59.647027 
L 352.663315 71.860887 
L 352.82697 65.217148 
L 352.908797 64.437352 
L 353.072452 75.579409 
L 353.15428 74.312167 
L 353.236107 73.157051 
L 353.317935 79.755197 
L 353.48159 71.777856 
L 353.563417 75.267458 
L 353.645245 74.028081 
L 353.727072 60.398426 
L 353.8089 64.894492 
L 353.890728 59.723573 
L 353.972555 64.279361 
L 354.054383 64.012046 
L 354.13621 58.91944 
L 354.218038 63.546405 
L 354.299865 63.344075 
L 354.381693 63.159694 
L 354.46352 55.341437 
L 354.545348 55.864948 
L 354.709003 56.777343 
L 354.79083 52.325372 
L 354.954486 65.515337 
L 355.118141 59.948288 
L 355.199968 64.484538 
L 355.281796 64.199961 
L 355.445451 70.67723 
L 355.609106 56.589131 
L 355.690933 61.422605 
L 355.772761 61.409208 
L 355.854588 61.397062 
L 355.936416 53.737037 
L 356.018243 54.403592 
L 356.100071 55.01127 
L 356.181899 50.717358 
L 356.263726 51.222493 
L 356.345554 51.683034 
L 356.509209 57.333484 
L 356.591036 45.186434 
L 356.672864 46.181183 
L 356.754691 51.935603 
L 356.836519 47.914793 
L 357.082001 62.477339 
L 357.163829 62.37201 
L 357.409312 43.936251 
L 357.572967 53.022112 
L 357.818449 40.528136 
L 357.900277 41.936442 
L 357.982104 55.7137 
L 358.063932 51.361147 
L 358.391242 52.938487 
L 358.47307 50.450055 
L 358.554897 43.764346 
L 358.636725 45.316069 
L 358.718552 46.730672 
L 358.80038 43.174402 
L 358.882207 44.350159 
L 359.045862 39.430221 
L 359.12769 40.937597 
L 359.373172 56.520563 
L 359.455 52.100149 
L 359.536827 52.487577 
L 359.700483 60.807121 
L 359.78231 57.625744 
L 359.864138 57.953443 
L 359.945965 58.252298 
L 360.027793 53.680338 
L 360.10962 58.773455 
L 360.191448 54.155883 
L 360.355103 66.362639 
L 360.600585 65.145069 
L 360.682413 59.965359 
L 360.76424 64.502947 
L 361.009723 51.253689 
L 361.091551 51.718896 
L 361.173378 49.345041 
L 361.255206 50.407719 
L 361.337033 59.017386 
L 361.418861 46.741418 
L 361.500688 52.449289 
L 361.582516 40.755245 
L 361.664343 42.150376 
L 361.909826 57.504837 
L 361.991653 53.005371 
L 362.073481 53.317843 
L 362.155309 53.602866 
L 362.237136 51.065671 
L 362.318964 51.97847 
L 362.400791 40.331061 
L 362.646274 58.250418 
L 362.809929 57.964105 
L 362.891756 62.680457 
L 363.055411 50.662912 
L 363.137239 51.185269 
L 363.219067 56.501589 
L 363.382722 45.531827 
L 363.464549 58.984067 
L 363.546377 46.724716 
L 363.628204 52.436051 
L 363.710032 48.392016 
L 363.791859 56.751712 
L 363.873687 53.941905 
L 363.955514 49.765781 
L 364.037342 55.208524 
L 364.119169 50.921119 
L 364.200997 51.423678 
L 364.282824 59.515159 
L 364.364652 59.257927 
L 364.528307 71.280304 
L 364.77379 56.427674 
L 364.937445 61.297778 
L 365.019272 56.475978 
L 365.1011 61.326169 
L 365.182927 56.502673 
L 365.346582 64.15559 
L 365.42841 63.491048 
L 365.510237 60.091848 
L 365.592065 63.008551 
L 365.673893 54.817604 
L 365.75572 59.815203 
L 365.837548 55.128728 
L 365.919375 55.264369 
L 366.001203 67.850258 
L 366.164858 61.942598 
L 366.41034 60.665159 
L 366.492168 65.146244 
L 366.573995 64.825243 
L 366.655823 59.699937 
L 366.737651 64.266698 
L 366.819478 51.567117 
L 366.901306 52.02121 
L 366.983133 60.059426 
L 367.064961 59.762782 
L 367.228616 59.24677 
L 367.310443 51.400169 
L 367.392271 56.70206 
L 367.555926 45.070115 
L 367.637753 46.101828 
L 367.801408 47.900485 
L 367.965064 56.34247 
L 368.046891 48.758798 
L 368.128719 54.295509 
L 368.210546 50.111402 
L 368.292374 50.699864 
L 368.374201 48.446907 
L 368.456029 49.610388 
L 368.537856 45.843145 
L 368.619684 59.255891 
L 368.701511 54.6364 
L 368.783339 67.270614 
L 368.865166 66.770323 
L 369.110649 53.753812 
L 369.192477 54.024147 
L 369.274304 46.656871 
L 369.356132 52.381656 
L 369.437959 40.762707 
L 369.683442 55.812126 
L 369.847097 56.802321 
L 369.928924 64.844011 
L 370.010752 56.953581 
L 370.256235 64.42491 
L 370.338062 51.752711 
L 370.583545 65.427358 
L 370.7472 53.045823 
L 370.829027 58.208222 
L 370.910855 46.094775 
L 370.992682 59.477248 
L 371.07451 54.85815 
L 371.319992 42.115576 
L 371.40182 48.246698 
L 371.483648 44.625742 
L 371.565475 53.318488 
L 371.647303 50.858503 
L 371.810958 40.964709 
L 371.974613 43.676447 
L 372.05644 42.073988 
L 372.301923 60.104267 
L 372.38375 55.444327 
L 372.465578 60.398865 
L 372.547405 52.934209 
L 372.711061 61.366298 
L 372.792888 61.411461 
L 372.874716 49.051083 
L 372.956543 49.762202 
L 373.038371 50.411086 
L 373.202026 56.353201 
L 373.283853 56.846108 
L 373.365681 64.882761 
L 373.447508 64.621972 
L 373.529336 64.38495 
L 373.611163 66.946913 
L 373.692991 66.080357 
L 373.938474 63.918549 
L 374.020301 75.708394 
L 374.102129 74.494741 
L 374.265784 67.579079 
L 374.347611 71.465233 
L 374.429439 65.827877 
L 374.674921 76.121063 
L 374.838576 54.468308 
L 375.084059 66.854577 
L 375.165887 61.637315 
L 375.329542 73.272828 
L 375.493197 59.698223 
L 375.656852 70.994029 
L 375.820507 61.94167 
L 375.984162 61.986739 
L 376.147817 50.34874 
L 376.3933 64.422758 
L 376.556955 59.275167 
L 376.638782 63.906537 
L 376.802437 56.090742 
L 376.884265 64.192433 
L 377.04792 51.556556 
L 377.129747 52.093384 
L 377.293402 53.032653 
L 377.457058 58.596333 
L 377.538885 46.624997 
L 377.784368 63.115856 
L 377.866195 62.641813 
L 377.948023 54.681634 
L 378.02985 54.958249 
L 378.111678 67.509109 
L 378.193505 62.304515 
L 378.275333 74.202376 
L 378.35716 68.409706 
L 378.438988 72.244287 
L 378.520816 71.39575 
L 378.602643 70.624067 
L 378.684471 62.407525 
L 378.766298 65.187296 
L 378.848126 76.82235 
L 378.929953 70.816773 
L 379.011781 74.442739 
L 379.093608 73.411342 
L 379.257263 71.62017 
L 379.420918 58.552839 
L 379.584573 65.986557 
L 379.748229 64.675079 
L 379.830056 56.621549 
L 379.911884 69.001117 
L 380.157366 49.136283 
L 380.321021 55.454104 
L 380.484676 37.769549 
L 380.566504 39.617884 
L 380.648331 46.034975 
L 380.730159 40.116787 
L 380.811986 42.18635 
L 381.139297 51.544375 
L 381.221124 56.916258 
L 381.302952 52.805962 
L 381.466607 58.577357 
L 381.630262 59.474294 
L 381.712089 55.172273 
L 381.793917 55.541299 
L 381.957572 60.889385 
L 382.121227 61.451253 
L 382.203055 57.023317 
L 382.284882 57.262386 
L 382.612192 58.084829 
L 382.69402 62.922141 
L 382.775847 58.434281 
L 382.857675 63.247685 
L 383.02133 52.230684 
L 383.184985 53.661101 
L 383.266813 46.996514 
L 383.512295 57.064804 
L 383.594123 57.440299 
L 383.839605 65.682207 
L 384.00326 65.032525 
L 384.166915 57.994889 
L 384.248743 58.39888 
L 384.33057 70.489234 
L 384.412398 70.202455 
L 384.576053 65.240494 
L 384.657881 69.587597 
L 384.821536 64.874711 
L 384.903363 64.819251 
L 384.985191 76.289752 
L 385.067018 71.193624 
L 385.148846 75.075873 
L 385.230673 74.589842 
L 385.312501 74.1774 
L 385.394328 66.908458 
L 385.476156 67.268904 
L 385.721639 55.389427 
L 385.803466 57.014938 
L 385.967121 53.332057 
L 386.294431 60.993708 
L 386.376259 58.673778 
L 386.458086 64.446982 
L 386.539914 62.162123 
L 386.867224 77.748097 
L 387.112707 72.958523 
L 387.194534 72.87627 
L 387.276362 71.844776 
L 387.440017 78.816816 
L 387.521844 79.909461 
L 387.603672 77.2199 
L 387.603672 77.2199 
" clip-path="url(#pd366aa124d)" style="fill: none; stroke: #1f77b4; stroke-width: 1.5; stroke-linecap: square"/>
   </g>
   <g id="patch_3">
    <path d="M 60.080781 139.811562 
L 60.080781 10.8 
" style="fill: none; stroke: #000000; stroke-width: 0.8; stroke-linejoin: miter; stroke-linecap: square"/>
   </g>
   <g id="patch_4">
    <path d="M 403.2 139.811562 
L 403.2 10.8 
" style="fill: none; stroke: #000000; stroke-width: 0.8; stroke-linejoin: miter; stroke-linecap: square"/>
   </g>
   <g id="patch_5">
    <path d="M 60.080781 139.811563 
L 403.2 139.811563 
" style="fill: none; stroke: #000000; stroke-width: 0.8; stroke-linejoin: miter; stroke-linecap: square"/>
   </g>
   <g id="patch_6">
    <path d="M 60.080781 10.8 
L 403.2 10.8 
" style="fill: none; stroke: #000000; stroke-width: 0.8; stroke-linejoin: miter; stroke-linecap: square"/>
   </g>
  </g>
 </g>
 <defs>
  <clipPath id="pd366aa124d">
   <rect x="60.080781" y="10.8" width="343.119219" height="129.011562"/>
  </clipPath>
 </defs>
</svg>
